<?xml version="1.0" encoding="UTF-8"?>
<!DOCTYPE svg PUBLIC "-//W3C//DTD SVG 1.1//EN" "http://www.w3.org/Graphics/SVG/1.1/DTD/svg11.dtd">
<!-- Creator: CorelDRAW X8 -->
<svg xmlns="http://www.w3.org/2000/svg" xml:space="preserve" width="1050px" height="660px" version="1.1" shape-rendering="geometricPrecision" text-rendering="geometricPrecision" image-rendering="optimizeQuality" fill-rule="evenodd" clip-rule="evenodd"
viewBox="0 0 1050 660"
 xmlns:xlink="http://www.w3.org/1999/xlink">
 <defs>
    <clipPath id="id0" clip-rule="nonzero">
     <path d="M764 201l59 0 80 156 1 0 -3 -156 36 0 0 186 -60 0 -79 -155 -1 0 2 77 1 78 -36 0 0 -186z"/>
    </clipPath>
    <clipPath id="id1" clip-rule="nonzero">
     <path d="M163 387l0 -155 -54 0 0 -31 145 0 0 31 -55 0 0 155 -36 0z"/>
    </clipPath>
    <clipPath id="id2" clip-rule="nonzero">
     <path d="M310 325l65 0 -32 -97 -1 0 -32 97zm5 -124l53 0 63 186 -36 0 -12 -35 -81 0 -12 35 -37 0 43 -129 19 -57z"/>
    </clipPath>
    <clipPath id="id3" clip-rule="nonzero">
     <path d="M446 201l36 0 0 156 88 0 0 30 -124 0 0 -186z"/>
    </clipPath>
    <clipPath id="id4" clip-rule="nonzero">
     <path d="M659 230c-11,0 -20,1 -27,3 -6,1 -10,4 -12,9 -2,6 -4,14 -5,25 1,2 1,3 1,6l0 44c0,15 1,26 5,32 3,4 7,7 12,8 6,1 14,1 25,2 11,-1 20,-1 25,-3 6,-1 10,-4 13,-7 2,-3 3,-7 5,-12 1,-5 1,-11 1,-17l0 -49 0 -7c0,-12 -2,-20 -6,-25 -4,-5 -10,-7 -19,-8 -6,-1 -12,-1 -18,-1zm0 -30c9,0 18,0 27,1 8,1 16,2 24,5 7,3 13,7 17,13 2,2 4,7 7,14 3,8 4,18 4,33l0 60c0,11 -1,20 -3,26 -2,6 -5,12 -9,17 -4,6 -10,11 -18,14 -8,2 -16,4 -24,5 -8,0 -18,1 -30,1 -14,0 -26,-1 -36,-3 -10,-2 -18,-7 -24,-13 -9,-10 -14,-27 -14,-53l0 -51c0,-10 1,-20 2,-28 2,-9 5,-16 9,-23 4,-5 10,-9 17,-12 8,-3 15,-5 23,-5 8,-1 17,-1 28,-1z"/>
    </clipPath>
    <clipPath id="id5" clip-rule="nonzero">
     <path d="M764 201l43 0 0 47 -9 -16 -1 0 2 77 1 78 -36 0 0 -186z"/>
    </clipPath>
 </defs>
 <g id="Layer_x0020_1">
  <metadata id="CorelCorpID_0Corel-Layer"/>
  <g id="_868474832">
   <polygon fill="#2B2A29" fill-rule="nonzero" points="764,201 823,201 903,357 904,357 901,201 937,201 937,387 877,387 798,232 797,232 799,309 800,387 764,387 "/>
   <g clip-path="url(#id0)">
    <g>
     <g>
      <path id="1" fill="#2B2A29" d="M724 240c-1,1 -1,2 -2,2 -1,0 -1,0 -2,1 -1,0 -2,1 -3,1 0,1 0,1 0,1 -1,0 -1,0 -1,0 -1,1 -2,1 -3,1 -2,0 -2,1 -3,1 0,1 -1,1 -2,2 -1,0 -1,1 -2,1 0,0 -1,1 -2,2 -1,1 -1,1 -2,2 -1,1 -3,2 -5,2 0,0 0,0 0,0 -1,0 -1,0 -1,0l0 0c-1,0 -1,0 -1,1 -1,0 -1,0 -2,0l-2 2c0,1 0,1 -1,2 0,1 0,1 -1,1 -1,0 -2,1 -3,1 -1,1 -2,1 -3,2 -1,0 -1,1 -2,1 -1,1 -2,2 -3,2 0,0 0,0 0,0 -1,1 -1,0 -1,1 0,0 -2,1 -3,2 -1,1 -2,2 -2,2 -1,1 -1,1 -2,1l-1 1c-6,3 -6,5 -9,6 -1,0 -3,2 -4,2l-1 0c0,1 -1,2 -2,2 0,1 0,0 -1,1l-1 0c0,1 0,0 0,1 -1,0 -1,0 -1,0 -1,1 -1,1 -1,2 0,0 0,0 -1,0 0,0 0,0 0,0 0,1 0,1 -1,1 -1,1 -2,2 -2,3 -4,3 -1,1 -4,2 -2,2 -3,3 -3,3 -1,1 -1,2 -2,2l-1 1 -3 1c0,1 -1,2 -2,2 -2,1 -2,1 -4,2 -1,1 -1,1 -2,1l0 1c0,0 0,0 0,0 -1,2 -2,3 -3,4 -3,2 -5,4 -8,5 -1,1 -3,2 -4,3 -1,1 -2,3 -2,3 -1,0 0,0 -1,0 0,1 0,1 0,1 -1,0 -2,1 -3,1 0,1 0,0 0,1 -1,0 -1,0 -1,0 0,1 -1,2 -2,2 0,2 -2,3 -3,4 -1,1 -1,1 -2,2 -1,0 -1,1 -2,2l-1 1c0,1 0,0 1,-1 1,0 1,0 2,0 1,-1 3,-1 3,-2 0,-1 1,0 1,-1 0,0 0,0 1,0 2,-3 1,-4 4,-6 3,-2 3,-1 5,-5 1,0 3,-2 4,-2 1,-1 1,-1 2,-1 2,-2 6,-5 8,-6 0,-1 1,-1 1,-2 1,-2 1,-3 3,-4l6 -3c0,0 0,0 0,0 5,-2 5,-4 7,-5l1 -1c1,-1 0,0 1,-1l2 -2c2,-1 4,-3 6,-5 0,0 1,0 1,-1l5 -3c0,0 0,0 0,-1l2 -1c0,0 0,0 0,0l0 0c2,-1 3,-2 5,-3 2,-1 1,-2 4,-3 1,-1 1,-1 3,-1 0,-1 0,-1 0,-1 0,0 0,0 0,0 3,-1 3,-2 6,-4 1,-1 1,-1 2,-2 1,0 1,-1 2,-1 2,-1 3,-2 5,-3 0,0 1,0 1,-1 0,0 1,0 1,0l2 -1c1,-1 2,0 3,-2 1,-2 0,-2 2,-3l1 0c0,0 0,0 0,0l1 -1c2,-1 4,0 6,-2 1,0 0,0 1,-1 0,0 0,0 1,0 1,-1 1,-1 1,-2 0,0 0,0 0,0 0,0 0,0 0,0 0,0 0,0 1,0 0,0 0,0 0,0 0,0 0,0 0,0l1 -1c2,-1 2,-1 3,-2l2 -1c1,-1 2,-2 4,-2 1,0 1,0 2,-1 2,2 0,0 0,1 2,-2 1,-3 4,-4 1,0 2,-1 3,-2 0,-1 0,0 0,-1 -1,0 0,0 -1,0z"/>
      <path fill="#2B2A29" d="M724 241c0,1 -1,1 -2,1 -1,1 -1,1 -2,1 -1,0 -2,1 -3,2 0,0 0,0 0,0 -1,1 -1,0 -1,0 -1,1 -2,1 -3,1 -2,1 -2,1 -3,2 0,1 -1,1 -2,1 -1,1 -1,1 -2,1 0,0 -1,2 -2,2 -1,1 -1,2 -2,2 -1,1 -4,3 -5,2 0,0 0,0 -1,0 0,0 0,0 0,0l0 1c-1,0 -1,0 -1,0 -1,1 -1,1 -2,1l-2 2c0,0 -1,1 -1,2 0,0 0,0 -1,1 -1,0 -3,0 -3,0 -1,1 -2,2 -3,2 -1,1 -2,1 -3,2 0,0 -1,1 -2,1 0,0 0,0 -1,1 0,0 0,0 0,0 -1,1 -2,2 -3,3 -1,0 -2,1 -2,2 -1,1 -1,1 -2,1l-1 0c-7,3 -6,5 -9,6 -1,1 -3,2 -4,2l-1 1c0,0 -1,1 -2,2 -1,0 0,0 -1,0l-1 1c0,0 0,0 0,1 -1,0 -1,0 -1,0 -1,1 -1,1 -1,1 -1,0 -1,0 -1,0 0,1 0,1 0,1 -1,0 -1,0 -1,1 -1,1 -2,1 -3,2 -3,3 -1,1 -3,3 -2,1 -3,2 -4,3 0,1 0,1 -1,1l-1 1 -3 2c0,1 -1,1 -2,2 -2,1 -2,1 -5,2 -1,0 -1,0 -1,1l0 0c-1,0 -1,1 -1,1 0,2 -1,3 -2,4 -3,1 -6,4 -8,5 -2,1 -3,2 -4,3 -1,1 -2,2 -3,3 0,0 0,0 0,0 0,0 0,0 -1,0 0,1 -2,2 -2,2 -1,0 0,0 -1,1 0,0 0,0 -1,0 0,0 -1,1 -1,1 -1,3 -2,4 -3,5 -1,1 -2,1 -2,1 -1,1 -2,2 -2,2l-1 1c0,1 0,1 1,0 0,0 1,0 2,-1 1,0 2,0 3,-1 0,-1 0,-1 1,-1 0,0 0,0 0,-1 2,-2 1,-3 5,-5 3,-3 3,-1 5,-5 1,-1 3,-3 4,-3 1,0 1,0 2,-1 2,-1 6,-4 7,-5 1,-1 1,-1 2,-2 1,-3 1,-3 3,-4l6 -3c0,-1 -1,0 0,-1 5,-2 5,-4 7,-5l1 -1c0,0 0,0 0,0l3 -2c2,-2 4,-3 5,-5 1,-1 1,-1 2,-1l4 -4c1,0 1,0 1,0l2 -1c0,0 0,0 0,0l0 -1c2,-1 3,-1 5,-2 1,-1 1,-2 3,-3 2,-1 2,-1 4,-2 0,0 0,0 0,0 0,0 0,0 0,0 3,-2 3,-2 6,-5 1,0 1,-1 2,-1 1,-1 1,-1 2,-2 2,-1 3,-1 5,-2 0,-1 0,-1 1,-1 0,0 0,-1 1,-1l2 -1c1,0 2,0 3,-2 0,-2 0,-1 2,-2l1 -1c0,0 0,0 0,0l1 -1c2,0 4,1 6,-1 1,-1 0,-1 1,-1 0,-1 0,0 1,-1 1,0 1,-1 1,-1 0,0 0,0 0,0 0,0 0,0 0,0 0,-1 0,-1 0,-1 1,0 1,0 1,0 0,0 0,0 0,0l1 -1c1,-1 2,-1 3,-2l2 -1c1,-1 2,-1 4,-1 1,-1 1,0 2,-1 2,1 0,-1 0,0 2,-2 1,-2 4,-3 1,-1 2,-1 3,-3 0,0 0,0 0,0 0,0 0,0 -1,0z"/>
      <path fill="#2B2A29" d="M705 278c-1,1 0,0 -1,1l-3 1c0,0 0,0 -1,1 0,1 0,1 -1,1 0,0 0,1 0,1 -1,0 0,0 -1,0 0,0 0,0 0,0 0,0 0,1 0,1 -1,0 -1,0 -1,0 -1,0 -1,0 -1,0 -2,1 -6,3 -6,3 -1,1 0,1 -1,1 -1,0 -1,0 -2,1 0,0 0,0 -1,1l0 0c-2,2 -2,2 -4,3 -3,1 -3,3 -7,5 -1,0 -3,1 -4,1 0,0 0,0 -1,1 -1,1 -2,2 -4,3 -2,1 -2,2 -4,4 -1,1 -1,2 -3,2l0 0c-1,1 -2,2 -4,3l-3 2c-1,2 -2,2 -4,2l0 0c-3,4 -3,5 -6,6 -3,1 -3,3 -7,5 -1,1 -1,2 -2,3 -2,2 -3,2 -6,5l-2 2c0,0 0,0 0,0 0,0 0,0 -1,0 0,0 0,0 -1,1 -2,1 -1,3 -4,4 -1,0 -2,0 -3,1 0,1 -1,2 -2,3 1,1 0,0 1,0l7 -5c1,-1 1,-1 1,-2l1 0c0,0 0,0 0,0 0,0 0,0 0,0 1,-1 2,-1 3,-2l2 -3c1,0 2,-1 3,-1 0,0 0,0 0,0 0,0 0,0 0,0l1 -1c1,0 2,-2 2,-3 1,-2 0,0 0,-1l1 -1c1,0 1,0 2,-1 1,-1 2,-1 2,-2 1,-1 2,-1 3,-1l2 -2c1,-1 2,-1 3,-2 1,-2 1,-1 2,-2 2,0 2,-1 4,-2 2,-2 0,-1 5,-4l0 0c0,0 0,0 1,0l0 0c0,0 1,0 1,0l3 -3c2,-2 0,-2 4,-4 2,-1 0,0 2,-2 1,0 1,0 1,0 1,-2 1,-2 3,-2 1,-1 2,-1 3,-1 1,0 1,-1 2,-2l2 -1c1,-1 1,-1 1,-1l3 -1c0,0 0,0 0,0 0,0 0,0 0,0 2,-2 2,-4 4,-4l2 -1c0,0 0,0 0,0 2,-1 3,-1 4,-2 1,0 1,0 1,0l3 -2c2,-1 1,-2 5,-4 1,-1 1,0 2,-1 1,1 0,-1 0,0 2,-1 3,-1 4,-3 2,-3 3,-2 3,-3 0,0 1,0 0,0 0,0 -3,1 -4,2 -2,0 -2,0 -3,2 -1,0 -1,0 -1,0z"/>
      <path fill="#2B2A29" d="M683 243c0,1 0,1 0,1 0,0 0,0 -1,0 0,1 0,1 -1,1l-1 1 -2 1c0,1 -1,1 -2,1 0,1 -5,3 -7,4 -2,2 -2,4 -6,4l-2 3 0 0c-1,1 -2,1 -3,2 -1,0 -1,1 -2,1 -2,1 -4,3 -6,3 -1,1 -2,1 -2,1 -1,1 -1,2 -2,2 -1,2 -3,2 -4,3 -3,2 -5,4 -6,5 -1,1 -4,1 -5,2l0 0c0,1 -1,2 -2,3 0,1 -2,0 -2,1 -2,0 -4,3 -5,4 -2,4 -4,2 -6,4 -1,1 -2,2 -2,4 -1,1 -2,2 -3,2 -1,0 -2,1 -3,1 0,0 0,0 -1,1 0,0 0,0 0,0 0,1 0,0 0,1 -1,3 -5,3 -6,4 -1,1 -2,2 -3,3 0,1 -1,1 -3,2 0,1 0,1 -1,2 0,1 0,1 -1,1 0,1 0,1 0,1 -1,0 -1,0 -1,0 0,1 -1,1 -1,1 1,0 3,0 4,-1 0,0 0,1 0,0l0 -1c2,-3 3,-2 5,-5 1,-1 1,-1 2,-2 0,0 1,0 2,-1l1 0c0,0 0,0 1,0 0,-1 1,-2 1,-2 2,-3 1,-2 4,-3l1 -1c0,0 1,0 1,-1 1,0 1,0 1,0l2 -3c0,-1 0,-1 1,-1 1,-2 2,-2 4,-3 1,0 2,-1 2,-3 1,-1 0,1 1,0l1 -1c1,-1 2,-2 3,-2 1,0 1,0 2,-1 1,0 0,0 1,-1 0,-1 0,0 0,0 1,0 1,-1 2,-2 0,0 0,0 1,0 1,0 2,-1 3,-1 1,-2 2,-3 3,-4l4 -2c1,-1 2,-1 2,-2 2,-2 1,-2 4,-3 0,0 0,0 0,0 1,0 1,0 1,0l5 -2c1,-1 1,-1 2,-2 1,-1 2,-1 2,-1 0,0 0,0 0,0 0,0 0,0 1,0 1,-1 -1,1 0,-1 1,0 2,-2 3,-1 0,-3 1,-2 3,-3l1 -1c1,-1 2,-2 3,-3l0 0c0,-1 0,-1 1,-1 2,-1 3,-2 5,-2 1,0 1,0 2,-1 0,0 0,0 0,0 0,0 0,0 0,0l1 -1c1,-1 2,-2 3,-3 0,0 1,0 1,0 1,0 2,-1 4,-1 1,-1 2,-3 3,-4 -1,1 -3,2 -4,3 -1,0 -2,0 -4,0z"/>
      <path fill="#2B2A29" d="M708 298c0,0 -1,1 -2,1 0,1 -4,4 -4,4 -2,1 -4,2 -6,3 -1,1 -5,2 -5,2 -2,3 -1,3 -4,4 -1,1 -2,1 -3,1 -1,1 -2,1 -3,1l-1 1c0,1 -1,2 -1,2 -1,1 -1,1 -1,2 -1,0 -1,0 -2,0 0,1 -1,1 -2,2 -1,0 -1,0 -1,0 -1,1 0,1 -1,1 -1,0 -1,1 -2,1 0,1 -1,1 -1,1 -1,1 -1,1 -1,1 -2,1 -5,4 -7,4 0,1 -3,3 -4,4 -4,3 -3,3 -4,4 0,1 -2,2 -3,2 0,1 0,1 -1,1 0,1 -1,2 -2,2 0,1 -1,1 -2,2 -1,0 -2,0 -2,1 -1,1 -1,2 -2,3 0,1 -2,2 -3,2 0,0 0,1 -1,1 0,1 0,1 -1,2 1,0 0,0 1,0 2,-1 6,-4 6,-5 0,-1 0,0 0,0l1 -2c0,-1 1,0 2,-1 1,0 0,0 1,0 1,-1 2,-1 2,-2 1,-1 1,-2 2,-2 2,-2 1,0 2,-2 4,-5 2,-3 6,-6 2,-1 2,-2 4,-3l3 -2c0,0 1,0 2,-1 1,-1 1,-1 2,-2 1,0 1,0 1,-1l2 -1 4 -2c2,-1 2,-3 4,-4l2 -2c1,0 3,-1 4,-1 4,-1 4,-4 4,-5 1,0 4,-2 6,-2 1,0 3,-2 5,-2 1,-1 0,-1 2,-2 1,-1 1,-1 2,-2 3,-3 3,-1 4,-3 1,-1 2,0 2,-1l1 0c0,0 0,0 0,0 1,-1 1,-1 0,-1l0 0c-1,0 -2,0 -3,0 0,1 -1,2 -2,2z"/>
      <path fill="#2B2A29" d="M598 334c3,0 4,-3 8,-5 1,-1 7,-4 8,-5 3,0 3,-1 6,-2l4 -3c1,0 1,-1 2,-1 2,-2 6,-3 8,-6 2,-3 4,-3 7,-5 2,-1 3,-2 5,-3l3 -2c5,-4 3,-2 7,-6 2,-2 1,-1 4,-2 2,0 2,0 2,-1 1,-2 2,-3 3,-4 3,-3 4,-1 6,-4 4,-3 4,-2 7,-6 3,-2 7,-4 8,-5 2,-2 1,-2 4,-3 3,-1 1,-2 5,-5 0,0 1,-1 2,-1 1,-1 3,-1 4,-2 3,-6 4,-5 9,-8 0,0 1,-1 2,-2 1,-1 2,-3 5,-4 1,-1 1,-1 1,-2 0,-1 2,1 0,-1 -1,1 -1,1 -2,1 -2,0 -3,1 -4,2l-2 1c-1,1 -1,1 -3,2l-1 1c0,0 0,0 0,0 0,0 0,0 0,0 -1,0 -1,0 -1,0 0,0 0,0 0,0 0,0 0,0 0,0 0,1 0,1 -1,2 -1,0 -1,0 -1,0 -1,1 0,1 -1,1 -2,2 -4,1 -6,2l-1 1c0,0 0,0 0,0l-1 0c-2,1 -1,1 -2,3 -1,2 -2,1 -3,2l-2 1c0,0 -1,0 -1,0 0,1 -1,1 -1,1 -2,1 -3,2 -5,3 -1,0 -1,1 -2,1 -1,1 -1,1 -2,2 -3,2 -3,3 -6,4 0,0 0,0 0,0 0,0 0,0 0,1 -2,0 -2,0 -3,1 -3,1 -2,2 -4,3 -2,1 -3,2 -5,3l0 0c0,0 0,0 0,0l-2 1c0,1 0,1 0,1l-5 3c0,1 -1,1 -1,1 -2,2 -4,4 -6,5l-2 2c-1,1 0,0 -1,1l-1 1c-2,1 -2,3 -7,5 0,0 0,0 0,0l-6 3c-2,1 -2,2 -3,4 0,1 -1,1 -1,2 -2,1 -6,4 -8,6 -1,0 -1,0 -2,1 -1,0 -3,2 -4,2 -2,4 -2,3 -5,5 -3,2 -2,3 -4,6 -1,0 -1,0 -1,0 0,1 -1,0 -1,1z"/>
      <path fill="#2B2A29" d="M595 312c2,-1 2,-1 3,-2 1,-1 2,-2 3,-3 1,0 1,0 2,-1 2,-1 4,-1 5,-2 2,-1 1,-2 5,-4 7,-3 5,-1 8,-5 1,-2 2,-1 6,-4 1,0 3,-1 5,-2 0,-1 1,-3 2,-3 1,-1 3,-1 3,-2 1,0 4,-3 6,-5 3,-1 2,0 6,-3 3,-3 2,-3 5,-5 3,-1 4,-2 6,-4 3,-3 5,-3 9,-6 2,-2 4,-5 5,-6 1,0 2,-1 3,-2 2,-1 1,-3 6,-5l2 -2c2,0 2,-2 3,-3 -1,1 -3,1 -4,2 0,0 0,0 0,0 -2,1 -3,1 -4,2l-1 1c0,0 0,0 0,0 0,0 0,0 0,0 -1,1 -1,1 -2,1 -2,1 -3,2 -5,3 0,0 -1,0 -1,0l0 0c-1,1 -2,3 -3,4l-1 1c-1,1 -2,0 -3,2 -1,0 -2,1 -3,2 -1,1 1,-1 0,0 0,0 0,0 0,0 0,0 -1,0 -1,0 0,1 -1,1 -2,1 -1,1 -1,1 -2,2l-5 3c0,0 0,0 0,0 -1,0 0,0 -1,0 -3,1 -1,1 -3,3 -1,1 -1,1 -2,1l-4 3c-1,0 -3,2 -4,3 0,1 -2,1 -3,1 -1,0 0,0 -1,1 -1,0 -1,1 -1,1 -1,1 -1,0 -1,1 -1,1 0,0 -1,1 0,0 0,0 -1,0 -2,0 -3,1 -4,2l-1 1c-1,1 0,0 0,1 -1,1 -2,2 -3,3 -2,1 -3,1 -4,2 0,1 0,1 -1,1l-2 3c0,0 0,0 0,0 -1,1 -1,1 -2,1l-1 1c-3,1 -2,0 -3,3 -1,1 -1,1 -2,2 0,0 0,0 -1,0l-1 1c-1,0 -1,0 -2,0 0,2 -1,2 -2,3 -2,2 -3,1 -4,4l-1 1c0,1 0,0 0,1z"/>
      <path fill="#2B2A29" d="M622 340c2,0 2,0 4,-1 1,0 2,0 3,-1l3 -1c2,-3 2,-3 5,-5 1,0 1,-1 3,-1 5,-2 2,-1 4,-4 1,-1 2,-1 3,-2 1,0 1,-1 2,-1 6,-5 3,-2 7,-4 2,-1 1,0 2,-2 1,-1 2,-2 3,-2 1,-1 3,-3 5,-4 2,-1 4,-2 5,-3 2,-3 2,-2 4,-3 1,-1 1,-1 2,-1 1,-1 4,-3 5,-4 3,-4 2,-3 6,-5l2 -1c1,-1 1,0 2,-2 1,-2 1,-2 2,-3l3 -2c2,-1 2,-2 5,-4 2,-1 2,0 4,-4 0,-1 1,0 0,-1 -1,1 -1,1 -2,1 -4,2 -3,4 -5,4l-3 2c0,0 0,0 -1,0 -1,1 -2,1 -4,3 0,0 0,0 0,0l-2 1c-2,0 -2,1 -4,3 0,0 0,0 0,0 0,0 0,0 0,0l-3 2c0,0 0,0 -1,0l-2 2c-1,1 -1,1 -2,1 -1,0 -2,1 -3,1 -2,1 -2,1 -3,2 0,0 0,0 -1,1 -1,1 1,0 -2,2 -3,2 -2,2 -4,4l-3 2c0,0 0,0 0,0l-1 0c0,0 0,0 0,1l-1 0c-5,2 -3,2 -5,3 -1,1 -2,2 -3,3 -2,0 -1,0 -3,1 -1,1 -2,2 -3,3l-2 1c-1,0 -2,1 -2,1 -1,1 -2,1 -2,2 -1,1 -2,1 -2,1l-1 1c0,1 0,0 0,1 -1,1 -2,3 -3,3l0 1c0,0 -1,0 -1,0 0,0 0,0 0,0 -1,1 -2,1 -3,2l-2 2c-1,1 -1,2 -2,2 -1,0 -1,0 -1,0 0,0 0,0 0,0l0 1c-1,0 -1,0 -2,1z"/>
      <path fill="#2B2A29" d="M644 347c0,0 0,0 1,0 1,-1 3,-1 4,-2 1,0 2,-2 4,-3 4,-2 3,-3 6,-5 1,0 2,0 3,-1 1,-1 5,-4 9,-6 1,0 1,0 2,-1 3,-1 7,-6 8,-7l4 -2c3,-1 1,-1 3,-3 0,-1 6,-3 9,-5 3,-3 1,-2 3,-4 2,-2 3,-2 4,-4 1,-1 1,-2 2,-2 1,0 2,-1 3,-1 0,-1 3,-3 4,-4l-1 -1c0,1 -1,1 -2,2 -1,1 -1,0 -4,3 -1,1 -1,1 -2,1 -2,1 -1,2 -2,2 -2,1 -4,2 -5,3 -1,0 -5,1 -6,2 0,0 0,3 -4,4 -1,0 -3,1 -4,2l-2 1c-2,1 -2,3 -4,4l-4 2 -1 2c-1,0 -1,0 -2,1 0,0 -1,1 -2,1 -1,1 -2,1 -2,1l-2 2c-3,2 -3,2 -5,3 -4,3 -2,1 -5,6 -1,2 -1,1 -3,2 -1,1 -1,1 -2,2 0,1 -1,2 -2,2 -1,0 0,0 -1,0 -1,1 -1,0 -2,2l0 1c-1,1 -1,0 0,0z"/>
      <path fill="#2B2A29" d="M705 278c-1,0 0,0 -1,0l-3 1c0,1 0,1 -1,1 0,1 0,1 -1,2 0,0 0,0 0,0 -1,0 0,0 -1,0 0,1 1,0 0,1 0,0 0,0 0,0 -1,0 -1,0 -1,0 -1,1 -1,1 -1,1 -1,0 -6,3 -6,3 -1,0 0,0 -1,0 -1,1 -1,1 -2,1 0,0 0,1 -1,1l0 0c-2,2 -2,2 -4,3 -3,2 -3,4 -6,5 -1,0 -4,1 -4,1 -1,1 -1,1 -1,1 -1,2 -3,3 -5,3 -1,2 -2,3 -3,4 -2,1 -2,2 -4,3l0 0c-1,0 -2,1 -4,2l-3 3c-1,1 -2,1 -3,2l-1 0c-3,4 -3,4 -6,5 -2,1 -3,3 -7,5 0,1 -1,2 -2,3 -1,3 -3,2 -6,5l-1 2c0,0 -1,0 -1,0 0,0 0,0 0,0 -1,1 -1,1 -2,1 -2,1 -1,3 -3,4 -2,1 -2,0 -3,2 -1,0 -2,2 -2,2 0,1 0,1 0,0l7 -5c1,-1 1,-1 2,-1l0 -1c0,0 0,0 0,0 0,0 0,0 1,0 1,0 1,-1 2,-2l2 -2c1,-1 2,-1 3,-2 0,0 0,0 0,0 0,0 1,0 1,0l0 -1c1,0 2,-2 3,-3 0,-1 0,0 0,-1l1 -1c0,0 1,0 2,-1 0,-1 1,-1 2,-2 0,0 1,-1 2,-1l2 -1c1,-1 2,-2 3,-3 2,-1 1,-1 3,-1 1,-1 2,-2 3,-3 2,-1 0,-1 5,-3l1 0c0,-1 0,-1 0,-1l1 0c0,0 0,0 0,0l3 -2c2,-2 1,-2 4,-4 3,-2 1,-1 2,-2 1,-1 1,-1 1,-1 1,-1 1,-1 3,-2 1,0 2,-1 3,-1 1,0 1,0 2,-1l2 -2c1,0 1,0 1,0l3 -2c0,0 0,0 0,0 0,0 0,0 0,0 2,-2 2,-3 4,-3l2 -1c0,0 0,0 0,0 2,-2 3,-2 4,-3 1,0 1,0 1,0l3 -2c2,0 1,-2 5,-4 1,0 1,0 2,-1 1,1 0,0 0,1 2,-1 3,-1 4,-3 2,-3 3,-3 3,-4 0,0 1,1 0,0 0,1 -3,2 -4,2 -2,1 -1,1 -3,2 -1,1 -1,1 -1,1z"/>
      <path fill="#2B2A29" d="M684 243c-1,0 -1,0 -1,0 0,1 0,1 -1,1 0,0 0,0 -1,0l-1 1 -1 2c-1,1 -2,1 -3,1 0,0 -5,2 -7,4 -2,2 -2,3 -6,4l-2 2 0 0c-1,1 -2,2 -3,2 -1,1 -1,1 -2,2 -1,1 -4,3 -6,3 -1,0 -1,0 -2,1 -1,0 -1,1 -2,2 -1,1 -2,2 -3,2 -4,2 -5,5 -7,6 -1,0 -3,1 -4,1l-1 1c0,0 -1,2 -1,2 -1,1 -2,1 -3,1 -2,1 -3,4 -4,4 -3,4 -5,3 -7,5 0,1 -1,2 -2,3 -1,1 -1,2 -3,2 -1,1 -2,1 -3,1 0,1 0,1 0,1 0,0 0,0 -1,1 0,0 0,0 0,0 -1,3 -5,4 -6,5 -1,0 -1,2 -2,3 -1,0 -2,1 -3,2 -1,0 -1,1 -1,1 -1,1 -1,1 -1,2 -1,0 0,0 -1,0 0,1 0,1 -1,1 0,0 0,0 -1,1 1,0 4,-1 4,-1 0,-1 0,0 0,-1l1 -1c1,-3 2,-2 4,-4 1,-1 2,-1 2,-3 1,0 1,0 2,0l1 -1c1,0 1,0 1,0 1,-1 1,-1 2,-2 1,-3 0,-2 3,-3l1 -1c1,0 1,0 2,-1 0,0 0,0 0,0l2 -3c1,0 1,0 1,-1 1,-1 2,-1 4,-2 1,-1 2,-2 3,-3 0,-1 -1,0 0,-1l1 -1c1,-1 2,-2 4,-2 1,0 1,0 1,0 1,-1 0,0 1,-1 0,-1 0,0 1,-1 0,0 0,-1 1,-1 1,-1 0,-1 1,-1 1,0 3,0 3,-1 1,-1 3,-3 4,-3l4 -3c1,0 1,0 2,-1 2,-2 0,-2 3,-3 1,0 0,0 1,0 0,0 0,0 0,0l5 -3c1,-1 1,-1 2,-2 1,0 2,0 2,-1 0,0 1,0 1,0 0,0 0,0 0,0 1,-1 -1,1 0,0 1,-1 2,-2 3,-2 1,-2 2,-1 3,-2l1 -1c1,-1 2,-3 3,-4l0 0c0,0 1,0 1,0 2,-1 3,-2 5,-3 1,0 1,0 2,-1 0,0 0,0 0,0 0,0 0,0 0,0l1 -1c1,-1 2,-1 4,-2 0,0 0,0 0,0 1,-1 3,-1 4,-2 1,-1 3,-2 3,-3 -1,0 -2,2 -4,2 -1,1 -2,1 -3,1z"/>
      <path fill="#2B2A29" d="M708 297c0,1 -1,1 -2,2 0,0 -4,3 -4,3 -2,1 -4,2 -6,3 -1,1 -5,2 -5,3 -2,2 -1,3 -4,4 -1,0 -2,1 -3,1 -1,0 -2,1 -2,1l-2 0c0,1 -1,2 -1,2 -1,1 -1,1 -1,2 -1,1 -1,1 -2,1 0,0 -1,1 -2,1 0,0 -1,0 -1,1 -1,0 0,0 -1,0 0,1 -1,1 -1,2 -1,0 -2,1 -2,1 -1,0 0,0 -1,1 -2,1 -5,3 -7,4 0,0 -3,2 -4,3 -4,3 -3,4 -4,4 0,2 -2,2 -2,3 -1,0 -1,0 -2,1 0,0 -1,1 -1,2 -1,1 -2,1 -3,1 -1,0 -2,0 -2,1 -1,1 -1,3 -1,3 -1,1 -3,2 -4,2 0,0 0,1 -1,1 0,1 0,2 0,2 0,1 0,0 0,0 2,-1 6,-4 7,-5 -1,0 -1,1 0,0l0 -1c1,-2 1,-1 2,-2 1,0 0,0 1,0 1,0 2,-1 2,-2 1,-1 1,-1 2,-2 2,-1 2,0 3,-2 3,-5 1,-3 5,-6 2,-1 2,-1 5,-3l2 -2c0,0 1,0 2,-1 1,0 2,-1 2,-1 1,-1 1,-1 2,-1l1 -2 4 -2c2,-1 2,-3 4,-4l2 -1c1,-1 3,-2 4,-2 4,-1 4,-4 4,-4 1,-1 5,-2 6,-2 1,-1 3,-2 5,-3 1,0 0,-1 2,-2 1,0 1,0 2,-1 3,-3 3,-2 4,-3 1,-1 2,-1 2,-2l1 1c0,0 0,-1 0,-1 1,-1 1,-1 0,-1l0 0c-1,0 -2,0 -3,1 0,0 -1,1 -2,1z"/>
     </g>
    </g>
   </g>
   <polygon fill="#EF7F1A" points="109,201 482,201 937,387 446,387 109,232 "/>
   <polygon fill="#2B2A29" fill-rule="nonzero" points="163,387 163,232 109,232 109,201 254,201 254,232 199,232 199,387 "/>
   <g clip-path="url(#id1)">
    <g>
     <g>
      <path id="1" fill="#2B2A29" d="M2294 240c-1,1 -1,2 -3,2 0,0 0,0 -1,1 -1,0 -2,1 -3,1 0,1 -1,1 -1,1 0,0 0,0 0,0 -1,1 -3,1 -4,1 -1,0 -1,1 -2,1 -1,1 -2,1 -2,2 -1,0 -1,1 -2,1 0,0 -2,1 -2,2 -1,1 -1,1 -2,2 -1,1 -4,2 -6,2 0,0 0,0 0,0 0,0 0,0 0,0l-1 0c0,0 0,0 -1,1 0,0 -1,0 -1,0l-2 2c0,1 -1,1 -1,2 -1,1 0,1 -1,1 -2,0 -3,1 -4,1 -1,1 -1,1 -2,2 -1,0 -2,1 -3,1 0,1 -2,2 -2,2 0,0 0,0 -1,0 0,1 0,0 0,1 -1,0 -2,1 -3,2 -1,1 -2,2 -3,2 0,1 0,1 -1,1l-1 1c-7,3 -6,5 -9,6 -1,0 -4,2 -4,2l-1 0c-1,1 -2,2 -2,2 -1,1 0,0 -1,1l-1 0c0,1 0,0 -1,1 0,0 0,0 0,0 -1,1 -1,1 -1,2 -1,0 -1,0 -1,0 0,0 0,0 0,0 -1,1 -1,1 -1,1 -1,1 -2,2 -3,3 -3,3 -1,1 -3,2 -2,2 -3,3 -4,3 0,1 0,2 -1,2l-1 1 -3 1c-1,1 -1,2 -2,2 -2,1 -2,1 -5,2 -1,1 -1,1 -1,1l0 1c0,0 -1,0 -1,0 0,2 -1,3 -2,4 -3,2 -6,4 -8,5 -2,1 -3,2 -4,3 -1,1 -2,3 -3,3 0,0 0,0 0,0 0,1 0,1 -1,1 0,0 -1,1 -2,1 0,1 0,0 -1,1 0,0 0,0 0,0 -1,1 -2,2 -2,2 0,2 -2,3 -3,4 -1,1 -1,1 -2,2 -1,0 -2,1 -2,2l-1 1c0,1 0,0 1,-1 0,0 1,0 2,0 1,-1 2,-1 3,-2 0,-1 0,0 1,-1 0,0 0,0 0,0 3,-3 1,-4 5,-6 3,-2 3,-1 5,-5 1,0 3,-2 4,-2 1,-1 1,-1 2,-1 2,-2 6,-5 7,-6 1,-1 1,-1 2,-2 1,-2 1,-3 3,-4l6 -3c0,0 -1,0 0,0 5,-2 5,-4 7,-5l1 -1c0,-1 0,0 0,-1l3 -2c2,-1 4,-3 5,-5 1,0 1,0 2,-1l4 -3c0,0 1,0 1,-1l2 -1c0,0 0,0 0,0l0 0c2,-1 3,-2 5,-3 1,-1 1,-2 3,-3 2,-1 2,-1 3,-1 0,-1 0,-1 1,-1 0,0 0,0 0,0 3,-1 3,-2 6,-4 1,-1 0,-1 2,-2 0,0 1,-1 1,-1 3,-1 4,-2 6,-3 0,0 0,0 1,-1 0,0 0,0 1,0l2 -1c1,-1 2,0 2,-2 1,-2 1,-2 3,-3l1 0c0,0 0,0 0,0l1 -1c2,-1 4,0 6,-2 0,0 0,0 1,-1 0,0 0,0 1,0 0,-1 0,-1 1,-2 0,0 0,0 0,0 0,0 0,0 0,0 0,0 0,0 0,0 0,0 1,0 1,0 0,0 0,0 0,0l1 -1c1,-1 2,-1 3,-2l2 -1c1,-1 1,-2 3,-2 1,0 2,0 3,-1 1,2 -1,0 0,1 2,-2 1,-3 3,-4 2,0 3,-1 3,-2 1,-1 1,0 0,-1 0,0 1,0 0,0z"/>
      <path fill="#2B2A29" d="M2294 241c-1,1 -1,1 -3,1 0,1 0,1 -1,1 -1,0 -2,1 -3,2 0,0 -1,0 -1,0 0,1 0,0 0,0 -1,1 -3,1 -4,1 -1,1 -1,1 -2,2 -1,1 -2,1 -2,1 -1,1 -1,1 -2,1 0,0 -2,2 -2,2 -1,1 -1,2 -2,2 -1,1 -4,3 -6,2 0,0 0,0 0,0 0,0 0,0 0,0l-1 1c0,0 0,0 -1,0 0,1 -1,1 -1,1l-2 2c0,0 -1,1 -1,2 -1,0 0,0 -1,1 -2,0 -3,0 -4,0 -1,1 -1,2 -2,2 -1,1 -2,1 -3,2 0,0 -2,1 -2,1 -1,0 0,0 -1,1 0,0 0,0 0,0 -1,1 -2,2 -3,3 -1,0 -2,1 -3,2 0,1 0,1 -1,1l-1 0c-7,3 -6,5 -10,6 -1,1 -3,2 -3,2l-1 1c-1,0 -2,1 -2,2 -1,0 -1,0 -1,0l-1 1c0,0 0,0 -1,1 0,0 0,0 -1,0 0,1 0,1 -1,1 0,0 0,0 0,0 0,1 0,1 -1,1 0,0 0,0 -1,1 0,1 -1,1 -2,2 -3,3 -1,1 -4,3 -2,1 -2,2 -3,3 0,1 -1,1 -1,1l-1 1 -3 2c-1,1 -1,1 -2,2 -2,1 -2,1 -5,2 -1,0 -1,0 -1,1l-1 0c0,0 0,1 0,1 0,2 -1,3 -3,4 -2,1 -5,4 -8,5 -1,1 -2,2 -3,3 -1,1 -2,2 -3,3 0,0 0,0 0,0 -1,0 -1,0 -1,0 0,1 -2,2 -3,2 0,0 0,0 0,1 0,0 -1,0 -1,0 0,0 -1,1 -1,1 -1,3 -2,4 -4,5 -1,1 -1,1 -2,1 0,1 -1,2 -2,2l-1 1c0,1 0,1 2,0 0,0 1,0 1,-1 2,0 3,0 4,-1 -1,-1 0,-1 0,-1 1,0 1,0 1,-1 2,-2 1,-3 5,-5 3,-3 2,-1 5,-5 0,-1 3,-3 3,-3 2,0 2,0 3,-1 2,-1 5,-4 7,-5 1,-1 1,-1 2,-2 1,-3 0,-3 3,-4l5 -3c1,-1 0,0 1,-1 5,-2 5,-4 6,-5l2 -1c0,0 0,0 0,0l3 -2c2,-2 4,-3 5,-5 1,-1 1,-1 2,-1l4 -4c0,0 0,0 1,0l1 -1c0,0 1,0 1,0l0 -1c1,-1 3,-1 5,-2 1,-1 1,-2 3,-3 2,-1 2,-1 3,-2 0,0 0,0 0,0 0,0 1,0 1,0 3,-2 3,-2 6,-5 1,0 0,-1 2,-1 0,-1 1,-1 1,-2 2,-1 4,-1 5,-2 1,-1 1,-1 2,-1 0,0 0,-1 0,-1l2 -1c2,0 3,0 3,-2 1,-2 1,-1 3,-2l0 -1c1,0 1,0 1,0l1 -1c2,0 4,1 6,-1 0,-1 0,-1 1,-1 0,-1 0,0 1,-1 0,0 0,-1 1,-1 0,0 0,0 0,0 0,0 0,0 0,0 0,-1 0,-1 0,-1 0,0 1,0 1,0 0,0 0,0 0,0l1 -1c1,-1 2,-1 3,-2l2 -1c1,-1 1,-1 3,-1 1,-1 2,0 3,-1 1,1 -1,-1 0,0 2,-2 1,-2 3,-3 2,-1 3,-1 3,-3 1,0 1,0 0,0 0,0 1,0 0,0z"/>
      <path fill="#2B2A29" d="M2275 278c-1,1 -1,0 -1,1l-3 1c-1,0 -1,0 -1,1 0,1 0,1 -1,1 0,0 0,1 0,1 -1,0 -1,0 -1,0 0,0 0,0 0,0 0,0 -1,1 -1,1 0,0 0,0 -1,0 0,0 0,0 0,0 -2,1 -6,3 -7,3 0,1 0,1 0,1 -1,0 -1,0 -2,1 -1,0 -1,0 -1,1l0 0c-2,2 -2,2 -4,3 -3,1 -4,3 -7,5 -1,0 -3,1 -4,1 0,0 0,0 -1,1 -1,1 -3,2 -4,3 -2,1 -2,2 -4,4 -1,1 -2,2 -3,2l0 0c-1,1 -3,2 -4,3l-3 2c-1,2 -2,2 -4,2l-1 0c-2,4 -3,5 -6,6 -2,1 -3,3 -6,5 -1,1 -2,2 -2,3 -2,2 -4,2 -6,5l-2 2c0,0 0,0 0,0 -1,0 0,0 -1,0 0,0 -1,0 -1,1 -3,1 -2,3 -4,4 -2,0 -2,0 -3,1 0,1 -1,2 -2,3 0,1 0,0 1,0l7 -5c0,-1 0,-1 1,-2l1 0c0,0 0,0 0,0 0,0 0,0 0,0 1,-1 2,-1 3,-2l2 -3c1,0 2,-1 3,-1 0,0 0,0 0,0 0,0 0,0 0,0l1 -1c0,0 2,-2 2,-3 1,-2 0,0 0,-1l1 -1c1,0 1,0 2,-1 1,-1 2,-1 2,-2 1,-1 1,-1 2,-1l3 -2c1,-1 2,-1 3,-2 1,-2 1,-1 2,-2 2,0 2,-1 3,-2 3,-2 1,-1 6,-4l0 0c0,0 0,0 0,0l1 0c0,0 0,0 0,0l3 -3c2,-2 1,-2 4,-4 3,-1 1,0 3,-2 0,0 0,0 0,0 2,-2 1,-2 4,-2 1,-1 1,-1 2,-1 2,0 2,-1 3,-2l2 -1c0,-1 1,-1 1,-1l2 -1c0,0 0,0 1,0 0,0 0,0 0,0 2,-2 2,-4 3,-4l3 -1c0,0 0,0 0,0 2,-1 2,-1 4,-2 0,0 0,0 1,0l3 -2c2,-1 0,-2 4,-4 1,-1 2,0 3,-1 1,1 0,-1 0,0 2,-1 2,-1 4,-3 2,-3 2,-2 3,-3 0,0 0,0 0,0 -1,0 -3,1 -4,2 -2,0 -2,0 -3,2 -1,0 -1,0 -1,0z"/>
      <path fill="#2B2A29" d="M2253 243c0,1 0,1 0,1 -1,0 -1,0 -1,0 -1,1 0,1 -1,1l-2 1 -1 1c0,1 -1,1 -2,1 -1,1 -5,3 -7,4 -2,2 -3,4 -6,4l-2 3 -1 0c0,1 -1,1 -2,2 -1,0 -2,1 -3,1 -1,1 -3,3 -5,3 -1,1 -2,1 -3,1 -1,1 -1,2 -2,2 0,2 -2,2 -3,3 -3,2 -5,4 -7,5 -1,1 -3,1 -4,2l0 0c0,1 -1,2 -2,3 -1,1 -2,0 -3,1 -1,0 -3,3 -4,4 -2,4 -5,2 -6,4 -1,1 -2,2 -3,4 -1,1 -1,2 -3,2 0,0 -1,1 -2,1 0,0 0,0 -1,1 0,0 0,0 0,0 -1,1 0,0 -1,1 -1,3 -4,3 -5,4 -1,1 -2,2 -3,3 -1,1 -2,1 -3,2 0,1 0,1 -1,2 0,1 0,1 -1,1 0,1 0,1 -1,1 0,0 0,0 0,0 -1,1 -1,1 -1,1 1,0 3,0 4,-1 -1,0 0,1 -1,0l1 -1c2,-3 3,-2 5,-5 1,-1 1,-1 1,-2 1,0 2,0 2,-1l2 0c0,0 0,0 0,0 1,-1 1,-2 2,-2 2,-3 1,-2 3,-3l1 -1c1,0 2,0 2,-1 0,0 0,0 0,0l3 -3c0,-1 0,-1 0,-1 2,-2 3,-2 4,-3 2,0 2,-1 3,-3 1,-1 -1,1 0,0l2 -1c1,-1 1,-2 3,-2 1,0 1,0 2,-1 1,0 0,0 0,-1 1,-1 0,0 1,0 1,0 1,-1 1,-2 1,0 1,0 2,0 1,0 2,-1 3,-1 1,-2 2,-3 3,-4l4 -2c1,-1 1,-1 2,-2 2,-2 1,-2 4,-3 0,0 0,0 0,0 0,0 0,0 0,0l5 -2c1,-1 2,-1 3,-2 1,-1 2,-1 2,-1 0,0 0,0 0,0 0,0 0,0 0,0 2,-1 0,1 1,-1 1,0 1,-2 3,-1 0,-3 1,-2 3,-3l1 -1c1,-1 1,-2 2,-3l1 0c0,-1 0,-1 1,-1 1,-1 3,-2 5,-2 1,0 1,0 2,-1 0,0 0,0 0,0 0,0 0,0 0,0l0 -1c2,-1 3,-2 4,-3 0,0 0,0 0,0 2,0 3,-1 5,-1 0,-1 2,-3 2,-4 -1,1 -2,2 -3,3 -1,0 -3,0 -4,0z"/>
      <path fill="#2B2A29" d="M2278 298c-1,0 -1,1 -2,1 -1,1 -4,4 -5,4 -1,1 -3,2 -5,3 -2,1 -5,2 -5,2 -3,3 -1,3 -5,4 0,1 -2,1 -3,1 0,1 -1,1 -2,1l-1 1c0,1 -1,2 -2,2 0,1 0,1 -1,2 0,0 0,0 -1,0 -1,1 -1,1 -2,2 -1,0 -1,0 -1,0 -1,1 -1,1 -1,1 -1,0 -1,1 -2,1 0,1 -1,1 -2,1 0,1 0,1 0,1 -2,1 -5,4 -7,4 0,1 -4,3 -4,4 -4,3 -3,3 -4,4 -1,1 -2,2 -3,2 0,1 0,1 -1,1 0,1 -1,2 -2,2 -1,1 -1,1 -2,2 -1,0 -2,0 -3,1 0,1 0,2 -1,3 0,1 -2,2 -3,2 0,0 -1,1 -1,1 0,1 -1,1 -1,2 0,0 0,0 1,0 2,-1 5,-4 6,-5 0,-1 0,0 0,0l0 -2c1,-1 1,0 3,-1 1,0 0,0 1,0 1,-1 1,-1 2,-2 1,-1 1,-2 2,-2 1,-2 1,0 2,-2 3,-5 2,-3 6,-6 1,-1 2,-2 4,-3l2 -2c1,0 2,0 3,-1 1,-1 1,-1 2,-2 1,0 0,0 1,-1l2 -1 4 -2c1,-1 2,-3 3,-4l3 -2c1,0 2,-1 4,-1 4,-1 3,-4 4,-5 0,0 4,-2 5,-2 2,0 4,-2 5,-2 2,-1 1,-1 2,-2 2,-1 1,-1 3,-2 3,-3 3,-1 4,-3 1,-1 1,0 2,-1l0 0c0,0 1,0 1,0 1,-1 1,-1 0,-1l0 0c-1,0 -2,0 -3,0 -1,1 -1,2 -2,2z"/>
      <path fill="#2B2A29" d="M2168 334c3,0 4,-3 7,-5 2,-1 8,-4 9,-5 3,0 2,-1 6,-2l4 -3c1,0 1,-1 2,-1 2,-2 6,-3 8,-6 2,-3 3,-3 7,-5 2,-1 3,-2 5,-3l2 -2c6,-4 3,-2 8,-6 2,-2 1,-1 4,-2 1,0 1,0 2,-1 1,-2 2,-3 3,-4 3,-3 4,-1 6,-4 4,-3 3,-2 7,-6 2,-2 7,-4 8,-5 1,-2 1,-2 3,-3 4,-1 2,-2 6,-5 0,0 1,-1 1,-1 2,-1 4,-1 4,-2 4,-6 4,-5 9,-8 1,0 2,-1 2,-2 2,-1 3,-3 5,-4 2,-1 2,-1 2,-2 -1,-1 1,1 0,-1 -1,1 -2,1 -3,1 -2,0 -2,1 -3,2l-2 1c-1,1 -2,1 -3,2l-1 1c0,0 0,0 0,0 0,0 -1,0 -1,0 0,0 0,0 0,0 0,0 0,0 0,0 0,0 0,0 0,0 -1,1 -1,1 -1,2 -1,0 -1,0 -1,0 -1,1 -1,1 -1,1 -2,2 -4,1 -6,2l-1 1c0,0 0,0 0,0l-1 0c-2,1 -2,1 -3,3 0,2 -1,1 -2,2l-2 1c-1,0 -1,0 -1,0 -1,1 -1,1 -1,1 -2,1 -3,2 -6,3 0,0 -1,1 -1,1 -2,1 -1,1 -2,2 -3,2 -3,3 -6,4 0,0 0,0 0,0 -1,0 -1,0 -1,1 -1,0 -1,0 -3,1 -2,1 -2,2 -3,3 -2,1 -3,2 -5,3l0 0c0,0 0,0 0,0l-2 1c0,1 -1,1 -1,1l-4 3c-1,1 -1,1 -2,1 -1,2 -3,4 -5,5l-3 2c0,1 0,0 0,1l-1 1c-2,1 -2,3 -7,5 -1,0 0,0 0,0l-6 3c-2,1 -2,2 -3,4 -1,1 -1,1 -2,2 -1,1 -5,4 -7,6 -1,0 -1,0 -2,1 -1,0 -3,2 -4,2 -2,4 -2,3 -5,5 -4,2 -2,3 -5,6 0,0 0,0 0,0 -1,1 -1,0 -1,1z"/>
      <path fill="#2B2A29" d="M2165 312c1,-1 2,-1 3,-2 1,-1 2,-2 3,-3 0,0 1,0 1,-1 3,-1 5,-1 5,-2 3,-1 1,-2 6,-4 6,-3 5,-1 7,-5 1,-2 3,-1 7,-4 1,0 3,-1 4,-2 1,-1 2,-3 3,-3 1,-1 2,-1 3,-2 1,0 4,-3 6,-5 3,-1 2,0 6,-3 2,-3 2,-3 5,-5 3,-1 4,-2 6,-4 3,-3 5,-3 9,-6 2,-2 4,-5 5,-6 0,0 2,-1 3,-2 2,-1 0,-3 6,-5l2 -2c1,0 2,-2 3,-3 -2,1 -3,1 -5,2 0,0 0,0 0,0 -1,1 -2,1 -4,2l0 1c0,0 0,0 0,0 0,0 0,0 0,0 -1,1 -1,1 -2,1 -2,1 -3,2 -5,3 -1,0 -1,0 -1,0l-1 0c0,1 -1,3 -2,4l-1 1c-2,1 -3,0 -3,2 -1,0 -2,1 -3,2 -1,1 1,-1 -1,0 0,0 0,0 0,0 0,0 0,0 0,0 0,1 -1,1 -2,1 -1,1 -2,1 -2,2l-5 3c0,0 -1,0 -1,0 0,0 0,0 0,0 -3,1 -2,1 -4,3 -1,1 -1,1 -2,1l-4 3c-1,0 -2,2 -3,3 -1,1 -2,1 -3,1 -1,0 -1,0 -1,1 -1,0 -1,1 -2,1 0,1 0,0 -1,1 0,1 1,0 0,1 -1,0 -1,0 -2,0 -1,0 -2,1 -3,2l-1 1c-1,1 0,0 -1,1 0,1 -1,2 -2,3 -2,1 -3,1 -4,2 -1,1 -1,1 -1,1l-2 3c0,0 0,0 0,0 -1,1 -2,1 -2,1l-1 1c-3,1 -2,0 -4,3 0,1 -1,1 -1,2 0,0 -1,0 -1,0l-1 1c-1,0 -2,0 -2,0 -1,2 -1,2 -2,3 -2,2 -3,1 -4,4l-1 1c0,1 0,0 0,1z"/>
      <path fill="#2B2A29" d="M2192 340c2,0 1,0 3,-1 2,0 2,0 4,-1l2 -1c3,-3 2,-3 5,-5 1,0 2,-1 3,-1 5,-2 3,-1 5,-4 1,-1 2,-1 3,-2 1,0 1,-1 1,-1 7,-5 3,-2 7,-4 2,-1 2,0 3,-2 1,-1 2,-2 2,-2 2,-1 4,-3 6,-4 1,-1 4,-2 5,-3 2,-3 1,-2 4,-3 1,-1 1,-1 1,-1 2,-1 4,-3 6,-4 3,-4 2,-3 5,-5l2 -1c2,-1 2,0 3,-2 0,-2 0,-2 2,-3l2 -2c2,-1 3,-2 5,-4 3,-1 3,0 5,-4 0,-1 1,0 0,-1 -1,1 -2,1 -3,1 -4,2 -2,4 -4,4l-3 2c-1,0 0,0 -1,0 -2,1 -2,1 -4,3 0,0 0,0 0,0l-3 1c-1,0 -1,1 -3,3 0,0 0,0 0,0 0,0 0,0 -1,0l-2 2c0,0 -1,0 -1,0l-2 2c-1,1 -1,1 -2,1 -1,0 -2,1 -3,1 -2,1 -2,1 -3,2 -1,0 -1,0 -1,1 -2,1 0,0 -2,2 -4,2 -3,2 -4,4l-3 2c-1,0 -1,0 -1,0l-1 0c0,0 0,0 0,1l0 0c-5,2 -3,2 -5,3 -2,1 -2,2 -4,3 -1,0 -1,0 -2,1 -1,1 -2,2 -3,3l-2 1c-1,0 -2,1 -3,1 0,1 -1,1 -2,2 -1,1 -1,1 -2,1l-1 1c0,1 1,0 0,1 0,1 -1,3 -2,3l-1 1c0,0 0,0 0,0 0,0 0,0 0,0 -1,1 -2,1 -3,2l-2 2c-1,1 -2,2 -3,2 0,0 0,0 0,0 0,0 0,0 0,0l-1 1c0,0 0,0 -1,1z"/>
      <path fill="#2B2A29" d="M2213 347c1,0 1,0 2,0 1,-1 2,-1 4,-2 1,0 2,-2 4,-3 4,-2 3,-3 6,-5 1,0 2,0 3,-1 1,-1 5,-4 8,-6 1,0 2,0 3,-1 3,-1 7,-6 8,-7l4 -2c3,-1 1,-1 2,-3 1,-1 7,-3 9,-5 3,-3 2,-2 4,-4 1,-2 3,-2 4,-4 1,-1 1,-2 2,-2 1,0 2,-1 3,-1 0,-1 3,-3 3,-4l0 -1c-1,1 -1,1 -2,2 -1,1 -1,0 -4,3 -2,1 -1,1 -2,1 -2,1 -1,2 -3,2 -1,1 -3,2 -4,3 -2,0 -6,1 -6,2 -1,0 0,3 -4,4 -1,0 -3,1 -4,2l-2 1c-2,1 -3,3 -4,4l-4 2 -2 2c0,0 0,0 -1,1 -1,0 -1,1 -2,1 -1,1 -2,1 -2,1l-3 2c-2,2 -2,2 -4,3 -4,3 -3,1 -6,6 -1,2 -1,1 -2,2 -1,1 -1,1 -2,2 0,1 -1,2 -2,2 -1,0 0,0 -1,0 -1,1 -2,0 -2,2l-1 1c0,1 0,0 0,0z"/>
      <path fill="#2B2A29" d="M2275 278c-1,0 0,0 -1,0l-3 1c0,1 -1,1 -1,1 0,1 0,1 -1,2 0,0 0,0 0,0 -1,0 -1,0 -1,0 0,1 0,0 0,1 0,0 -1,0 -1,0 0,0 0,0 -1,0 0,1 0,1 0,1 -2,0 -6,3 -7,3 0,0 0,0 0,0 -1,1 -1,1 -2,1 -1,0 -1,1 -1,1l0 0c-2,2 -2,2 -4,3 -3,2 -3,4 -7,5 -1,0 -3,1 -4,1 0,1 0,1 -1,1 -1,2 -2,3 -4,3 -2,2 -2,3 -4,4 -1,1 -1,2 -3,3l0 0c-1,0 -3,1 -4,2l-3 3c-1,1 -2,1 -4,2l0 0c-3,4 -3,4 -6,5 -3,1 -3,3 -7,5 -1,1 -1,2 -2,3 -2,3 -4,2 -6,5l-2 2c0,0 0,0 0,0 0,0 0,0 -1,0 0,1 0,1 -1,1 -2,1 -1,3 -4,4 -1,1 -2,0 -2,2 -1,0 -2,2 -3,2 1,1 0,1 1,0l7 -5c1,-1 1,-1 1,-1l1 -1c0,0 0,0 0,0 0,0 0,0 0,0 1,0 2,-1 3,-2l2 -2c1,-1 2,-1 3,-2 0,0 0,0 0,0 0,0 0,0 0,0l1 -1c1,0 2,-2 2,-3 1,-1 0,0 0,-1l1 -1c1,0 1,0 2,-1 1,-1 2,-1 2,-2 1,0 2,-1 3,-1l2 -1c1,-1 2,-2 3,-3 1,-1 1,-1 2,-1 2,-1 2,-2 4,-3 2,-1 0,-1 5,-3l0 0c0,-1 0,-1 0,-1l1 0c0,0 0,0 1,0l3 -2c1,-2 0,-2 4,-4 2,-2 0,-1 2,-2 0,-1 0,-1 1,-1 1,-1 1,-1 3,-2 1,0 2,-1 3,-1 1,0 1,0 2,-1l2 -2c0,0 1,0 1,0l2 -2c1,0 1,0 1,0 0,0 0,0 0,0 2,-2 2,-3 3,-3l3 -1c0,0 0,0 0,0 2,-2 2,-2 4,-3 1,0 0,0 1,0l3 -2c2,0 0,-2 4,-4 1,0 2,0 3,-1 1,1 0,0 0,1 2,-1 2,-1 4,-3 2,-3 2,-3 3,-4 0,0 0,1 0,0 -1,1 -3,2 -4,2 -2,1 -2,1 -3,2 -1,1 -1,1 -1,1z"/>
      <path fill="#2B2A29" d="M2253 243c0,0 0,0 0,0 -1,1 -1,1 -1,1 -1,0 0,0 -1,0l-1 1 -2 2c0,1 -1,1 -2,1 -1,0 -5,2 -7,4 -2,2 -2,3 -6,4l-2 2 -1 0c0,1 -1,2 -2,2 -1,1 -2,1 -2,2 -2,1 -4,3 -6,3 -1,0 -2,0 -3,1 0,0 0,1 -1,2 -1,1 -3,2 -4,2 -3,2 -5,5 -7,6 0,0 -3,1 -4,1l0 1c0,0 -1,2 -2,2 0,1 -2,1 -2,1 -2,1 -4,4 -5,4 -2,4 -4,3 -6,5 -1,1 -1,2 -2,3 -1,1 -2,2 -3,2 -1,1 -2,1 -3,1 0,1 0,1 0,1 -1,0 -1,0 -1,1 0,0 0,0 0,0 -1,3 -5,4 -6,5 -1,0 -2,2 -2,3 -1,0 -2,1 -4,2 0,0 0,1 0,1 -1,1 -1,1 -2,2 0,0 0,0 0,0 -1,1 0,1 -1,1 0,0 0,0 -1,1 1,0 3,-1 4,-1 0,-1 0,0 0,-1l1 -1c1,-3 2,-2 4,-4 1,-1 1,-1 2,-3 0,0 1,0 2,0l1 -1c0,0 1,0 1,0 0,-1 1,-1 1,-2 2,-3 1,-2 4,-3l1 -1c0,0 1,0 2,-1 0,0 0,0 0,0l2 -3c0,0 0,0 1,-1 1,-1 2,-1 4,-2 1,-1 2,-2 2,-3 1,-1 0,0 1,-1l1 -1c1,-1 2,-2 3,-2 1,0 1,0 2,0 1,-1 0,0 0,-1 1,-1 1,0 1,-1 1,0 1,-1 2,-1 0,-1 0,-1 1,-1 1,0 2,0 3,-1 1,-1 2,-3 3,-3l4 -3c1,0 1,0 2,-1 2,-2 1,-2 4,-3 0,0 0,0 0,0 0,0 1,0 1,0l5 -3c0,-1 1,-1 2,-2 1,0 2,0 2,-1 0,0 0,0 0,0 0,0 0,0 0,0 2,-1 0,1 1,0 1,-1 2,-2 3,-2 0,-2 1,-1 3,-2l1 -1c1,-1 2,-3 2,-4l1 0c0,0 0,0 1,0 2,-1 3,-2 5,-3 1,0 1,0 2,-1 0,0 0,0 0,0 0,0 0,0 0,0l0 -1c2,-1 3,-1 4,-2 0,0 0,0 0,0 2,-1 3,-1 5,-2 0,-1 2,-2 3,-3 -2,0 -3,2 -4,2 -1,1 -3,1 -4,1z"/>
      <path fill="#2B2A29" d="M2278 297c-1,1 -1,1 -2,2 -1,0 -4,3 -5,3 -1,1 -3,2 -5,3 -1,1 -5,2 -5,3 -3,2 -1,3 -5,4 0,0 -1,1 -2,1 -1,0 -2,1 -3,1l-1 0c0,1 -1,2 -1,2 -1,1 -1,1 -2,2 0,1 0,1 -1,1 -1,0 -1,1 -2,1 -1,0 -1,0 -1,1 -1,0 0,0 -1,0 -1,1 -1,1 -2,2 0,0 -1,1 -1,1 -1,0 -1,0 -1,1 -2,1 -5,3 -7,4 0,0 -3,2 -4,3 -4,3 -3,4 -4,4 -1,2 -2,2 -3,3 0,0 0,0 -1,1 0,0 -1,1 -2,2 0,1 -1,1 -2,1 -1,0 -2,0 -2,1 -1,1 -1,3 -2,3 0,1 -2,2 -3,2 0,0 0,1 -1,1 0,1 0,2 -1,2 1,1 0,0 1,0 2,-1 5,-4 6,-5 0,0 0,1 0,0l1 -1c0,-2 1,-1 2,-2 1,0 0,0 1,0 1,0 2,-1 2,-2 1,-1 1,-1 2,-2 1,-1 1,0 2,-2 3,-5 2,-3 6,-6 2,-1 2,-1 4,-3l3 -2c0,0 1,0 2,-1 1,0 1,-1 2,-1 1,-1 1,-1 1,-1l2 -2 4 -2c1,-1 2,-3 4,-4l2 -1c1,-1 3,-2 4,-2 4,-1 3,-4 4,-4 0,-1 4,-2 6,-2 1,-1 3,-2 4,-3 2,0 1,-1 3,-2 1,0 0,0 2,-1 3,-3 3,-2 4,-3 1,-1 1,-1 2,-2l0 1c0,0 1,-1 1,-1 1,-1 1,-1 0,-1l0 0c-1,0 -2,0 -3,1 -1,0 -1,1 -2,1z"/>
     </g>
    </g>
   </g>
   <path fill="#2B2A29" fill-rule="nonzero" d="M310 325l65 0 -32 -97 -1 0 -32 97zm5 -124l53 0 63 186 -36 0 -12 -35 -81 0 -12 35 -37 0 43 -129 19 -57z"/>
   <g clip-path="url(#id2)">
    <g>
     <g>
      <path id="1" fill="#2B2A29" d="M724 240c-1,1 -1,2 -2,2 -1,0 -1,0 -2,1 -1,0 -2,1 -3,1 0,1 0,1 0,1 -1,0 -1,0 -1,0 -1,1 -2,1 -3,1 -2,0 -2,1 -3,1 0,1 -1,1 -2,2 -1,0 -1,1 -2,1 0,0 -1,1 -2,2 -1,1 -1,1 -2,2 -1,1 -3,2 -5,2 0,0 0,0 0,0 -1,0 -1,0 -1,0l0 0c-1,0 -1,0 -1,1 -1,0 -1,0 -2,0l-2 2c0,1 0,1 -1,2 0,1 0,1 -1,1 -1,0 -2,1 -3,1 -1,1 -2,1 -3,2 -1,0 -1,1 -2,1 -1,1 -2,2 -3,2 0,0 0,0 0,0 -1,1 -1,0 -1,1 0,0 -2,1 -3,2 -1,1 -2,2 -2,2 -1,1 -1,1 -2,1l-1 1c-6,3 -6,5 -9,6 -1,0 -3,2 -4,2l-1 0c0,1 -1,2 -2,2 0,1 0,0 -1,1l-1 0c0,1 0,0 0,1 -1,0 -1,0 -1,0 -1,1 -1,1 -1,2 0,0 0,0 -1,0 0,0 0,0 0,0 0,1 0,1 -1,1 -1,1 -2,2 -2,3 -4,3 -1,1 -4,2 -2,2 -3,3 -3,3 -1,1 -1,2 -2,2l-1 1 -3 1c0,1 -1,2 -2,2 -2,1 -2,1 -4,2 -1,1 -1,1 -2,1l0 1c0,0 0,0 0,0 -1,2 -2,3 -3,4 -3,2 -5,4 -8,5 -1,1 -3,2 -4,3 -1,1 -2,3 -2,3 -1,0 0,0 -1,0 0,1 0,1 0,1 -1,0 -2,1 -3,1 0,1 0,0 0,1 -1,0 -1,0 -1,0 0,1 -1,2 -2,2 0,2 -2,3 -3,4 -1,1 -1,1 -2,2 -1,0 -1,1 -2,2l-1 1c0,1 0,0 1,-1 1,0 1,0 2,0 1,-1 3,-1 3,-2 0,-1 1,0 1,-1 0,0 0,0 1,0 2,-3 1,-4 4,-6 3,-2 3,-1 5,-5 1,0 3,-2 4,-2 1,-1 1,-1 2,-1 2,-2 6,-5 8,-6 0,-1 1,-1 1,-2 1,-2 1,-3 3,-4l6 -3c0,0 0,0 0,0 5,-2 5,-4 7,-5l1 -1c1,-1 0,0 1,-1l2 -2c2,-1 4,-3 6,-5 0,0 1,0 1,-1l5 -3c0,0 0,0 0,-1l2 -1c0,0 0,0 0,0l0 0c2,-1 3,-2 5,-3 2,-1 1,-2 4,-3 1,-1 1,-1 3,-1 0,-1 0,-1 0,-1 0,0 0,0 0,0 3,-1 3,-2 6,-4 1,-1 1,-1 2,-2 1,0 1,-1 2,-1 2,-1 3,-2 5,-3 0,0 1,0 1,-1 0,0 1,0 1,0l2 -1c1,-1 2,0 3,-2 1,-2 0,-2 2,-3l1 0c0,0 0,0 0,0l1 -1c2,-1 4,0 6,-2 1,0 0,0 1,-1 0,0 0,0 1,0 1,-1 1,-1 1,-2 0,0 0,0 0,0 0,0 0,0 0,0 0,0 0,0 1,0 0,0 0,0 0,0 0,0 0,0 0,0l1 -1c2,-1 2,-1 3,-2l2 -1c1,-1 2,-2 4,-2 1,0 1,0 2,-1 2,2 0,0 0,1 2,-2 1,-3 4,-4 1,0 2,-1 3,-2 0,-1 0,0 0,-1 -1,0 0,0 -1,0z"/>
      <path fill="#2B2A29" d="M724 241c0,1 -1,1 -2,1 -1,1 -1,1 -2,1 -1,0 -2,1 -3,2 0,0 0,0 0,0 -1,1 -1,0 -1,0 -1,1 -2,1 -3,1 -2,1 -2,1 -3,2 0,1 -1,1 -2,1 -1,1 -1,1 -2,1 0,0 -1,2 -2,2 -1,1 -1,2 -2,2 -1,1 -4,3 -5,2 0,0 0,0 -1,0 0,0 0,0 0,0l0 1c-1,0 -1,0 -1,0 -1,1 -1,1 -2,1l-2 2c0,0 -1,1 -1,2 0,0 0,0 -1,1 -1,0 -3,0 -3,0 -1,1 -2,2 -3,2 -1,1 -2,1 -3,2 0,0 -1,1 -2,1 0,0 0,0 -1,1 0,0 0,0 0,0 -1,1 -2,2 -3,3 -1,0 -2,1 -2,2 -1,1 -1,1 -2,1l-1 0c-7,3 -6,5 -9,6 -1,1 -3,2 -4,2l-1 1c0,0 -1,1 -2,2 -1,0 0,0 -1,0l-1 1c0,0 0,0 0,1 -1,0 -1,0 -1,0 -1,1 -1,1 -1,1 -1,0 -1,0 -1,0 0,1 0,1 0,1 -1,0 -1,0 -1,1 -1,1 -2,1 -3,2 -3,3 -1,1 -3,3 -2,1 -3,2 -4,3 0,1 0,1 -1,1l-1 1 -3 2c0,1 -1,1 -2,2 -2,1 -2,1 -5,2 -1,0 -1,0 -1,1l0 0c-1,0 -1,1 -1,1 0,2 -1,3 -2,4 -3,1 -6,4 -8,5 -2,1 -3,2 -4,3 -1,1 -2,2 -3,3 0,0 0,0 0,0 0,0 0,0 -1,0 0,1 -2,2 -2,2 -1,0 0,0 -1,1 0,0 0,0 -1,0 0,0 -1,1 -1,1 -1,3 -2,4 -3,5 -1,1 -2,1 -2,1 -1,1 -2,2 -2,2l-1 1c0,1 0,1 1,0 0,0 1,0 2,-1 1,0 2,0 3,-1 0,-1 0,-1 1,-1 0,0 0,0 0,-1 2,-2 1,-3 5,-5 3,-3 3,-1 5,-5 1,-1 3,-3 4,-3 1,0 1,0 2,-1 2,-1 6,-4 7,-5 1,-1 1,-1 2,-2 1,-3 1,-3 3,-4l6 -3c0,-1 -1,0 0,-1 5,-2 5,-4 7,-5l1 -1c0,0 0,0 0,0l3 -2c2,-2 4,-3 5,-5 1,-1 1,-1 2,-1l4 -4c1,0 1,0 1,0l2 -1c0,0 0,0 0,0l0 -1c2,-1 3,-1 5,-2 1,-1 1,-2 3,-3 2,-1 2,-1 4,-2 0,0 0,0 0,0 0,0 0,0 0,0 3,-2 3,-2 6,-5 1,0 1,-1 2,-1 1,-1 1,-1 2,-2 2,-1 3,-1 5,-2 0,-1 0,-1 1,-1 0,0 0,-1 1,-1l2 -1c1,0 2,0 3,-2 0,-2 0,-1 2,-2l1 -1c0,0 0,0 0,0l1 -1c2,0 4,1 6,-1 1,-1 0,-1 1,-1 0,-1 0,0 1,-1 1,0 1,-1 1,-1 0,0 0,0 0,0 0,0 0,0 0,0 0,-1 0,-1 0,-1 1,0 1,0 1,0 0,0 0,0 0,0l1 -1c1,-1 2,-1 3,-2l2 -1c1,-1 2,-1 4,-1 1,-1 1,0 2,-1 2,1 0,-1 0,0 2,-2 1,-2 4,-3 1,-1 2,-1 3,-3 0,0 0,0 0,0 0,0 0,0 -1,0z"/>
      <path fill="#2B2A29" d="M705 278c-1,1 0,0 -1,1l-3 1c0,0 0,0 -1,1 0,1 0,1 -1,1 0,0 0,1 0,1 -1,0 0,0 -1,0 0,0 0,0 0,0 0,0 0,1 0,1 -1,0 -1,0 -1,0 -1,0 -1,0 -1,0 -2,1 -6,3 -6,3 -1,1 0,1 -1,1 -1,0 -1,0 -2,1 0,0 0,0 -1,1l0 0c-2,2 -2,2 -4,3 -3,1 -3,3 -7,5 -1,0 -3,1 -4,1 0,0 0,0 -1,1 -1,1 -2,2 -4,3 -2,1 -2,2 -4,4 -1,1 -1,2 -3,2l0 0c-1,1 -2,2 -4,3l-3 2c-1,2 -2,2 -4,2l0 0c-3,4 -3,5 -6,6 -3,1 -3,3 -7,5 -1,1 -1,2 -2,3 -2,2 -3,2 -6,5l-2 2c0,0 0,0 0,0 0,0 0,0 -1,0 0,0 0,0 -1,1 -2,1 -1,3 -4,4 -1,0 -2,0 -3,1 0,1 -1,2 -2,3 1,1 0,0 1,0l7 -5c1,-1 1,-1 1,-2l1 0c0,0 0,0 0,0 0,0 0,0 0,0 1,-1 2,-1 3,-2l2 -3c1,0 2,-1 3,-1 0,0 0,0 0,0 0,0 0,0 0,0l1 -1c1,0 2,-2 2,-3 1,-2 0,0 0,-1l1 -1c1,0 1,0 2,-1 1,-1 2,-1 2,-2 1,-1 2,-1 3,-1l2 -2c1,-1 2,-1 3,-2 1,-2 1,-1 2,-2 2,0 2,-1 4,-2 2,-2 0,-1 5,-4l0 0c0,0 0,0 1,0l0 0c0,0 1,0 1,0l3 -3c2,-2 0,-2 4,-4 2,-1 0,0 2,-2 1,0 1,0 1,0 1,-2 1,-2 3,-2 1,-1 2,-1 3,-1 1,0 1,-1 2,-2l2 -1c1,-1 1,-1 1,-1l3 -1c0,0 0,0 0,0 0,0 0,0 0,0 2,-2 2,-4 4,-4l2 -1c0,0 0,0 0,0 2,-1 3,-1 4,-2 1,0 1,0 1,0l3 -2c2,-1 1,-2 5,-4 1,-1 1,0 2,-1 1,1 0,-1 0,0 2,-1 3,-1 4,-3 2,-3 3,-2 3,-3 0,0 1,0 0,0 0,0 -3,1 -4,2 -2,0 -2,0 -3,2 -1,0 -1,0 -1,0z"/>
      <path fill="#2B2A29" d="M683 243c0,1 0,1 0,1 0,0 0,0 -1,0 0,1 0,1 -1,1l-1 1 -2 1c0,1 -1,1 -2,1 0,1 -5,3 -7,4 -2,2 -2,4 -6,4l-2 3 0 0c-1,1 -2,1 -3,2 -1,0 -1,1 -2,1 -2,1 -4,3 -6,3 -1,1 -2,1 -2,1 -1,1 -1,2 -2,2 -1,2 -3,2 -4,3 -3,2 -5,4 -6,5 -1,1 -4,1 -5,2l0 0c0,1 -1,2 -2,3 0,1 -2,0 -2,1 -2,0 -4,3 -5,4 -2,4 -4,2 -6,4 -1,1 -2,2 -2,4 -1,1 -2,2 -3,2 -1,0 -2,1 -3,1 0,0 0,0 -1,1 0,0 0,0 0,0 0,1 0,0 0,1 -1,3 -5,3 -6,4 -1,1 -2,2 -3,3 0,1 -1,1 -3,2 0,1 0,1 -1,2 0,1 0,1 -1,1 0,1 0,1 0,1 -1,0 -1,0 -1,0 0,1 -1,1 -1,1 1,0 3,0 4,-1 0,0 0,1 0,0l0 -1c2,-3 3,-2 5,-5 1,-1 1,-1 2,-2 0,0 1,0 2,-1l1 0c0,0 0,0 1,0 0,-1 1,-2 1,-2 2,-3 1,-2 4,-3l1 -1c0,0 1,0 1,-1 1,0 1,0 1,0l2 -3c0,-1 0,-1 1,-1 1,-2 2,-2 4,-3 1,0 2,-1 2,-3 1,-1 0,1 1,0l1 -1c1,-1 2,-2 3,-2 1,0 1,0 2,-1 1,0 0,0 1,-1 0,-1 0,0 0,0 1,0 1,-1 2,-2 0,0 0,0 1,0 1,0 2,-1 3,-1 1,-2 2,-3 3,-4l4 -2c1,-1 2,-1 2,-2 2,-2 1,-2 4,-3 0,0 0,0 0,0 1,0 1,0 1,0l5 -2c1,-1 1,-1 2,-2 1,-1 2,-1 2,-1 0,0 0,0 0,0 0,0 0,0 1,0 1,-1 -1,1 0,-1 1,0 2,-2 3,-1 0,-3 1,-2 3,-3l1 -1c1,-1 2,-2 3,-3l0 0c0,-1 0,-1 1,-1 2,-1 3,-2 5,-2 1,0 1,0 2,-1 0,0 0,0 0,0 0,0 0,0 0,0l1 -1c1,-1 2,-2 3,-3 0,0 1,0 1,0 1,0 2,-1 4,-1 1,-1 2,-3 3,-4 -1,1 -3,2 -4,3 -1,0 -2,0 -4,0z"/>
      <path fill="#2B2A29" d="M708 298c0,0 -1,1 -2,1 0,1 -4,4 -4,4 -2,1 -4,2 -6,3 -1,1 -5,2 -5,2 -2,3 -1,3 -4,4 -1,1 -2,1 -3,1 -1,1 -2,1 -3,1l-1 1c0,1 -1,2 -1,2 -1,1 -1,1 -1,2 -1,0 -1,0 -2,0 0,1 -1,1 -2,2 -1,0 -1,0 -1,0 -1,1 0,1 -1,1 -1,0 -1,1 -2,1 0,1 -1,1 -1,1 -1,1 -1,1 -1,1 -2,1 -5,4 -7,4 0,1 -3,3 -4,4 -4,3 -3,3 -4,4 0,1 -2,2 -3,2 0,1 0,1 -1,1 0,1 -1,2 -2,2 0,1 -1,1 -2,2 -1,0 -2,0 -2,1 -1,1 -1,2 -2,3 0,1 -2,2 -3,2 0,0 0,1 -1,1 0,1 0,1 -1,2 1,0 0,0 1,0 2,-1 6,-4 6,-5 0,-1 0,0 0,0l1 -2c0,-1 1,0 2,-1 1,0 0,0 1,0 1,-1 2,-1 2,-2 1,-1 1,-2 2,-2 2,-2 1,0 2,-2 4,-5 2,-3 6,-6 2,-1 2,-2 4,-3l3 -2c0,0 1,0 2,-1 1,-1 1,-1 2,-2 1,0 1,0 1,-1l2 -1 4 -2c2,-1 2,-3 4,-4l2 -2c1,0 3,-1 4,-1 4,-1 4,-4 4,-5 1,0 4,-2 6,-2 1,0 3,-2 5,-2 1,-1 0,-1 2,-2 1,-1 1,-1 2,-2 3,-3 3,-1 4,-3 1,-1 2,0 2,-1l1 0c0,0 0,0 0,0 1,-1 1,-1 0,-1l0 0c-1,0 -2,0 -3,0 0,1 -1,2 -2,2z"/>
      <path fill="#2B2A29" d="M598 334c3,0 4,-3 8,-5 1,-1 7,-4 8,-5 3,0 3,-1 6,-2l4 -3c1,0 1,-1 2,-1 2,-2 6,-3 8,-6 2,-3 4,-3 7,-5 2,-1 3,-2 5,-3l3 -2c5,-4 3,-2 7,-6 2,-2 1,-1 4,-2 2,0 2,0 2,-1 1,-2 2,-3 3,-4 3,-3 4,-1 6,-4 4,-3 4,-2 7,-6 3,-2 7,-4 8,-5 2,-2 1,-2 4,-3 3,-1 1,-2 5,-5 0,0 1,-1 2,-1 1,-1 3,-1 4,-2 3,-6 4,-5 9,-8 0,0 1,-1 2,-2 1,-1 2,-3 5,-4 1,-1 1,-1 1,-2 0,-1 2,1 0,-1 -1,1 -1,1 -2,1 -2,0 -3,1 -4,2l-2 1c-1,1 -1,1 -3,2l-1 1c0,0 0,0 0,0 0,0 0,0 0,0 -1,0 -1,0 -1,0 0,0 0,0 0,0 0,0 0,0 0,0 0,1 0,1 -1,2 -1,0 -1,0 -1,0 -1,1 0,1 -1,1 -2,2 -4,1 -6,2l-1 1c0,0 0,0 0,0l-1 0c-2,1 -1,1 -2,3 -1,2 -2,1 -3,2l-2 1c0,0 -1,0 -1,0 0,1 -1,1 -1,1 -2,1 -3,2 -5,3 -1,0 -1,1 -2,1 -1,1 -1,1 -2,2 -3,2 -3,3 -6,4 0,0 0,0 0,0 0,0 0,0 0,1 -2,0 -2,0 -3,1 -3,1 -2,2 -4,3 -2,1 -3,2 -5,3l0 0c0,0 0,0 0,0l-2 1c0,1 0,1 0,1l-5 3c0,1 -1,1 -1,1 -2,2 -4,4 -6,5l-2 2c-1,1 0,0 -1,1l-1 1c-2,1 -2,3 -7,5 0,0 0,0 0,0l-6 3c-2,1 -2,2 -3,4 0,1 -1,1 -1,2 -2,1 -6,4 -8,6 -1,0 -1,0 -2,1 -1,0 -3,2 -4,2 -2,4 -2,3 -5,5 -3,2 -2,3 -4,6 -1,0 -1,0 -1,0 0,1 -1,0 -1,1z"/>
      <path fill="#2B2A29" d="M595 312c2,-1 2,-1 3,-2 1,-1 2,-2 3,-3 1,0 1,0 2,-1 2,-1 4,-1 5,-2 2,-1 1,-2 5,-4 7,-3 5,-1 8,-5 1,-2 2,-1 6,-4 1,0 3,-1 5,-2 0,-1 1,-3 2,-3 1,-1 3,-1 3,-2 1,0 4,-3 6,-5 3,-1 2,0 6,-3 3,-3 2,-3 5,-5 3,-1 4,-2 6,-4 3,-3 5,-3 9,-6 2,-2 4,-5 5,-6 1,0 2,-1 3,-2 2,-1 1,-3 6,-5l2 -2c2,0 2,-2 3,-3 -1,1 -3,1 -4,2 0,0 0,0 0,0 -2,1 -3,1 -4,2l-1 1c0,0 0,0 0,0 0,0 0,0 0,0 -1,1 -1,1 -2,1 -2,1 -3,2 -5,3 0,0 -1,0 -1,0l0 0c-1,1 -2,3 -3,4l-1 1c-1,1 -2,0 -3,2 -1,0 -2,1 -3,2 -1,1 1,-1 0,0 0,0 0,0 0,0 0,0 -1,0 -1,0 0,1 -1,1 -2,1 -1,1 -1,1 -2,2l-5 3c0,0 0,0 0,0 -1,0 0,0 -1,0 -3,1 -1,1 -3,3 -1,1 -1,1 -2,1l-4 3c-1,0 -3,2 -4,3 0,1 -2,1 -3,1 -1,0 0,0 -1,1 -1,0 -1,1 -1,1 -1,1 -1,0 -1,1 -1,1 0,0 -1,1 0,0 0,0 -1,0 -2,0 -3,1 -4,2l-1 1c-1,1 0,0 0,1 -1,1 -2,2 -3,3 -2,1 -3,1 -4,2 0,1 0,1 -1,1l-2 3c0,0 0,0 0,0 -1,1 -1,1 -2,1l-1 1c-3,1 -2,0 -3,3 -1,1 -1,1 -2,2 0,0 0,0 -1,0l-1 1c-1,0 -1,0 -2,0 0,2 -1,2 -2,3 -2,2 -3,1 -4,4l-1 1c0,1 0,0 0,1z"/>
      <path fill="#2B2A29" d="M622 340c2,0 2,0 4,-1 1,0 2,0 3,-1l3 -1c2,-3 2,-3 5,-5 1,0 1,-1 3,-1 5,-2 2,-1 4,-4 1,-1 2,-1 3,-2 1,0 1,-1 2,-1 6,-5 3,-2 7,-4 2,-1 1,0 2,-2 1,-1 2,-2 3,-2 1,-1 3,-3 5,-4 2,-1 4,-2 5,-3 2,-3 2,-2 4,-3 1,-1 1,-1 2,-1 1,-1 4,-3 5,-4 3,-4 2,-3 6,-5l2 -1c1,-1 1,0 2,-2 1,-2 1,-2 2,-3l3 -2c2,-1 2,-2 5,-4 2,-1 2,0 4,-4 0,-1 1,0 0,-1 -1,1 -1,1 -2,1 -4,2 -3,4 -5,4l-3 2c0,0 0,0 -1,0 -1,1 -2,1 -4,3 0,0 0,0 0,0l-2 1c-2,0 -2,1 -4,3 0,0 0,0 0,0 0,0 0,0 0,0l-3 2c0,0 0,0 -1,0l-2 2c-1,1 -1,1 -2,1 -1,0 -2,1 -3,1 -2,1 -2,1 -3,2 0,0 0,0 -1,1 -1,1 1,0 -2,2 -3,2 -2,2 -4,4l-3 2c0,0 0,0 0,0l-1 0c0,0 0,0 0,1l-1 0c-5,2 -3,2 -5,3 -1,1 -2,2 -3,3 -2,0 -1,0 -3,1 -1,1 -2,2 -3,3l-2 1c-1,0 -2,1 -2,1 -1,1 -2,1 -2,2 -1,1 -2,1 -2,1l-1 1c0,1 0,0 0,1 -1,1 -2,3 -3,3l0 1c0,0 -1,0 -1,0 0,0 0,0 0,0 -1,1 -2,1 -3,2l-2 2c-1,1 -1,2 -2,2 -1,0 -1,0 -1,0 0,0 0,0 0,0l0 1c-1,0 -1,0 -2,1z"/>
      <path fill="#2B2A29" d="M644 347c0,0 0,0 1,0 1,-1 3,-1 4,-2 1,0 2,-2 4,-3 4,-2 3,-3 6,-5 1,0 2,0 3,-1 1,-1 5,-4 9,-6 1,0 1,0 2,-1 3,-1 7,-6 8,-7l4 -2c3,-1 1,-1 3,-3 0,-1 6,-3 9,-5 3,-3 1,-2 3,-4 2,-2 3,-2 4,-4 1,-1 1,-2 2,-2 1,0 2,-1 3,-1 0,-1 3,-3 4,-4l-1 -1c0,1 -1,1 -2,2 -1,1 -1,0 -4,3 -1,1 -1,1 -2,1 -2,1 -1,2 -2,2 -2,1 -4,2 -5,3 -1,0 -5,1 -6,2 0,0 0,3 -4,4 -1,0 -3,1 -4,2l-2 1c-2,1 -2,3 -4,4l-4 2 -1 2c-1,0 -1,0 -2,1 0,0 -1,1 -2,1 -1,1 -2,1 -2,1l-2 2c-3,2 -3,2 -5,3 -4,3 -2,1 -5,6 -1,2 -1,1 -3,2 -1,1 -1,1 -2,2 0,1 -1,2 -2,2 -1,0 0,0 -1,0 -1,1 -1,0 -2,2l0 1c-1,1 -1,0 0,0z"/>
      <path fill="#2B2A29" d="M705 278c-1,0 0,0 -1,0l-3 1c0,1 0,1 -1,1 0,1 0,1 -1,2 0,0 0,0 0,0 -1,0 0,0 -1,0 0,1 1,0 0,1 0,0 0,0 0,0 -1,0 -1,0 -1,0 -1,1 -1,1 -1,1 -1,0 -6,3 -6,3 -1,0 0,0 -1,0 -1,1 -1,1 -2,1 0,0 0,1 -1,1l0 0c-2,2 -2,2 -4,3 -3,2 -3,4 -6,5 -1,0 -4,1 -4,1 -1,1 -1,1 -1,1 -1,2 -3,3 -5,3 -1,2 -2,3 -3,4 -2,1 -2,2 -4,3l0 0c-1,0 -2,1 -4,2l-3 3c-1,1 -2,1 -3,2l-1 0c-3,4 -3,4 -6,5 -2,1 -3,3 -7,5 0,1 -1,2 -2,3 -1,3 -3,2 -6,5l-1 2c0,0 -1,0 -1,0 0,0 0,0 0,0 -1,1 -1,1 -2,1 -2,1 -1,3 -3,4 -2,1 -2,0 -3,2 -1,0 -2,2 -2,2 0,1 0,1 0,0l7 -5c1,-1 1,-1 2,-1l0 -1c0,0 0,0 0,0 0,0 0,0 1,0 1,0 1,-1 2,-2l2 -2c1,-1 2,-1 3,-2 0,0 0,0 0,0 0,0 1,0 1,0l0 -1c1,0 2,-2 3,-3 0,-1 0,0 0,-1l1 -1c0,0 1,0 2,-1 0,-1 1,-1 2,-2 0,0 1,-1 2,-1l2 -1c1,-1 2,-2 3,-3 2,-1 1,-1 3,-1 1,-1 2,-2 3,-3 2,-1 0,-1 5,-3l1 0c0,-1 0,-1 0,-1l1 0c0,0 0,0 0,0l3 -2c2,-2 1,-2 4,-4 3,-2 1,-1 2,-2 1,-1 1,-1 1,-1 1,-1 1,-1 3,-2 1,0 2,-1 3,-1 1,0 1,0 2,-1l2 -2c1,0 1,0 1,0l3 -2c0,0 0,0 0,0 0,0 0,0 0,0 2,-2 2,-3 4,-3l2 -1c0,0 0,0 0,0 2,-2 3,-2 4,-3 1,0 1,0 1,0l3 -2c2,0 1,-2 5,-4 1,0 1,0 2,-1 1,1 0,0 0,1 2,-1 3,-1 4,-3 2,-3 3,-3 3,-4 0,0 1,1 0,0 0,1 -3,2 -4,2 -2,1 -1,1 -3,2 -1,1 -1,1 -1,1z"/>
      <path fill="#2B2A29" d="M684 243c-1,0 -1,0 -1,0 0,1 0,1 -1,1 0,0 0,0 -1,0l-1 1 -1 2c-1,1 -2,1 -3,1 0,0 -5,2 -7,4 -2,2 -2,3 -6,4l-2 2 0 0c-1,1 -2,2 -3,2 -1,1 -1,1 -2,2 -1,1 -4,3 -6,3 -1,0 -1,0 -2,1 -1,0 -1,1 -2,2 -1,1 -2,2 -3,2 -4,2 -5,5 -7,6 -1,0 -3,1 -4,1l-1 1c0,0 -1,2 -1,2 -1,1 -2,1 -3,1 -2,1 -3,4 -4,4 -3,4 -5,3 -7,5 0,1 -1,2 -2,3 -1,1 -1,2 -3,2 -1,1 -2,1 -3,1 0,1 0,1 0,1 0,0 0,0 -1,1 0,0 0,0 0,0 -1,3 -5,4 -6,5 -1,0 -1,2 -2,3 -1,0 -2,1 -3,2 -1,0 -1,1 -1,1 -1,1 -1,1 -1,2 -1,0 0,0 -1,0 0,1 0,1 -1,1 0,0 0,0 -1,1 1,0 4,-1 4,-1 0,-1 0,0 0,-1l1 -1c1,-3 2,-2 4,-4 1,-1 2,-1 2,-3 1,0 1,0 2,0l1 -1c1,0 1,0 1,0 1,-1 1,-1 2,-2 1,-3 0,-2 3,-3l1 -1c1,0 1,0 2,-1 0,0 0,0 0,0l2 -3c1,0 1,0 1,-1 1,-1 2,-1 4,-2 1,-1 2,-2 3,-3 0,-1 -1,0 0,-1l1 -1c1,-1 2,-2 4,-2 1,0 1,0 1,0 1,-1 0,0 1,-1 0,-1 0,0 1,-1 0,0 0,-1 1,-1 1,-1 0,-1 1,-1 1,0 3,0 3,-1 1,-1 3,-3 4,-3l4 -3c1,0 1,0 2,-1 2,-2 0,-2 3,-3 1,0 0,0 1,0 0,0 0,0 0,0l5 -3c1,-1 1,-1 2,-2 1,0 2,0 2,-1 0,0 1,0 1,0 0,0 0,0 0,0 1,-1 -1,1 0,0 1,-1 2,-2 3,-2 1,-2 2,-1 3,-2l1 -1c1,-1 2,-3 3,-4l0 0c0,0 1,0 1,0 2,-1 3,-2 5,-3 1,0 1,0 2,-1 0,0 0,0 0,0 0,0 0,0 0,0l1 -1c1,-1 2,-1 4,-2 0,0 0,0 0,0 1,-1 3,-1 4,-2 1,-1 3,-2 3,-3 -1,0 -2,2 -4,2 -1,1 -2,1 -3,1z"/>
      <path fill="#2B2A29" d="M708 297c0,1 -1,1 -2,2 0,0 -4,3 -4,3 -2,1 -4,2 -6,3 -1,1 -5,2 -5,3 -2,2 -1,3 -4,4 -1,0 -2,1 -3,1 -1,0 -2,1 -2,1l-2 0c0,1 -1,2 -1,2 -1,1 -1,1 -1,2 -1,1 -1,1 -2,1 0,0 -1,1 -2,1 0,0 -1,0 -1,1 -1,0 0,0 -1,0 0,1 -1,1 -1,2 -1,0 -2,1 -2,1 -1,0 0,0 -1,1 -2,1 -5,3 -7,4 0,0 -3,2 -4,3 -4,3 -3,4 -4,4 0,2 -2,2 -2,3 -1,0 -1,0 -2,1 0,0 -1,1 -1,2 -1,1 -2,1 -3,1 -1,0 -2,0 -2,1 -1,1 -1,3 -1,3 -1,1 -3,2 -4,2 0,0 0,1 -1,1 0,1 0,2 0,2 0,1 0,0 0,0 2,-1 6,-4 7,-5 -1,0 -1,1 0,0l0 -1c1,-2 1,-1 2,-2 1,0 0,0 1,0 1,0 2,-1 2,-2 1,-1 1,-1 2,-2 2,-1 2,0 3,-2 3,-5 1,-3 5,-6 2,-1 2,-1 5,-3l2 -2c0,0 1,0 2,-1 1,0 2,-1 2,-1 1,-1 1,-1 2,-1l1 -2 4 -2c2,-1 2,-3 4,-4l2 -1c1,-1 3,-2 4,-2 4,-1 4,-4 4,-4 1,-1 5,-2 6,-2 1,-1 3,-2 5,-3 1,0 0,-1 2,-2 1,0 1,0 2,-1 3,-3 3,-2 4,-3 1,-1 2,-1 2,-2l1 1c0,0 0,-1 0,-1 1,-1 1,-1 0,-1l0 0c-1,0 -2,0 -3,1 0,0 -1,1 -2,1z"/>
     </g>
    </g>
   </g>
   <polygon fill="#2B2A29" fill-rule="nonzero" points="446,201 482,201 482,357 570,357 570,387 446,387 "/>
   <g clip-path="url(#id3)">
    <g>
     <g>
      <path id="1" fill="#2B2A29" d="M724 240c-1,1 -1,2 -2,2 -1,0 -1,0 -2,1 -1,0 -2,1 -3,1 0,1 0,1 0,1 -1,0 -1,0 -1,0 -1,1 -2,1 -3,1 -2,0 -2,1 -3,1 0,1 -1,1 -2,2 -1,0 -1,1 -2,1 0,0 -1,1 -2,2 -1,1 -1,1 -2,2 -1,1 -3,2 -5,2 0,0 0,0 0,0 -1,0 -1,0 -1,0l0 0c-1,0 -1,0 -1,1 -1,0 -1,0 -2,0l-2 2c0,1 0,1 -1,2 0,1 0,1 -1,1 -1,0 -2,1 -3,1 -1,1 -2,1 -3,2 -1,0 -1,1 -2,1 -1,1 -2,2 -3,2 0,0 0,0 0,0 -1,1 -1,0 -1,1 0,0 -2,1 -3,2 -1,1 -2,2 -2,2 -1,1 -1,1 -2,1l-1 1c-6,3 -6,5 -9,6 -1,0 -3,2 -4,2l-1 0c0,1 -1,2 -2,2 0,1 0,0 -1,1l-1 0c0,1 0,0 0,1 -1,0 -1,0 -1,0 -1,1 -1,1 -1,2 0,0 0,0 -1,0 0,0 0,0 0,0 0,1 0,1 -1,1 -1,1 -2,2 -2,3 -4,3 -1,1 -4,2 -2,2 -3,3 -3,3 -1,1 -1,2 -2,2l-1 1 -3 1c0,1 -1,2 -2,2 -2,1 -2,1 -4,2 -1,1 -1,1 -2,1l0 1c0,0 0,0 0,0 -1,2 -2,3 -3,4 -3,2 -5,4 -8,5 -1,1 -3,2 -4,3 -1,1 -2,3 -2,3 -1,0 0,0 -1,0 0,1 0,1 0,1 -1,0 -2,1 -3,1 0,1 0,0 0,1 -1,0 -1,0 -1,0 0,1 -1,2 -2,2 0,2 -2,3 -3,4 -1,1 -1,1 -2,2 -1,0 -1,1 -2,2l-1 1c0,1 0,0 1,-1 1,0 1,0 2,0 1,-1 3,-1 3,-2 0,-1 1,0 1,-1 0,0 0,0 1,0 2,-3 1,-4 4,-6 3,-2 3,-1 5,-5 1,0 3,-2 4,-2 1,-1 1,-1 2,-1 2,-2 6,-5 8,-6 0,-1 1,-1 1,-2 1,-2 1,-3 3,-4l6 -3c0,0 0,0 0,0 5,-2 5,-4 7,-5l1 -1c1,-1 0,0 1,-1l2 -2c2,-1 4,-3 6,-5 0,0 1,0 1,-1l5 -3c0,0 0,0 0,-1l2 -1c0,0 0,0 0,0l0 0c2,-1 3,-2 5,-3 2,-1 1,-2 4,-3 1,-1 1,-1 3,-1 0,-1 0,-1 0,-1 0,0 0,0 0,0 3,-1 3,-2 6,-4 1,-1 1,-1 2,-2 1,0 1,-1 2,-1 2,-1 3,-2 5,-3 0,0 1,0 1,-1 0,0 1,0 1,0l2 -1c1,-1 2,0 3,-2 1,-2 0,-2 2,-3l1 0c0,0 0,0 0,0l1 -1c2,-1 4,0 6,-2 1,0 0,0 1,-1 0,0 0,0 1,0 1,-1 1,-1 1,-2 0,0 0,0 0,0 0,0 0,0 0,0 0,0 0,0 1,0 0,0 0,0 0,0 0,0 0,0 0,0l1 -1c2,-1 2,-1 3,-2l2 -1c1,-1 2,-2 4,-2 1,0 1,0 2,-1 2,2 0,0 0,1 2,-2 1,-3 4,-4 1,0 2,-1 3,-2 0,-1 0,0 0,-1 -1,0 0,0 -1,0z"/>
      <path fill="#2B2A29" d="M724 241c0,1 -1,1 -2,1 -1,1 -1,1 -2,1 -1,0 -2,1 -3,2 0,0 0,0 0,0 -1,1 -1,0 -1,0 -1,1 -2,1 -3,1 -2,1 -2,1 -3,2 0,1 -1,1 -2,1 -1,1 -1,1 -2,1 0,0 -1,2 -2,2 -1,1 -1,2 -2,2 -1,1 -4,3 -5,2 0,0 0,0 -1,0 0,0 0,0 0,0l0 1c-1,0 -1,0 -1,0 -1,1 -1,1 -2,1l-2 2c0,0 -1,1 -1,2 0,0 0,0 -1,1 -1,0 -3,0 -3,0 -1,1 -2,2 -3,2 -1,1 -2,1 -3,2 0,0 -1,1 -2,1 0,0 0,0 -1,1 0,0 0,0 0,0 -1,1 -2,2 -3,3 -1,0 -2,1 -2,2 -1,1 -1,1 -2,1l-1 0c-7,3 -6,5 -9,6 -1,1 -3,2 -4,2l-1 1c0,0 -1,1 -2,2 -1,0 0,0 -1,0l-1 1c0,0 0,0 0,1 -1,0 -1,0 -1,0 -1,1 -1,1 -1,1 -1,0 -1,0 -1,0 0,1 0,1 0,1 -1,0 -1,0 -1,1 -1,1 -2,1 -3,2 -3,3 -1,1 -3,3 -2,1 -3,2 -4,3 0,1 0,1 -1,1l-1 1 -3 2c0,1 -1,1 -2,2 -2,1 -2,1 -5,2 -1,0 -1,0 -1,1l0 0c-1,0 -1,1 -1,1 0,2 -1,3 -2,4 -3,1 -6,4 -8,5 -2,1 -3,2 -4,3 -1,1 -2,2 -3,3 0,0 0,0 0,0 0,0 0,0 -1,0 0,1 -2,2 -2,2 -1,0 0,0 -1,1 0,0 0,0 -1,0 0,0 -1,1 -1,1 -1,3 -2,4 -3,5 -1,1 -2,1 -2,1 -1,1 -2,2 -2,2l-1 1c0,1 0,1 1,0 0,0 1,0 2,-1 1,0 2,0 3,-1 0,-1 0,-1 1,-1 0,0 0,0 0,-1 2,-2 1,-3 5,-5 3,-3 3,-1 5,-5 1,-1 3,-3 4,-3 1,0 1,0 2,-1 2,-1 6,-4 7,-5 1,-1 1,-1 2,-2 1,-3 1,-3 3,-4l6 -3c0,-1 -1,0 0,-1 5,-2 5,-4 7,-5l1 -1c0,0 0,0 0,0l3 -2c2,-2 4,-3 5,-5 1,-1 1,-1 2,-1l4 -4c1,0 1,0 1,0l2 -1c0,0 0,0 0,0l0 -1c2,-1 3,-1 5,-2 1,-1 1,-2 3,-3 2,-1 2,-1 4,-2 0,0 0,0 0,0 0,0 0,0 0,0 3,-2 3,-2 6,-5 1,0 1,-1 2,-1 1,-1 1,-1 2,-2 2,-1 3,-1 5,-2 0,-1 0,-1 1,-1 0,0 0,-1 1,-1l2 -1c1,0 2,0 3,-2 0,-2 0,-1 2,-2l1 -1c0,0 0,0 0,0l1 -1c2,0 4,1 6,-1 1,-1 0,-1 1,-1 0,-1 0,0 1,-1 1,0 1,-1 1,-1 0,0 0,0 0,0 0,0 0,0 0,0 0,-1 0,-1 0,-1 1,0 1,0 1,0 0,0 0,0 0,0l1 -1c1,-1 2,-1 3,-2l2 -1c1,-1 2,-1 4,-1 1,-1 1,0 2,-1 2,1 0,-1 0,0 2,-2 1,-2 4,-3 1,-1 2,-1 3,-3 0,0 0,0 0,0 0,0 0,0 -1,0z"/>
      <path fill="#2B2A29" d="M705 278c-1,1 0,0 -1,1l-3 1c0,0 0,0 -1,1 0,1 0,1 -1,1 0,0 0,1 0,1 -1,0 0,0 -1,0 0,0 0,0 0,0 0,0 0,1 0,1 -1,0 -1,0 -1,0 -1,0 -1,0 -1,0 -2,1 -6,3 -6,3 -1,1 0,1 -1,1 -1,0 -1,0 -2,1 0,0 0,0 -1,1l0 0c-2,2 -2,2 -4,3 -3,1 -3,3 -7,5 -1,0 -3,1 -4,1 0,0 0,0 -1,1 -1,1 -2,2 -4,3 -2,1 -2,2 -4,4 -1,1 -1,2 -3,2l0 0c-1,1 -2,2 -4,3l-3 2c-1,2 -2,2 -4,2l0 0c-3,4 -3,5 -6,6 -3,1 -3,3 -7,5 -1,1 -1,2 -2,3 -2,2 -3,2 -6,5l-2 2c0,0 0,0 0,0 0,0 0,0 -1,0 0,0 0,0 -1,1 -2,1 -1,3 -4,4 -1,0 -2,0 -3,1 0,1 -1,2 -2,3 1,1 0,0 1,0l7 -5c1,-1 1,-1 1,-2l1 0c0,0 0,0 0,0 0,0 0,0 0,0 1,-1 2,-1 3,-2l2 -3c1,0 2,-1 3,-1 0,0 0,0 0,0 0,0 0,0 0,0l1 -1c1,0 2,-2 2,-3 1,-2 0,0 0,-1l1 -1c1,0 1,0 2,-1 1,-1 2,-1 2,-2 1,-1 2,-1 3,-1l2 -2c1,-1 2,-1 3,-2 1,-2 1,-1 2,-2 2,0 2,-1 4,-2 2,-2 0,-1 5,-4l0 0c0,0 0,0 1,0l0 0c0,0 1,0 1,0l3 -3c2,-2 0,-2 4,-4 2,-1 0,0 2,-2 1,0 1,0 1,0 1,-2 1,-2 3,-2 1,-1 2,-1 3,-1 1,0 1,-1 2,-2l2 -1c1,-1 1,-1 1,-1l3 -1c0,0 0,0 0,0 0,0 0,0 0,0 2,-2 2,-4 4,-4l2 -1c0,0 0,0 0,0 2,-1 3,-1 4,-2 1,0 1,0 1,0l3 -2c2,-1 1,-2 5,-4 1,-1 1,0 2,-1 1,1 0,-1 0,0 2,-1 3,-1 4,-3 2,-3 3,-2 3,-3 0,0 1,0 0,0 0,0 -3,1 -4,2 -2,0 -2,0 -3,2 -1,0 -1,0 -1,0z"/>
      <path fill="#2B2A29" d="M683 243c0,1 0,1 0,1 0,0 0,0 -1,0 0,1 0,1 -1,1l-1 1 -2 1c0,1 -1,1 -2,1 0,1 -5,3 -7,4 -2,2 -2,4 -6,4l-2 3 0 0c-1,1 -2,1 -3,2 -1,0 -1,1 -2,1 -2,1 -4,3 -6,3 -1,1 -2,1 -2,1 -1,1 -1,2 -2,2 -1,2 -3,2 -4,3 -3,2 -5,4 -6,5 -1,1 -4,1 -5,2l0 0c0,1 -1,2 -2,3 0,1 -2,0 -2,1 -2,0 -4,3 -5,4 -2,4 -4,2 -6,4 -1,1 -2,2 -2,4 -1,1 -2,2 -3,2 -1,0 -2,1 -3,1 0,0 0,0 -1,1 0,0 0,0 0,0 0,1 0,0 0,1 -1,3 -5,3 -6,4 -1,1 -2,2 -3,3 0,1 -1,1 -3,2 0,1 0,1 -1,2 0,1 0,1 -1,1 0,1 0,1 0,1 -1,0 -1,0 -1,0 0,1 -1,1 -1,1 1,0 3,0 4,-1 0,0 0,1 0,0l0 -1c2,-3 3,-2 5,-5 1,-1 1,-1 2,-2 0,0 1,0 2,-1l1 0c0,0 0,0 1,0 0,-1 1,-2 1,-2 2,-3 1,-2 4,-3l1 -1c0,0 1,0 1,-1 1,0 1,0 1,0l2 -3c0,-1 0,-1 1,-1 1,-2 2,-2 4,-3 1,0 2,-1 2,-3 1,-1 0,1 1,0l1 -1c1,-1 2,-2 3,-2 1,0 1,0 2,-1 1,0 0,0 1,-1 0,-1 0,0 0,0 1,0 1,-1 2,-2 0,0 0,0 1,0 1,0 2,-1 3,-1 1,-2 2,-3 3,-4l4 -2c1,-1 2,-1 2,-2 2,-2 1,-2 4,-3 0,0 0,0 0,0 1,0 1,0 1,0l5 -2c1,-1 1,-1 2,-2 1,-1 2,-1 2,-1 0,0 0,0 0,0 0,0 0,0 1,0 1,-1 -1,1 0,-1 1,0 2,-2 3,-1 0,-3 1,-2 3,-3l1 -1c1,-1 2,-2 3,-3l0 0c0,-1 0,-1 1,-1 2,-1 3,-2 5,-2 1,0 1,0 2,-1 0,0 0,0 0,0 0,0 0,0 0,0l1 -1c1,-1 2,-2 3,-3 0,0 1,0 1,0 1,0 2,-1 4,-1 1,-1 2,-3 3,-4 -1,1 -3,2 -4,3 -1,0 -2,0 -4,0z"/>
      <path fill="#2B2A29" d="M708 298c0,0 -1,1 -2,1 0,1 -4,4 -4,4 -2,1 -4,2 -6,3 -1,1 -5,2 -5,2 -2,3 -1,3 -4,4 -1,1 -2,1 -3,1 -1,1 -2,1 -3,1l-1 1c0,1 -1,2 -1,2 -1,1 -1,1 -1,2 -1,0 -1,0 -2,0 0,1 -1,1 -2,2 -1,0 -1,0 -1,0 -1,1 0,1 -1,1 -1,0 -1,1 -2,1 0,1 -1,1 -1,1 -1,1 -1,1 -1,1 -2,1 -5,4 -7,4 0,1 -3,3 -4,4 -4,3 -3,3 -4,4 0,1 -2,2 -3,2 0,1 0,1 -1,1 0,1 -1,2 -2,2 0,1 -1,1 -2,2 -1,0 -2,0 -2,1 -1,1 -1,2 -2,3 0,1 -2,2 -3,2 0,0 0,1 -1,1 0,1 0,1 -1,2 1,0 0,0 1,0 2,-1 6,-4 6,-5 0,-1 0,0 0,0l1 -2c0,-1 1,0 2,-1 1,0 0,0 1,0 1,-1 2,-1 2,-2 1,-1 1,-2 2,-2 2,-2 1,0 2,-2 4,-5 2,-3 6,-6 2,-1 2,-2 4,-3l3 -2c0,0 1,0 2,-1 1,-1 1,-1 2,-2 1,0 1,0 1,-1l2 -1 4 -2c2,-1 2,-3 4,-4l2 -2c1,0 3,-1 4,-1 4,-1 4,-4 4,-5 1,0 4,-2 6,-2 1,0 3,-2 5,-2 1,-1 0,-1 2,-2 1,-1 1,-1 2,-2 3,-3 3,-1 4,-3 1,-1 2,0 2,-1l1 0c0,0 0,0 0,0 1,-1 1,-1 0,-1l0 0c-1,0 -2,0 -3,0 0,1 -1,2 -2,2z"/>
      <path fill="#2B2A29" d="M598 334c3,0 4,-3 8,-5 1,-1 7,-4 8,-5 3,0 3,-1 6,-2l4 -3c1,0 1,-1 2,-1 2,-2 6,-3 8,-6 2,-3 4,-3 7,-5 2,-1 3,-2 5,-3l3 -2c5,-4 3,-2 7,-6 2,-2 1,-1 4,-2 2,0 2,0 2,-1 1,-2 2,-3 3,-4 3,-3 4,-1 6,-4 4,-3 4,-2 7,-6 3,-2 7,-4 8,-5 2,-2 1,-2 4,-3 3,-1 1,-2 5,-5 0,0 1,-1 2,-1 1,-1 3,-1 4,-2 3,-6 4,-5 9,-8 0,0 1,-1 2,-2 1,-1 2,-3 5,-4 1,-1 1,-1 1,-2 0,-1 2,1 0,-1 -1,1 -1,1 -2,1 -2,0 -3,1 -4,2l-2 1c-1,1 -1,1 -3,2l-1 1c0,0 0,0 0,0 0,0 0,0 0,0 -1,0 -1,0 -1,0 0,0 0,0 0,0 0,0 0,0 0,0 0,1 0,1 -1,2 -1,0 -1,0 -1,0 -1,1 0,1 -1,1 -2,2 -4,1 -6,2l-1 1c0,0 0,0 0,0l-1 0c-2,1 -1,1 -2,3 -1,2 -2,1 -3,2l-2 1c0,0 -1,0 -1,0 0,1 -1,1 -1,1 -2,1 -3,2 -5,3 -1,0 -1,1 -2,1 -1,1 -1,1 -2,2 -3,2 -3,3 -6,4 0,0 0,0 0,0 0,0 0,0 0,1 -2,0 -2,0 -3,1 -3,1 -2,2 -4,3 -2,1 -3,2 -5,3l0 0c0,0 0,0 0,0l-2 1c0,1 0,1 0,1l-5 3c0,1 -1,1 -1,1 -2,2 -4,4 -6,5l-2 2c-1,1 0,0 -1,1l-1 1c-2,1 -2,3 -7,5 0,0 0,0 0,0l-6 3c-2,1 -2,2 -3,4 0,1 -1,1 -1,2 -2,1 -6,4 -8,6 -1,0 -1,0 -2,1 -1,0 -3,2 -4,2 -2,4 -2,3 -5,5 -3,2 -2,3 -4,6 -1,0 -1,0 -1,0 0,1 -1,0 -1,1z"/>
      <path fill="#2B2A29" d="M595 312c2,-1 2,-1 3,-2 1,-1 2,-2 3,-3 1,0 1,0 2,-1 2,-1 4,-1 5,-2 2,-1 1,-2 5,-4 7,-3 5,-1 8,-5 1,-2 2,-1 6,-4 1,0 3,-1 5,-2 0,-1 1,-3 2,-3 1,-1 3,-1 3,-2 1,0 4,-3 6,-5 3,-1 2,0 6,-3 3,-3 2,-3 5,-5 3,-1 4,-2 6,-4 3,-3 5,-3 9,-6 2,-2 4,-5 5,-6 1,0 2,-1 3,-2 2,-1 1,-3 6,-5l2 -2c2,0 2,-2 3,-3 -1,1 -3,1 -4,2 0,0 0,0 0,0 -2,1 -3,1 -4,2l-1 1c0,0 0,0 0,0 0,0 0,0 0,0 -1,1 -1,1 -2,1 -2,1 -3,2 -5,3 0,0 -1,0 -1,0l0 0c-1,1 -2,3 -3,4l-1 1c-1,1 -2,0 -3,2 -1,0 -2,1 -3,2 -1,1 1,-1 0,0 0,0 0,0 0,0 0,0 -1,0 -1,0 0,1 -1,1 -2,1 -1,1 -1,1 -2,2l-5 3c0,0 0,0 0,0 -1,0 0,0 -1,0 -3,1 -1,1 -3,3 -1,1 -1,1 -2,1l-4 3c-1,0 -3,2 -4,3 0,1 -2,1 -3,1 -1,0 0,0 -1,1 -1,0 -1,1 -1,1 -1,1 -1,0 -1,1 -1,1 0,0 -1,1 0,0 0,0 -1,0 -2,0 -3,1 -4,2l-1 1c-1,1 0,0 0,1 -1,1 -2,2 -3,3 -2,1 -3,1 -4,2 0,1 0,1 -1,1l-2 3c0,0 0,0 0,0 -1,1 -1,1 -2,1l-1 1c-3,1 -2,0 -3,3 -1,1 -1,1 -2,2 0,0 0,0 -1,0l-1 1c-1,0 -1,0 -2,0 0,2 -1,2 -2,3 -2,2 -3,1 -4,4l-1 1c0,1 0,0 0,1z"/>
      <path fill="#2B2A29" d="M622 340c2,0 2,0 4,-1 1,0 2,0 3,-1l3 -1c2,-3 2,-3 5,-5 1,0 1,-1 3,-1 5,-2 2,-1 4,-4 1,-1 2,-1 3,-2 1,0 1,-1 2,-1 6,-5 3,-2 7,-4 2,-1 1,0 2,-2 1,-1 2,-2 3,-2 1,-1 3,-3 5,-4 2,-1 4,-2 5,-3 2,-3 2,-2 4,-3 1,-1 1,-1 2,-1 1,-1 4,-3 5,-4 3,-4 2,-3 6,-5l2 -1c1,-1 1,0 2,-2 1,-2 1,-2 2,-3l3 -2c2,-1 2,-2 5,-4 2,-1 2,0 4,-4 0,-1 1,0 0,-1 -1,1 -1,1 -2,1 -4,2 -3,4 -5,4l-3 2c0,0 0,0 -1,0 -1,1 -2,1 -4,3 0,0 0,0 0,0l-2 1c-2,0 -2,1 -4,3 0,0 0,0 0,0 0,0 0,0 0,0l-3 2c0,0 0,0 -1,0l-2 2c-1,1 -1,1 -2,1 -1,0 -2,1 -3,1 -2,1 -2,1 -3,2 0,0 0,0 -1,1 -1,1 1,0 -2,2 -3,2 -2,2 -4,4l-3 2c0,0 0,0 0,0l-1 0c0,0 0,0 0,1l-1 0c-5,2 -3,2 -5,3 -1,1 -2,2 -3,3 -2,0 -1,0 -3,1 -1,1 -2,2 -3,3l-2 1c-1,0 -2,1 -2,1 -1,1 -2,1 -2,2 -1,1 -2,1 -2,1l-1 1c0,1 0,0 0,1 -1,1 -2,3 -3,3l0 1c0,0 -1,0 -1,0 0,0 0,0 0,0 -1,1 -2,1 -3,2l-2 2c-1,1 -1,2 -2,2 -1,0 -1,0 -1,0 0,0 0,0 0,0l0 1c-1,0 -1,0 -2,1z"/>
      <path fill="#2B2A29" d="M644 347c0,0 0,0 1,0 1,-1 3,-1 4,-2 1,0 2,-2 4,-3 4,-2 3,-3 6,-5 1,0 2,0 3,-1 1,-1 5,-4 9,-6 1,0 1,0 2,-1 3,-1 7,-6 8,-7l4 -2c3,-1 1,-1 3,-3 0,-1 6,-3 9,-5 3,-3 1,-2 3,-4 2,-2 3,-2 4,-4 1,-1 1,-2 2,-2 1,0 2,-1 3,-1 0,-1 3,-3 4,-4l-1 -1c0,1 -1,1 -2,2 -1,1 -1,0 -4,3 -1,1 -1,1 -2,1 -2,1 -1,2 -2,2 -2,1 -4,2 -5,3 -1,0 -5,1 -6,2 0,0 0,3 -4,4 -1,0 -3,1 -4,2l-2 1c-2,1 -2,3 -4,4l-4 2 -1 2c-1,0 -1,0 -2,1 0,0 -1,1 -2,1 -1,1 -2,1 -2,1l-2 2c-3,2 -3,2 -5,3 -4,3 -2,1 -5,6 -1,2 -1,1 -3,2 -1,1 -1,1 -2,2 0,1 -1,2 -2,2 -1,0 0,0 -1,0 -1,1 -1,0 -2,2l0 1c-1,1 -1,0 0,0z"/>
      <path fill="#2B2A29" d="M705 278c-1,0 0,0 -1,0l-3 1c0,1 0,1 -1,1 0,1 0,1 -1,2 0,0 0,0 0,0 -1,0 0,0 -1,0 0,1 1,0 0,1 0,0 0,0 0,0 -1,0 -1,0 -1,0 -1,1 -1,1 -1,1 -1,0 -6,3 -6,3 -1,0 0,0 -1,0 -1,1 -1,1 -2,1 0,0 0,1 -1,1l0 0c-2,2 -2,2 -4,3 -3,2 -3,4 -6,5 -1,0 -4,1 -4,1 -1,1 -1,1 -1,1 -1,2 -3,3 -5,3 -1,2 -2,3 -3,4 -2,1 -2,2 -4,3l0 0c-1,0 -2,1 -4,2l-3 3c-1,1 -2,1 -3,2l-1 0c-3,4 -3,4 -6,5 -2,1 -3,3 -7,5 0,1 -1,2 -2,3 -1,3 -3,2 -6,5l-1 2c0,0 -1,0 -1,0 0,0 0,0 0,0 -1,1 -1,1 -2,1 -2,1 -1,3 -3,4 -2,1 -2,0 -3,2 -1,0 -2,2 -2,2 0,1 0,1 0,0l7 -5c1,-1 1,-1 2,-1l0 -1c0,0 0,0 0,0 0,0 0,0 1,0 1,0 1,-1 2,-2l2 -2c1,-1 2,-1 3,-2 0,0 0,0 0,0 0,0 1,0 1,0l0 -1c1,0 2,-2 3,-3 0,-1 0,0 0,-1l1 -1c0,0 1,0 2,-1 0,-1 1,-1 2,-2 0,0 1,-1 2,-1l2 -1c1,-1 2,-2 3,-3 2,-1 1,-1 3,-1 1,-1 2,-2 3,-3 2,-1 0,-1 5,-3l1 0c0,-1 0,-1 0,-1l1 0c0,0 0,0 0,0l3 -2c2,-2 1,-2 4,-4 3,-2 1,-1 2,-2 1,-1 1,-1 1,-1 1,-1 1,-1 3,-2 1,0 2,-1 3,-1 1,0 1,0 2,-1l2 -2c1,0 1,0 1,0l3 -2c0,0 0,0 0,0 0,0 0,0 0,0 2,-2 2,-3 4,-3l2 -1c0,0 0,0 0,0 2,-2 3,-2 4,-3 1,0 1,0 1,0l3 -2c2,0 1,-2 5,-4 1,0 1,0 2,-1 1,1 0,0 0,1 2,-1 3,-1 4,-3 2,-3 3,-3 3,-4 0,0 1,1 0,0 0,1 -3,2 -4,2 -2,1 -1,1 -3,2 -1,1 -1,1 -1,1z"/>
      <path fill="#2B2A29" d="M684 243c-1,0 -1,0 -1,0 0,1 0,1 -1,1 0,0 0,0 -1,0l-1 1 -1 2c-1,1 -2,1 -3,1 0,0 -5,2 -7,4 -2,2 -2,3 -6,4l-2 2 0 0c-1,1 -2,2 -3,2 -1,1 -1,1 -2,2 -1,1 -4,3 -6,3 -1,0 -1,0 -2,1 -1,0 -1,1 -2,2 -1,1 -2,2 -3,2 -4,2 -5,5 -7,6 -1,0 -3,1 -4,1l-1 1c0,0 -1,2 -1,2 -1,1 -2,1 -3,1 -2,1 -3,4 -4,4 -3,4 -5,3 -7,5 0,1 -1,2 -2,3 -1,1 -1,2 -3,2 -1,1 -2,1 -3,1 0,1 0,1 0,1 0,0 0,0 -1,1 0,0 0,0 0,0 -1,3 -5,4 -6,5 -1,0 -1,2 -2,3 -1,0 -2,1 -3,2 -1,0 -1,1 -1,1 -1,1 -1,1 -1,2 -1,0 0,0 -1,0 0,1 0,1 -1,1 0,0 0,0 -1,1 1,0 4,-1 4,-1 0,-1 0,0 0,-1l1 -1c1,-3 2,-2 4,-4 1,-1 2,-1 2,-3 1,0 1,0 2,0l1 -1c1,0 1,0 1,0 1,-1 1,-1 2,-2 1,-3 0,-2 3,-3l1 -1c1,0 1,0 2,-1 0,0 0,0 0,0l2 -3c1,0 1,0 1,-1 1,-1 2,-1 4,-2 1,-1 2,-2 3,-3 0,-1 -1,0 0,-1l1 -1c1,-1 2,-2 4,-2 1,0 1,0 1,0 1,-1 0,0 1,-1 0,-1 0,0 1,-1 0,0 0,-1 1,-1 1,-1 0,-1 1,-1 1,0 3,0 3,-1 1,-1 3,-3 4,-3l4 -3c1,0 1,0 2,-1 2,-2 0,-2 3,-3 1,0 0,0 1,0 0,0 0,0 0,0l5 -3c1,-1 1,-1 2,-2 1,0 2,0 2,-1 0,0 1,0 1,0 0,0 0,0 0,0 1,-1 -1,1 0,0 1,-1 2,-2 3,-2 1,-2 2,-1 3,-2l1 -1c1,-1 2,-3 3,-4l0 0c0,0 1,0 1,0 2,-1 3,-2 5,-3 1,0 1,0 2,-1 0,0 0,0 0,0 0,0 0,0 0,0l1 -1c1,-1 2,-1 4,-2 0,0 0,0 0,0 1,-1 3,-1 4,-2 1,-1 3,-2 3,-3 -1,0 -2,2 -4,2 -1,1 -2,1 -3,1z"/>
      <path fill="#2B2A29" d="M708 297c0,1 -1,1 -2,2 0,0 -4,3 -4,3 -2,1 -4,2 -6,3 -1,1 -5,2 -5,3 -2,2 -1,3 -4,4 -1,0 -2,1 -3,1 -1,0 -2,1 -2,1l-2 0c0,1 -1,2 -1,2 -1,1 -1,1 -1,2 -1,1 -1,1 -2,1 0,0 -1,1 -2,1 0,0 -1,0 -1,1 -1,0 0,0 -1,0 0,1 -1,1 -1,2 -1,0 -2,1 -2,1 -1,0 0,0 -1,1 -2,1 -5,3 -7,4 0,0 -3,2 -4,3 -4,3 -3,4 -4,4 0,2 -2,2 -2,3 -1,0 -1,0 -2,1 0,0 -1,1 -1,2 -1,1 -2,1 -3,1 -1,0 -2,0 -2,1 -1,1 -1,3 -1,3 -1,1 -3,2 -4,2 0,0 0,1 -1,1 0,1 0,2 0,2 0,1 0,0 0,0 2,-1 6,-4 7,-5 -1,0 -1,1 0,0l0 -1c1,-2 1,-1 2,-2 1,0 0,0 1,0 1,0 2,-1 2,-2 1,-1 1,-1 2,-2 2,-1 2,0 3,-2 3,-5 1,-3 5,-6 2,-1 2,-1 5,-3l2 -2c0,0 1,0 2,-1 1,0 2,-1 2,-1 1,-1 1,-1 2,-1l1 -2 4 -2c2,-1 2,-3 4,-4l2 -1c1,-1 3,-2 4,-2 4,-1 4,-4 4,-4 1,-1 5,-2 6,-2 1,-1 3,-2 5,-3 1,0 0,-1 2,-2 1,0 1,0 2,-1 3,-3 3,-2 4,-3 1,-1 2,-1 2,-2l1 1c0,0 0,-1 0,-1 1,-1 1,-1 0,-1l0 0c-1,0 -2,0 -3,1 0,0 -1,1 -2,1z"/>
     </g>
    </g>
   </g>
   <path fill="#2B2A29" fill-rule="nonzero" d="M659 230c-11,0 -20,1 -27,3 -6,1 -10,4 -12,9 -2,6 -4,14 -5,25 1,2 1,3 1,6l0 44c0,15 1,26 5,32 3,4 7,7 12,8 6,1 14,1 25,2 11,-1 20,-1 25,-3 6,-1 10,-4 13,-7 2,-3 3,-7 5,-12 1,-5 1,-11 1,-17l0 -49 0 -7c0,-12 -2,-20 -6,-25 -4,-5 -10,-7 -19,-8 -6,-1 -12,-1 -18,-1zm0 -30c9,0 18,0 27,1 8,1 16,2 24,5 7,3 13,7 17,13 2,2 4,7 7,14 3,8 4,18 4,33l0 60c0,11 -1,20 -3,26 -2,6 -5,12 -9,17 -4,6 -10,11 -18,14 -8,2 -16,4 -24,5 -8,0 -18,1 -30,1 -14,0 -26,-1 -36,-3 -10,-2 -18,-7 -24,-13 -9,-10 -14,-27 -14,-53l0 -51c0,-10 1,-20 2,-28 2,-9 5,-16 9,-23 4,-5 10,-9 17,-12 8,-3 15,-5 23,-5 8,-1 17,-1 28,-1z"/>
   <g clip-path="url(#id4)">
    <g>
     <g>
      <path id="1" fill="#2B2A29" d="M724 240c-1,1 -1,2 -2,2 -1,0 -1,0 -2,1 -1,0 -2,1 -3,1 0,1 0,1 0,1 -1,0 -1,0 -1,0 -1,1 -2,1 -3,1 -2,0 -2,1 -3,1 0,1 -1,1 -2,2 -1,0 -1,1 -2,1 0,0 -1,1 -2,2 -1,1 -1,1 -2,2 -1,1 -3,2 -5,2 0,0 0,0 0,0 -1,0 -1,0 -1,0l0 0c-1,0 -1,0 -1,1 -1,0 -1,0 -2,0l-2 2c0,1 0,1 -1,2 0,1 0,1 -1,1 -1,0 -2,1 -3,1 -1,1 -2,1 -3,2 -1,0 -1,1 -2,1 -1,1 -2,2 -3,2 0,0 0,0 0,0 -1,1 -1,0 -1,1 0,0 -2,1 -3,2 -1,1 -2,2 -2,2 -1,1 -1,1 -2,1l-1 1c-6,3 -6,5 -9,6 -1,0 -3,2 -4,2l-1 0c0,1 -1,2 -2,2 0,1 0,0 -1,1l-1 0c0,1 0,0 0,1 -1,0 -1,0 -1,0 -1,1 -1,1 -1,2 0,0 0,0 -1,0 0,0 0,0 0,0 0,1 0,1 -1,1 -1,1 -2,2 -2,3 -4,3 -1,1 -4,2 -2,2 -3,3 -3,3 -1,1 -1,2 -2,2l-1 1 -3 1c0,1 -1,2 -2,2 -2,1 -2,1 -4,2 -1,1 -1,1 -2,1l0 1c0,0 0,0 0,0 -1,2 -2,3 -3,4 -3,2 -5,4 -8,5 -1,1 -3,2 -4,3 -1,1 -2,3 -2,3 -1,0 0,0 -1,0 0,1 0,1 0,1 -1,0 -2,1 -3,1 0,1 0,0 0,1 -1,0 -1,0 -1,0 0,1 -1,2 -2,2 0,2 -2,3 -3,4 -1,1 -1,1 -2,2 -1,0 -1,1 -2,2l-1 1c0,1 0,0 1,-1 1,0 1,0 2,0 1,-1 3,-1 3,-2 0,-1 1,0 1,-1 0,0 0,0 1,0 2,-3 1,-4 4,-6 3,-2 3,-1 5,-5 1,0 3,-2 4,-2 1,-1 1,-1 2,-1 2,-2 6,-5 8,-6 0,-1 1,-1 1,-2 1,-2 1,-3 3,-4l6 -3c0,0 0,0 0,0 5,-2 5,-4 7,-5l1 -1c1,-1 0,0 1,-1l2 -2c2,-1 4,-3 6,-5 0,0 1,0 1,-1l5 -3c0,0 0,0 0,-1l2 -1c0,0 0,0 0,0l0 0c2,-1 3,-2 5,-3 2,-1 1,-2 4,-3 1,-1 1,-1 3,-1 0,-1 0,-1 0,-1 0,0 0,0 0,0 3,-1 3,-2 6,-4 1,-1 1,-1 2,-2 1,0 1,-1 2,-1 2,-1 3,-2 5,-3 0,0 1,0 1,-1 0,0 1,0 1,0l2 -1c1,-1 2,0 3,-2 1,-2 0,-2 2,-3l1 0c0,0 0,0 0,0l1 -1c2,-1 4,0 6,-2 1,0 0,0 1,-1 0,0 0,0 1,0 1,-1 1,-1 1,-2 0,0 0,0 0,0 0,0 0,0 0,0 0,0 0,0 1,0 0,0 0,0 0,0 0,0 0,0 0,0l1 -1c2,-1 2,-1 3,-2l2 -1c1,-1 2,-2 4,-2 1,0 1,0 2,-1 2,2 0,0 0,1 2,-2 1,-3 4,-4 1,0 2,-1 3,-2 0,-1 0,0 0,-1 -1,0 0,0 -1,0z"/>
      <path fill="#2B2A29" d="M724 241c0,1 -1,1 -2,1 -1,1 -1,1 -2,1 -1,0 -2,1 -3,2 0,0 0,0 0,0 -1,1 -1,0 -1,0 -1,1 -2,1 -3,1 -2,1 -2,1 -3,2 0,1 -1,1 -2,1 -1,1 -1,1 -2,1 0,0 -1,2 -2,2 -1,1 -1,2 -2,2 -1,1 -4,3 -5,2 0,0 0,0 -1,0 0,0 0,0 0,0l0 1c-1,0 -1,0 -1,0 -1,1 -1,1 -2,1l-2 2c0,0 -1,1 -1,2 0,0 0,0 -1,1 -1,0 -3,0 -3,0 -1,1 -2,2 -3,2 -1,1 -2,1 -3,2 0,0 -1,1 -2,1 0,0 0,0 -1,1 0,0 0,0 0,0 -1,1 -2,2 -3,3 -1,0 -2,1 -2,2 -1,1 -1,1 -2,1l-1 0c-7,3 -6,5 -9,6 -1,1 -3,2 -4,2l-1 1c0,0 -1,1 -2,2 -1,0 0,0 -1,0l-1 1c0,0 0,0 0,1 -1,0 -1,0 -1,0 -1,1 -1,1 -1,1 -1,0 -1,0 -1,0 0,1 0,1 0,1 -1,0 -1,0 -1,1 -1,1 -2,1 -3,2 -3,3 -1,1 -3,3 -2,1 -3,2 -4,3 0,1 0,1 -1,1l-1 1 -3 2c0,1 -1,1 -2,2 -2,1 -2,1 -5,2 -1,0 -1,0 -1,1l0 0c-1,0 -1,1 -1,1 0,2 -1,3 -2,4 -3,1 -6,4 -8,5 -2,1 -3,2 -4,3 -1,1 -2,2 -3,3 0,0 0,0 0,0 0,0 0,0 -1,0 0,1 -2,2 -2,2 -1,0 0,0 -1,1 0,0 0,0 -1,0 0,0 -1,1 -1,1 -1,3 -2,4 -3,5 -1,1 -2,1 -2,1 -1,1 -2,2 -2,2l-1 1c0,1 0,1 1,0 0,0 1,0 2,-1 1,0 2,0 3,-1 0,-1 0,-1 1,-1 0,0 0,0 0,-1 2,-2 1,-3 5,-5 3,-3 3,-1 5,-5 1,-1 3,-3 4,-3 1,0 1,0 2,-1 2,-1 6,-4 7,-5 1,-1 1,-1 2,-2 1,-3 1,-3 3,-4l6 -3c0,-1 -1,0 0,-1 5,-2 5,-4 7,-5l1 -1c0,0 0,0 0,0l3 -2c2,-2 4,-3 5,-5 1,-1 1,-1 2,-1l4 -4c1,0 1,0 1,0l2 -1c0,0 0,0 0,0l0 -1c2,-1 3,-1 5,-2 1,-1 1,-2 3,-3 2,-1 2,-1 4,-2 0,0 0,0 0,0 0,0 0,0 0,0 3,-2 3,-2 6,-5 1,0 1,-1 2,-1 1,-1 1,-1 2,-2 2,-1 3,-1 5,-2 0,-1 0,-1 1,-1 0,0 0,-1 1,-1l2 -1c1,0 2,0 3,-2 0,-2 0,-1 2,-2l1 -1c0,0 0,0 0,0l1 -1c2,0 4,1 6,-1 1,-1 0,-1 1,-1 0,-1 0,0 1,-1 1,0 1,-1 1,-1 0,0 0,0 0,0 0,0 0,0 0,0 0,-1 0,-1 0,-1 1,0 1,0 1,0 0,0 0,0 0,0l1 -1c1,-1 2,-1 3,-2l2 -1c1,-1 2,-1 4,-1 1,-1 1,0 2,-1 2,1 0,-1 0,0 2,-2 1,-2 4,-3 1,-1 2,-1 3,-3 0,0 0,0 0,0 0,0 0,0 -1,0z"/>
      <path fill="#2B2A29" d="M705 278c-1,1 0,0 -1,1l-3 1c0,0 0,0 -1,1 0,1 0,1 -1,1 0,0 0,1 0,1 -1,0 0,0 -1,0 0,0 0,0 0,0 0,0 0,1 0,1 -1,0 -1,0 -1,0 -1,0 -1,0 -1,0 -2,1 -6,3 -6,3 -1,1 0,1 -1,1 -1,0 -1,0 -2,1 0,0 0,0 -1,1l0 0c-2,2 -2,2 -4,3 -3,1 -3,3 -7,5 -1,0 -3,1 -4,1 0,0 0,0 -1,1 -1,1 -2,2 -4,3 -2,1 -2,2 -4,4 -1,1 -1,2 -3,2l0 0c-1,1 -2,2 -4,3l-3 2c-1,2 -2,2 -4,2l0 0c-3,4 -3,5 -6,6 -3,1 -3,3 -7,5 -1,1 -1,2 -2,3 -2,2 -3,2 -6,5l-2 2c0,0 0,0 0,0 0,0 0,0 -1,0 0,0 0,0 -1,1 -2,1 -1,3 -4,4 -1,0 -2,0 -3,1 0,1 -1,2 -2,3 1,1 0,0 1,0l7 -5c1,-1 1,-1 1,-2l1 0c0,0 0,0 0,0 0,0 0,0 0,0 1,-1 2,-1 3,-2l2 -3c1,0 2,-1 3,-1 0,0 0,0 0,0 0,0 0,0 0,0l1 -1c1,0 2,-2 2,-3 1,-2 0,0 0,-1l1 -1c1,0 1,0 2,-1 1,-1 2,-1 2,-2 1,-1 2,-1 3,-1l2 -2c1,-1 2,-1 3,-2 1,-2 1,-1 2,-2 2,0 2,-1 4,-2 2,-2 0,-1 5,-4l0 0c0,0 0,0 1,0l0 0c0,0 1,0 1,0l3 -3c2,-2 0,-2 4,-4 2,-1 0,0 2,-2 1,0 1,0 1,0 1,-2 1,-2 3,-2 1,-1 2,-1 3,-1 1,0 1,-1 2,-2l2 -1c1,-1 1,-1 1,-1l3 -1c0,0 0,0 0,0 0,0 0,0 0,0 2,-2 2,-4 4,-4l2 -1c0,0 0,0 0,0 2,-1 3,-1 4,-2 1,0 1,0 1,0l3 -2c2,-1 1,-2 5,-4 1,-1 1,0 2,-1 1,1 0,-1 0,0 2,-1 3,-1 4,-3 2,-3 3,-2 3,-3 0,0 1,0 0,0 0,0 -3,1 -4,2 -2,0 -2,0 -3,2 -1,0 -1,0 -1,0z"/>
      <path fill="#2B2A29" d="M683 243c0,1 0,1 0,1 0,0 0,0 -1,0 0,1 0,1 -1,1l-1 1 -2 1c0,1 -1,1 -2,1 0,1 -5,3 -7,4 -2,2 -2,4 -6,4l-2 3 0 0c-1,1 -2,1 -3,2 -1,0 -1,1 -2,1 -2,1 -4,3 -6,3 -1,1 -2,1 -2,1 -1,1 -1,2 -2,2 -1,2 -3,2 -4,3 -3,2 -5,4 -6,5 -1,1 -4,1 -5,2l0 0c0,1 -1,2 -2,3 0,1 -2,0 -2,1 -2,0 -4,3 -5,4 -2,4 -4,2 -6,4 -1,1 -2,2 -2,4 -1,1 -2,2 -3,2 -1,0 -2,1 -3,1 0,0 0,0 -1,1 0,0 0,0 0,0 0,1 0,0 0,1 -1,3 -5,3 -6,4 -1,1 -2,2 -3,3 0,1 -1,1 -3,2 0,1 0,1 -1,2 0,1 0,1 -1,1 0,1 0,1 0,1 -1,0 -1,0 -1,0 0,1 -1,1 -1,1 1,0 3,0 4,-1 0,0 0,1 0,0l0 -1c2,-3 3,-2 5,-5 1,-1 1,-1 2,-2 0,0 1,0 2,-1l1 0c0,0 0,0 1,0 0,-1 1,-2 1,-2 2,-3 1,-2 4,-3l1 -1c0,0 1,0 1,-1 1,0 1,0 1,0l2 -3c0,-1 0,-1 1,-1 1,-2 2,-2 4,-3 1,0 2,-1 2,-3 1,-1 0,1 1,0l1 -1c1,-1 2,-2 3,-2 1,0 1,0 2,-1 1,0 0,0 1,-1 0,-1 0,0 0,0 1,0 1,-1 2,-2 0,0 0,0 1,0 1,0 2,-1 3,-1 1,-2 2,-3 3,-4l4 -2c1,-1 2,-1 2,-2 2,-2 1,-2 4,-3 0,0 0,0 0,0 1,0 1,0 1,0l5 -2c1,-1 1,-1 2,-2 1,-1 2,-1 2,-1 0,0 0,0 0,0 0,0 0,0 1,0 1,-1 -1,1 0,-1 1,0 2,-2 3,-1 0,-3 1,-2 3,-3l1 -1c1,-1 2,-2 3,-3l0 0c0,-1 0,-1 1,-1 2,-1 3,-2 5,-2 1,0 1,0 2,-1 0,0 0,0 0,0 0,0 0,0 0,0l1 -1c1,-1 2,-2 3,-3 0,0 1,0 1,0 1,0 2,-1 4,-1 1,-1 2,-3 3,-4 -1,1 -3,2 -4,3 -1,0 -2,0 -4,0z"/>
      <path fill="#2B2A29" d="M708 298c0,0 -1,1 -2,1 0,1 -4,4 -4,4 -2,1 -4,2 -6,3 -1,1 -5,2 -5,2 -2,3 -1,3 -4,4 -1,1 -2,1 -3,1 -1,1 -2,1 -3,1l-1 1c0,1 -1,2 -1,2 -1,1 -1,1 -1,2 -1,0 -1,0 -2,0 0,1 -1,1 -2,2 -1,0 -1,0 -1,0 -1,1 0,1 -1,1 -1,0 -1,1 -2,1 0,1 -1,1 -1,1 -1,1 -1,1 -1,1 -2,1 -5,4 -7,4 0,1 -3,3 -4,4 -4,3 -3,3 -4,4 0,1 -2,2 -3,2 0,1 0,1 -1,1 0,1 -1,2 -2,2 0,1 -1,1 -2,2 -1,0 -2,0 -2,1 -1,1 -1,2 -2,3 0,1 -2,2 -3,2 0,0 0,1 -1,1 0,1 0,1 -1,2 1,0 0,0 1,0 2,-1 6,-4 6,-5 0,-1 0,0 0,0l1 -2c0,-1 1,0 2,-1 1,0 0,0 1,0 1,-1 2,-1 2,-2 1,-1 1,-2 2,-2 2,-2 1,0 2,-2 4,-5 2,-3 6,-6 2,-1 2,-2 4,-3l3 -2c0,0 1,0 2,-1 1,-1 1,-1 2,-2 1,0 1,0 1,-1l2 -1 4 -2c2,-1 2,-3 4,-4l2 -2c1,0 3,-1 4,-1 4,-1 4,-4 4,-5 1,0 4,-2 6,-2 1,0 3,-2 5,-2 1,-1 0,-1 2,-2 1,-1 1,-1 2,-2 3,-3 3,-1 4,-3 1,-1 2,0 2,-1l1 0c0,0 0,0 0,0 1,-1 1,-1 0,-1l0 0c-1,0 -2,0 -3,0 0,1 -1,2 -2,2z"/>
      <path fill="#2B2A29" d="M598 334c3,0 4,-3 8,-5 1,-1 7,-4 8,-5 3,0 3,-1 6,-2l4 -3c1,0 1,-1 2,-1 2,-2 6,-3 8,-6 2,-3 4,-3 7,-5 2,-1 3,-2 5,-3l3 -2c5,-4 3,-2 7,-6 2,-2 1,-1 4,-2 2,0 2,0 2,-1 1,-2 2,-3 3,-4 3,-3 4,-1 6,-4 4,-3 4,-2 7,-6 3,-2 7,-4 8,-5 2,-2 1,-2 4,-3 3,-1 1,-2 5,-5 0,0 1,-1 2,-1 1,-1 3,-1 4,-2 3,-6 4,-5 9,-8 0,0 1,-1 2,-2 1,-1 2,-3 5,-4 1,-1 1,-1 1,-2 0,-1 2,1 0,-1 -1,1 -1,1 -2,1 -2,0 -3,1 -4,2l-2 1c-1,1 -1,1 -3,2l-1 1c0,0 0,0 0,0 0,0 0,0 0,0 -1,0 -1,0 -1,0 0,0 0,0 0,0 0,0 0,0 0,0 0,1 0,1 -1,2 -1,0 -1,0 -1,0 -1,1 0,1 -1,1 -2,2 -4,1 -6,2l-1 1c0,0 0,0 0,0l-1 0c-2,1 -1,1 -2,3 -1,2 -2,1 -3,2l-2 1c0,0 -1,0 -1,0 0,1 -1,1 -1,1 -2,1 -3,2 -5,3 -1,0 -1,1 -2,1 -1,1 -1,1 -2,2 -3,2 -3,3 -6,4 0,0 0,0 0,0 0,0 0,0 0,1 -2,0 -2,0 -3,1 -3,1 -2,2 -4,3 -2,1 -3,2 -5,3l0 0c0,0 0,0 0,0l-2 1c0,1 0,1 0,1l-5 3c0,1 -1,1 -1,1 -2,2 -4,4 -6,5l-2 2c-1,1 0,0 -1,1l-1 1c-2,1 -2,3 -7,5 0,0 0,0 0,0l-6 3c-2,1 -2,2 -3,4 0,1 -1,1 -1,2 -2,1 -6,4 -8,6 -1,0 -1,0 -2,1 -1,0 -3,2 -4,2 -2,4 -2,3 -5,5 -3,2 -2,3 -4,6 -1,0 -1,0 -1,0 0,1 -1,0 -1,1z"/>
      <path fill="#2B2A29" d="M595 312c2,-1 2,-1 3,-2 1,-1 2,-2 3,-3 1,0 1,0 2,-1 2,-1 4,-1 5,-2 2,-1 1,-2 5,-4 7,-3 5,-1 8,-5 1,-2 2,-1 6,-4 1,0 3,-1 5,-2 0,-1 1,-3 2,-3 1,-1 3,-1 3,-2 1,0 4,-3 6,-5 3,-1 2,0 6,-3 3,-3 2,-3 5,-5 3,-1 4,-2 6,-4 3,-3 5,-3 9,-6 2,-2 4,-5 5,-6 1,0 2,-1 3,-2 2,-1 1,-3 6,-5l2 -2c2,0 2,-2 3,-3 -1,1 -3,1 -4,2 0,0 0,0 0,0 -2,1 -3,1 -4,2l-1 1c0,0 0,0 0,0 0,0 0,0 0,0 -1,1 -1,1 -2,1 -2,1 -3,2 -5,3 0,0 -1,0 -1,0l0 0c-1,1 -2,3 -3,4l-1 1c-1,1 -2,0 -3,2 -1,0 -2,1 -3,2 -1,1 1,-1 0,0 0,0 0,0 0,0 0,0 -1,0 -1,0 0,1 -1,1 -2,1 -1,1 -1,1 -2,2l-5 3c0,0 0,0 0,0 -1,0 0,0 -1,0 -3,1 -1,1 -3,3 -1,1 -1,1 -2,1l-4 3c-1,0 -3,2 -4,3 0,1 -2,1 -3,1 -1,0 0,0 -1,1 -1,0 -1,1 -1,1 -1,1 -1,0 -1,1 -1,1 0,0 -1,1 0,0 0,0 -1,0 -2,0 -3,1 -4,2l-1 1c-1,1 0,0 0,1 -1,1 -2,2 -3,3 -2,1 -3,1 -4,2 0,1 0,1 -1,1l-2 3c0,0 0,0 0,0 -1,1 -1,1 -2,1l-1 1c-3,1 -2,0 -3,3 -1,1 -1,1 -2,2 0,0 0,0 -1,0l-1 1c-1,0 -1,0 -2,0 0,2 -1,2 -2,3 -2,2 -3,1 -4,4l-1 1c0,1 0,0 0,1z"/>
      <path fill="#2B2A29" d="M622 340c2,0 2,0 4,-1 1,0 2,0 3,-1l3 -1c2,-3 2,-3 5,-5 1,0 1,-1 3,-1 5,-2 2,-1 4,-4 1,-1 2,-1 3,-2 1,0 1,-1 2,-1 6,-5 3,-2 7,-4 2,-1 1,0 2,-2 1,-1 2,-2 3,-2 1,-1 3,-3 5,-4 2,-1 4,-2 5,-3 2,-3 2,-2 4,-3 1,-1 1,-1 2,-1 1,-1 4,-3 5,-4 3,-4 2,-3 6,-5l2 -1c1,-1 1,0 2,-2 1,-2 1,-2 2,-3l3 -2c2,-1 2,-2 5,-4 2,-1 2,0 4,-4 0,-1 1,0 0,-1 -1,1 -1,1 -2,1 -4,2 -3,4 -5,4l-3 2c0,0 0,0 -1,0 -1,1 -2,1 -4,3 0,0 0,0 0,0l-2 1c-2,0 -2,1 -4,3 0,0 0,0 0,0 0,0 0,0 0,0l-3 2c0,0 0,0 -1,0l-2 2c-1,1 -1,1 -2,1 -1,0 -2,1 -3,1 -2,1 -2,1 -3,2 0,0 0,0 -1,1 -1,1 1,0 -2,2 -3,2 -2,2 -4,4l-3 2c0,0 0,0 0,0l-1 0c0,0 0,0 0,1l-1 0c-5,2 -3,2 -5,3 -1,1 -2,2 -3,3 -2,0 -1,0 -3,1 -1,1 -2,2 -3,3l-2 1c-1,0 -2,1 -2,1 -1,1 -2,1 -2,2 -1,1 -2,1 -2,1l-1 1c0,1 0,0 0,1 -1,1 -2,3 -3,3l0 1c0,0 -1,0 -1,0 0,0 0,0 0,0 -1,1 -2,1 -3,2l-2 2c-1,1 -1,2 -2,2 -1,0 -1,0 -1,0 0,0 0,0 0,0l0 1c-1,0 -1,0 -2,1z"/>
      <path fill="#2B2A29" d="M644 347c0,0 0,0 1,0 1,-1 3,-1 4,-2 1,0 2,-2 4,-3 4,-2 3,-3 6,-5 1,0 2,0 3,-1 1,-1 5,-4 9,-6 1,0 1,0 2,-1 3,-1 7,-6 8,-7l4 -2c3,-1 1,-1 3,-3 0,-1 6,-3 9,-5 3,-3 1,-2 3,-4 2,-2 3,-2 4,-4 1,-1 1,-2 2,-2 1,0 2,-1 3,-1 0,-1 3,-3 4,-4l-1 -1c0,1 -1,1 -2,2 -1,1 -1,0 -4,3 -1,1 -1,1 -2,1 -2,1 -1,2 -2,2 -2,1 -4,2 -5,3 -1,0 -5,1 -6,2 0,0 0,3 -4,4 -1,0 -3,1 -4,2l-2 1c-2,1 -2,3 -4,4l-4 2 -1 2c-1,0 -1,0 -2,1 0,0 -1,1 -2,1 -1,1 -2,1 -2,1l-2 2c-3,2 -3,2 -5,3 -4,3 -2,1 -5,6 -1,2 -1,1 -3,2 -1,1 -1,1 -2,2 0,1 -1,2 -2,2 -1,0 0,0 -1,0 -1,1 -1,0 -2,2l0 1c-1,1 -1,0 0,0z"/>
      <path fill="#2B2A29" d="M705 278c-1,0 0,0 -1,0l-3 1c0,1 0,1 -1,1 0,1 0,1 -1,2 0,0 0,0 0,0 -1,0 0,0 -1,0 0,1 1,0 0,1 0,0 0,0 0,0 -1,0 -1,0 -1,0 -1,1 -1,1 -1,1 -1,0 -6,3 -6,3 -1,0 0,0 -1,0 -1,1 -1,1 -2,1 0,0 0,1 -1,1l0 0c-2,2 -2,2 -4,3 -3,2 -3,4 -6,5 -1,0 -4,1 -4,1 -1,1 -1,1 -1,1 -1,2 -3,3 -5,3 -1,2 -2,3 -3,4 -2,1 -2,2 -4,3l0 0c-1,0 -2,1 -4,2l-3 3c-1,1 -2,1 -3,2l-1 0c-3,4 -3,4 -6,5 -2,1 -3,3 -7,5 0,1 -1,2 -2,3 -1,3 -3,2 -6,5l-1 2c0,0 -1,0 -1,0 0,0 0,0 0,0 -1,1 -1,1 -2,1 -2,1 -1,3 -3,4 -2,1 -2,0 -3,2 -1,0 -2,2 -2,2 0,1 0,1 0,0l7 -5c1,-1 1,-1 2,-1l0 -1c0,0 0,0 0,0 0,0 0,0 1,0 1,0 1,-1 2,-2l2 -2c1,-1 2,-1 3,-2 0,0 0,0 0,0 0,0 1,0 1,0l0 -1c1,0 2,-2 3,-3 0,-1 0,0 0,-1l1 -1c0,0 1,0 2,-1 0,-1 1,-1 2,-2 0,0 1,-1 2,-1l2 -1c1,-1 2,-2 3,-3 2,-1 1,-1 3,-1 1,-1 2,-2 3,-3 2,-1 0,-1 5,-3l1 0c0,-1 0,-1 0,-1l1 0c0,0 0,0 0,0l3 -2c2,-2 1,-2 4,-4 3,-2 1,-1 2,-2 1,-1 1,-1 1,-1 1,-1 1,-1 3,-2 1,0 2,-1 3,-1 1,0 1,0 2,-1l2 -2c1,0 1,0 1,0l3 -2c0,0 0,0 0,0 0,0 0,0 0,0 2,-2 2,-3 4,-3l2 -1c0,0 0,0 0,0 2,-2 3,-2 4,-3 1,0 1,0 1,0l3 -2c2,0 1,-2 5,-4 1,0 1,0 2,-1 1,1 0,0 0,1 2,-1 3,-1 4,-3 2,-3 3,-3 3,-4 0,0 1,1 0,0 0,1 -3,2 -4,2 -2,1 -1,1 -3,2 -1,1 -1,1 -1,1z"/>
      <path fill="#2B2A29" d="M684 243c-1,0 -1,0 -1,0 0,1 0,1 -1,1 0,0 0,0 -1,0l-1 1 -1 2c-1,1 -2,1 -3,1 0,0 -5,2 -7,4 -2,2 -2,3 -6,4l-2 2 0 0c-1,1 -2,2 -3,2 -1,1 -1,1 -2,2 -1,1 -4,3 -6,3 -1,0 -1,0 -2,1 -1,0 -1,1 -2,2 -1,1 -2,2 -3,2 -4,2 -5,5 -7,6 -1,0 -3,1 -4,1l-1 1c0,0 -1,2 -1,2 -1,1 -2,1 -3,1 -2,1 -3,4 -4,4 -3,4 -5,3 -7,5 0,1 -1,2 -2,3 -1,1 -1,2 -3,2 -1,1 -2,1 -3,1 0,1 0,1 0,1 0,0 0,0 -1,1 0,0 0,0 0,0 -1,3 -5,4 -6,5 -1,0 -1,2 -2,3 -1,0 -2,1 -3,2 -1,0 -1,1 -1,1 -1,1 -1,1 -1,2 -1,0 0,0 -1,0 0,1 0,1 -1,1 0,0 0,0 -1,1 1,0 4,-1 4,-1 0,-1 0,0 0,-1l1 -1c1,-3 2,-2 4,-4 1,-1 2,-1 2,-3 1,0 1,0 2,0l1 -1c1,0 1,0 1,0 1,-1 1,-1 2,-2 1,-3 0,-2 3,-3l1 -1c1,0 1,0 2,-1 0,0 0,0 0,0l2 -3c1,0 1,0 1,-1 1,-1 2,-1 4,-2 1,-1 2,-2 3,-3 0,-1 -1,0 0,-1l1 -1c1,-1 2,-2 4,-2 1,0 1,0 1,0 1,-1 0,0 1,-1 0,-1 0,0 1,-1 0,0 0,-1 1,-1 1,-1 0,-1 1,-1 1,0 3,0 3,-1 1,-1 3,-3 4,-3l4 -3c1,0 1,0 2,-1 2,-2 0,-2 3,-3 1,0 0,0 1,0 0,0 0,0 0,0l5 -3c1,-1 1,-1 2,-2 1,0 2,0 2,-1 0,0 1,0 1,0 0,0 0,0 0,0 1,-1 -1,1 0,0 1,-1 2,-2 3,-2 1,-2 2,-1 3,-2l1 -1c1,-1 2,-3 3,-4l0 0c0,0 1,0 1,0 2,-1 3,-2 5,-3 1,0 1,0 2,-1 0,0 0,0 0,0 0,0 0,0 0,0l1 -1c1,-1 2,-1 4,-2 0,0 0,0 0,0 1,-1 3,-1 4,-2 1,-1 3,-2 3,-3 -1,0 -2,2 -4,2 -1,1 -2,1 -3,1z"/>
      <path fill="#2B2A29" d="M708 297c0,1 -1,1 -2,2 0,0 -4,3 -4,3 -2,1 -4,2 -6,3 -1,1 -5,2 -5,3 -2,2 -1,3 -4,4 -1,0 -2,1 -3,1 -1,0 -2,1 -2,1l-2 0c0,1 -1,2 -1,2 -1,1 -1,1 -1,2 -1,1 -1,1 -2,1 0,0 -1,1 -2,1 0,0 -1,0 -1,1 -1,0 0,0 -1,0 0,1 -1,1 -1,2 -1,0 -2,1 -2,1 -1,0 0,0 -1,1 -2,1 -5,3 -7,4 0,0 -3,2 -4,3 -4,3 -3,4 -4,4 0,2 -2,2 -2,3 -1,0 -1,0 -2,1 0,0 -1,1 -1,2 -1,1 -2,1 -3,1 -1,0 -2,0 -2,1 -1,1 -1,3 -1,3 -1,1 -3,2 -4,2 0,0 0,1 -1,1 0,1 0,2 0,2 0,1 0,0 0,0 2,-1 6,-4 7,-5 -1,0 -1,1 0,0l0 -1c1,-2 1,-1 2,-2 1,0 0,0 1,0 1,0 2,-1 2,-2 1,-1 1,-1 2,-2 2,-1 2,0 3,-2 3,-5 1,-3 5,-6 2,-1 2,-1 5,-3l2 -2c0,0 1,0 2,-1 1,0 2,-1 2,-1 1,-1 1,-1 2,-1l1 -2 4 -2c2,-1 2,-3 4,-4l2 -1c1,-1 3,-2 4,-2 4,-1 4,-4 4,-4 1,-1 5,-2 6,-2 1,-1 3,-2 5,-3 1,0 0,-1 2,-2 1,0 1,0 2,-1 3,-3 3,-2 4,-3 1,-1 2,-1 2,-2l1 1c0,0 0,-1 0,-1 1,-1 1,-1 0,-1l0 0c-1,0 -2,0 -3,1 0,0 -1,1 -2,1z"/>
     </g>
    </g>
   </g>
   <path fill="#2B2A29" fill-rule="nonzero" d="M175 442l0 18 -11 0 0 -56 24 0c5,0 9,1 12,2 3,0 5,2 6,5 2,3 2,7 2,12 0,7 -1,12 -3,15 -1,1 -3,2 -6,3 -2,1 -5,1 -8,1l-16 0zm0 -9l13 0c4,0 7,-1 8,-2 1,0 1,-1 2,-2 0,-1 0,-3 0,-5 0,-4 0,-6 -1,-8 -1,-1 -2,-1 -3,-2 -1,0 -3,0 -5,0l-14 0 0 19z"/>
   <path id="1" fill="#2B2A29" fill-rule="nonzero" d="M241 414l-15 0 0 18 15 0c2,0 4,0 5,0 1,0 1,-1 2,-2 1,-1 2,-4 2,-7 0,-4 -1,-6 -1,-7 -1,-1 -2,-2 -3,-2 -1,0 -3,0 -5,0zm2 -10c7,0 12,2 14,5 2,2 4,6 4,12 0,6 -1,10 -3,12 -1,2 -4,3 -7,4l0 0c3,0 5,1 7,3 1,2 2,5 2,10l0 10 -11 0 0 -8c0,-2 0,-4 0,-5 0,-2 -1,-3 -1,-3 -1,-1 -2,-2 -3,-2 -1,0 -2,0 -4,0l-1 0 -14 0 0 18 -11 0 0 -56 28 0z"/>
   <path id="2" fill="#2B2A29" fill-rule="nonzero" d="M291 413c-4,0 -6,0 -8,1 -2,0 -3,1 -4,3 -1,1 -1,4 -1,7 0,1 0,1 0,2l0 13c0,5 0,8 1,9 1,2 2,2 4,3 2,0 4,0 7,0 4,0 6,0 8,0 1,-1 3,-2 4,-3 0,0 1,-2 1,-3 0,-2 1,-3 1,-5l0 -15 0 -2c0,-3 -1,-6 -2,-7 -2,-2 -3,-2 -6,-3 -2,0 -3,0 -5,0zm0 -9c2,0 5,0 8,0 2,1 4,1 7,2 2,1 4,2 5,4 0,0 1,2 2,4 1,2 1,5 1,10l0 18c0,3 0,5 -1,7 0,2 -1,4 -2,6 -2,1 -3,3 -6,3 -2,1 -5,2 -7,2 -2,0 -5,0 -9,0 -4,0 -8,0 -11,-1 -2,0 -5,-2 -7,-4 -2,-2 -4,-7 -4,-15l0 -15c0,-3 0,-6 1,-9 0,-2 1,-4 2,-6 2,-2 3,-3 5,-4 3,-1 5,-1 7,-2 3,0 5,0 9,0z"/>
   <path id="3" fill="#2B2A29" fill-rule="nonzero" d="M348 451c2,0 4,0 6,-1 1,0 2,-1 3,-3 2,-2 2,-6 2,-11l0 -3 0 -7c0,-3 0,-5 0,-7 -1,-2 -2,-3 -4,-4 -1,-1 -4,-1 -7,-1l-16 0 0 37 16 0zm2 9l-28 0 0 -56 26 0c10,0 16,3 19,8 2,4 3,8 3,14l0 12c0,10 -3,16 -8,19 -2,1 -3,2 -6,2 -2,1 -4,1 -6,1z"/>
   <path id="4" fill="#2B2A29" fill-rule="nonzero" d="M400 451c1,0 1,0 2,0 2,0 4,0 6,0 1,0 2,-1 3,-2 1,0 2,-1 2,-2 0,-1 0,-2 0,-4l0 -39 11 0 0 40c0,6 -2,10 -5,13 -2,1 -5,2 -8,3 -3,0 -7,0 -12,0 -3,0 -6,0 -9,0 -2,0 -4,-1 -6,-2 -2,-1 -4,-3 -5,-6 -1,-2 -1,-5 -1,-8l0 -40 10 0 0 41c0,1 0,2 1,3 0,0 1,1 1,2 1,0 3,1 4,1 1,0 3,0 6,0z"/>
   <path id="5" fill="#2B2A29" fill-rule="nonzero" d="M466 423l0 -3c0,-3 0,-4 -1,-5 -1,-1 -4,-2 -9,-2l-2 0c-3,0 -5,0 -6,1 -2,0 -3,1 -4,1 -1,2 -2,5 -2,10l0 14c0,6 1,9 3,10 1,1 2,2 3,2 2,0 4,0 7,0 3,0 5,0 6,0 2,0 3,-1 4,-2 1,0 1,-1 1,-1 0,-1 1,-2 1,-2 0,-1 0,-2 0,-3 0,-1 0,-2 0,-3l10 0 0 4 0 1c0,5 -1,9 -4,12 -2,2 -6,3 -11,3 -1,0 -3,0 -6,0 -2,0 -4,0 -4,0 -8,0 -13,-1 -16,-4 -2,-1 -3,-3 -3,-5 -1,-3 -1,-5 -2,-8 0,-2 0,-6 0,-10 0,-5 0,-9 0,-11 1,-3 1,-5 2,-7 0,-2 1,-4 2,-5 2,-2 3,-3 5,-4 3,-1 5,-1 7,-2 3,0 5,0 8,0 3,0 5,0 7,0 2,0 4,1 6,1 2,1 3,1 5,2 1,2 2,3 3,5 0,2 1,4 1,5 0,2 0,4 0,6l-11 0z"/>
   <polygon id="6" fill="#2B2A29" fill-rule="nonzero" points="496,460 496,414 480,414 480,404 523,404 523,414 507,414 507,460 "/>
   <polygon id="7" fill="#2B2A29" fill-rule="nonzero" points="528,404 539,404 539,460 528,460 "/>
   <path id="8" fill="#2B2A29" fill-rule="nonzero" d="M570 413c-3,0 -6,0 -8,1 -2,0 -3,1 -4,3 0,1 -1,4 -1,7 0,1 0,1 0,2l0 13c0,5 1,8 2,9 1,2 2,2 3,3 2,0 4,0 8,0 3,0 6,0 7,0 2,-1 3,-2 4,-3 1,0 1,-2 1,-3 1,-2 1,-3 1,-5l0 -15 0 -2c0,-3 -1,-6 -2,-7 -1,-2 -3,-2 -6,-3 -1,0 -3,0 -5,0zm0 -9c3,0 5,0 8,0 2,1 5,1 7,2 2,1 4,2 5,4 1,0 1,2 2,4 1,2 2,5 2,10l0 18c0,3 -1,5 -1,7 -1,2 -2,4 -3,6 -1,1 -3,3 -5,3 -3,1 -5,2 -8,2 -2,0 -5,0 -9,0 -4,0 -7,0 -10,-1 -3,0 -5,-2 -7,-4 -3,-2 -4,-7 -4,-15l0 -15c0,-3 0,-6 0,-9 1,-2 1,-4 3,-6 1,-2 3,-3 5,-4 2,-1 4,-1 7,-2 2,0 5,0 8,0z"/>
   <polygon id="9" fill="#2B2A29" fill-rule="nonzero" points="601,404 619,404 643,451 643,451 642,404 653,404 653,460 635,460 611,414 611,414 612,437 612,460 601,460 "/>
   <polygon id="10" fill="#2B2A29" fill-rule="nonzero" points="688,404 699,404 699,427 725,427 725,404 736,404 736,460 725,460 725,436 699,436 699,460 688,460 "/>
   <path id="11" fill="#2B2A29" fill-rule="nonzero" d="M767 413c-4,0 -6,0 -8,1 -2,0 -3,1 -4,3 -1,1 -1,4 -1,7 0,1 0,1 0,2l0 13c0,5 0,8 1,9 1,2 3,2 4,3 2,0 4,0 8,0 3,0 5,0 7,0 2,-1 3,-2 4,-3 0,0 1,-2 1,-3 1,-2 1,-3 1,-5l0 -15 0 -2c0,-3 -1,-6 -2,-7 -1,-2 -3,-2 -6,-3 -2,0 -3,0 -5,0zm0 -9c3,0 5,0 8,0 2,1 5,1 7,2 2,1 4,2 5,4 1,0 1,2 2,4 1,2 1,5 1,10l0 18c0,3 0,5 -1,7 0,2 -1,4 -2,6 -1,1 -3,3 -6,3 -2,1 -4,2 -7,2 -2,0 -5,0 -9,0 -4,0 -7,0 -10,-1 -3,0 -6,-2 -7,-4 -3,-2 -5,-7 -5,-15l0 -15c0,-3 1,-6 1,-9 0,-2 1,-4 3,-6 1,-2 2,-3 5,-4 2,-1 4,-1 7,-2 2,0 5,0 8,0z"/>
   <path id="12" fill="#2B2A29" fill-rule="nonzero" d="M820 451c1,0 2,0 2,0 3,0 5,0 6,0 2,0 3,-1 4,-2 1,0 1,-1 1,-2 0,-1 1,-2 1,-4l0 -39 10 0 0 40c0,6 -1,10 -5,13 -2,1 -4,2 -8,3 -3,0 -7,0 -11,0 -4,0 -7,0 -9,0 -3,0 -5,-1 -7,-2 -2,-1 -3,-3 -4,-6 -1,-2 -2,-5 -2,-8l0 -40 11 0 0 41c0,1 0,2 0,3 0,0 1,1 2,2 1,0 2,1 4,1 1,0 3,0 5,0z"/>
   <path id="13" fill="#2B2A29" fill-rule="nonzero" d="M873 404c4,0 8,0 10,0 3,1 6,2 8,3 2,2 3,4 3,6 1,2 1,5 1,8l-11 0 0 -2c0,-3 0,-4 -1,-5 0,-1 -3,-1 -6,-1l-5 0c-4,0 -7,0 -8,1 0,1 -1,1 -1,2 -1,1 -1,2 -1,4 0,2 1,3 1,4 0,1 1,1 1,2 1,0 2,0 3,1 1,0 2,0 4,0 1,0 3,0 4,0 4,1 8,1 11,1 3,1 5,2 6,3 1,1 2,1 3,2 0,2 1,3 1,4 0,1 0,2 0,3 0,1 0,2 0,4 0,3 0,6 -1,8 -1,2 -2,4 -4,5 -2,2 -8,3 -16,3l-4 0c-3,0 -6,0 -9,0 -2,-1 -5,-2 -6,-3 -2,-1 -3,-3 -3,-4 -1,-2 -1,-3 -1,-5 0,-1 -1,-3 -1,-6l11 0c0,1 0,1 0,2 0,2 0,3 0,4 1,1 1,1 2,2 0,1 1,1 2,1 2,0 3,1 5,1 1,0 2,0 3,0 2,0 4,0 6,-1 1,0 2,0 3,-1 2,-1 3,-3 3,-7 0,-2 -1,-4 -2,-5 0,0 -1,-1 -1,-1 -1,0 -2,0 -2,0 -1,0 -1,-1 -2,-1 -1,0 -2,0 -3,0 -2,0 -4,0 -6,0 -2,0 -3,0 -5,0 -2,-1 -3,-1 -5,-1 -1,-1 -3,-2 -4,-2 -2,-3 -4,-7 -4,-13 0,-6 1,-10 4,-13 3,-2 8,-3 17,-3z"/>
   <polygon id="14" fill="#2B2A29" fill-rule="nonzero" points="903,460 903,404 941,404 941,414 914,414 914,427 940,427 940,436 914,436 914,451 941,451 941,460 "/>
   <polygon fill="#2B2A29" fill-rule="nonzero" points="764,201 807,201 807,248 798,232 797,232 799,309 800,387 764,387 "/>
   <g clip-path="url(#id5)">
    <g>
     <g>
      <path id="1" fill="#2B2A29" d="M724 240c-1,1 -1,2 -2,2 -1,0 -1,0 -2,1 -1,0 -2,1 -3,1 0,1 0,1 0,1 -1,0 -1,0 -1,0 -1,1 -2,1 -3,1 -2,0 -2,1 -3,1 0,1 -1,1 -2,2 -1,0 -1,1 -2,1 0,0 -1,1 -2,2 -1,1 -1,1 -2,2 -1,1 -3,2 -5,2 0,0 0,0 0,0 -1,0 -1,0 -1,0l0 0c-1,0 -1,0 -1,1 -1,0 -1,0 -2,0l-2 2c0,1 0,1 -1,2 0,1 0,1 -1,1 -1,0 -2,1 -3,1 -1,1 -2,1 -3,2 -1,0 -1,1 -2,1 -1,1 -2,2 -3,2 0,0 0,0 0,0 -1,1 -1,0 -1,1 0,0 -2,1 -3,2 -1,1 -2,2 -2,2 -1,1 -1,1 -2,1l-1 1c-6,3 -6,5 -9,6 -1,0 -3,2 -4,2l-1 0c0,1 -1,2 -2,2 0,1 0,0 -1,1l-1 0c0,1 0,0 0,1 -1,0 -1,0 -1,0 -1,1 -1,1 -1,2 0,0 0,0 -1,0 0,0 0,0 0,0 0,1 0,1 -1,1 -1,1 -2,2 -2,3 -4,3 -1,1 -4,2 -2,2 -3,3 -3,3 -1,1 -1,2 -2,2l-1 1 -3 1c0,1 -1,2 -2,2 -2,1 -2,1 -4,2 -1,1 -1,1 -2,1l0 1c0,0 0,0 0,0 -1,2 -2,3 -3,4 -3,2 -5,4 -8,5 -1,1 -3,2 -4,3 -1,1 -2,3 -2,3 -1,0 0,0 -1,0 0,1 0,1 0,1 -1,0 -2,1 -3,1 0,1 0,0 0,1 -1,0 -1,0 -1,0 0,1 -1,2 -2,2 0,2 -2,3 -3,4 -1,1 -1,1 -2,2 -1,0 -1,1 -2,2l-1 1c0,1 0,0 1,-1 1,0 1,0 2,0 1,-1 3,-1 3,-2 0,-1 1,0 1,-1 0,0 0,0 1,0 2,-3 1,-4 4,-6 3,-2 3,-1 5,-5 1,0 3,-2 4,-2 1,-1 1,-1 2,-1 2,-2 6,-5 8,-6 0,-1 1,-1 1,-2 1,-2 1,-3 3,-4l6 -3c0,0 0,0 0,0 5,-2 5,-4 7,-5l1 -1c1,-1 0,0 1,-1l2 -2c2,-1 4,-3 6,-5 0,0 1,0 1,-1l5 -3c0,0 0,0 0,-1l2 -1c0,0 0,0 0,0l0 0c2,-1 3,-2 5,-3 2,-1 1,-2 4,-3 1,-1 1,-1 3,-1 0,-1 0,-1 0,-1 0,0 0,0 0,0 3,-1 3,-2 6,-4 1,-1 1,-1 2,-2 1,0 1,-1 2,-1 2,-1 3,-2 5,-3 0,0 1,0 1,-1 0,0 1,0 1,0l2 -1c1,-1 2,0 3,-2 1,-2 0,-2 2,-3l1 0c0,0 0,0 0,0l1 -1c2,-1 4,0 6,-2 1,0 0,0 1,-1 0,0 0,0 1,0 1,-1 1,-1 1,-2 0,0 0,0 0,0 0,0 0,0 0,0 0,0 0,0 1,0 0,0 0,0 0,0 0,0 0,0 0,0l1 -1c2,-1 2,-1 3,-2l2 -1c1,-1 2,-2 4,-2 1,0 1,0 2,-1 2,2 0,0 0,1 2,-2 1,-3 4,-4 1,0 2,-1 3,-2 0,-1 0,0 0,-1 -1,0 0,0 -1,0z"/>
      <path fill="#2B2A29" d="M724 241c0,1 -1,1 -2,1 -1,1 -1,1 -2,1 -1,0 -2,1 -3,2 0,0 0,0 0,0 -1,1 -1,0 -1,0 -1,1 -2,1 -3,1 -2,1 -2,1 -3,2 0,1 -1,1 -2,1 -1,1 -1,1 -2,1 0,0 -1,2 -2,2 -1,1 -1,2 -2,2 -1,1 -4,3 -5,2 0,0 0,0 -1,0 0,0 0,0 0,0l0 1c-1,0 -1,0 -1,0 -1,1 -1,1 -2,1l-2 2c0,0 -1,1 -1,2 0,0 0,0 -1,1 -1,0 -3,0 -3,0 -1,1 -2,2 -3,2 -1,1 -2,1 -3,2 0,0 -1,1 -2,1 0,0 0,0 -1,1 0,0 0,0 0,0 -1,1 -2,2 -3,3 -1,0 -2,1 -2,2 -1,1 -1,1 -2,1l-1 0c-7,3 -6,5 -9,6 -1,1 -3,2 -4,2l-1 1c0,0 -1,1 -2,2 -1,0 0,0 -1,0l-1 1c0,0 0,0 0,1 -1,0 -1,0 -1,0 -1,1 -1,1 -1,1 -1,0 -1,0 -1,0 0,1 0,1 0,1 -1,0 -1,0 -1,1 -1,1 -2,1 -3,2 -3,3 -1,1 -3,3 -2,1 -3,2 -4,3 0,1 0,1 -1,1l-1 1 -3 2c0,1 -1,1 -2,2 -2,1 -2,1 -5,2 -1,0 -1,0 -1,1l0 0c-1,0 -1,1 -1,1 0,2 -1,3 -2,4 -3,1 -6,4 -8,5 -2,1 -3,2 -4,3 -1,1 -2,2 -3,3 0,0 0,0 0,0 0,0 0,0 -1,0 0,1 -2,2 -2,2 -1,0 0,0 -1,1 0,0 0,0 -1,0 0,0 -1,1 -1,1 -1,3 -2,4 -3,5 -1,1 -2,1 -2,1 -1,1 -2,2 -2,2l-1 1c0,1 0,1 1,0 0,0 1,0 2,-1 1,0 2,0 3,-1 0,-1 0,-1 1,-1 0,0 0,0 0,-1 2,-2 1,-3 5,-5 3,-3 3,-1 5,-5 1,-1 3,-3 4,-3 1,0 1,0 2,-1 2,-1 6,-4 7,-5 1,-1 1,-1 2,-2 1,-3 1,-3 3,-4l6 -3c0,-1 -1,0 0,-1 5,-2 5,-4 7,-5l1 -1c0,0 0,0 0,0l3 -2c2,-2 4,-3 5,-5 1,-1 1,-1 2,-1l4 -4c1,0 1,0 1,0l2 -1c0,0 0,0 0,0l0 -1c2,-1 3,-1 5,-2 1,-1 1,-2 3,-3 2,-1 2,-1 4,-2 0,0 0,0 0,0 0,0 0,0 0,0 3,-2 3,-2 6,-5 1,0 1,-1 2,-1 1,-1 1,-1 2,-2 2,-1 3,-1 5,-2 0,-1 0,-1 1,-1 0,0 0,-1 1,-1l2 -1c1,0 2,0 3,-2 0,-2 0,-1 2,-2l1 -1c0,0 0,0 0,0l1 -1c2,0 4,1 6,-1 1,-1 0,-1 1,-1 0,-1 0,0 1,-1 1,0 1,-1 1,-1 0,0 0,0 0,0 0,0 0,0 0,0 0,-1 0,-1 0,-1 1,0 1,0 1,0 0,0 0,0 0,0l1 -1c1,-1 2,-1 3,-2l2 -1c1,-1 2,-1 4,-1 1,-1 1,0 2,-1 2,1 0,-1 0,0 2,-2 1,-2 4,-3 1,-1 2,-1 3,-3 0,0 0,0 0,0 0,0 0,0 -1,0z"/>
      <path fill="#2B2A29" d="M705 278c-1,1 0,0 -1,1l-3 1c0,0 0,0 -1,1 0,1 0,1 -1,1 0,0 0,1 0,1 -1,0 0,0 -1,0 0,0 0,0 0,0 0,0 0,1 0,1 -1,0 -1,0 -1,0 -1,0 -1,0 -1,0 -2,1 -6,3 -6,3 -1,1 0,1 -1,1 -1,0 -1,0 -2,1 0,0 0,0 -1,1l0 0c-2,2 -2,2 -4,3 -3,1 -3,3 -7,5 -1,0 -3,1 -4,1 0,0 0,0 -1,1 -1,1 -2,2 -4,3 -2,1 -2,2 -4,4 -1,1 -1,2 -3,2l0 0c-1,1 -2,2 -4,3l-3 2c-1,2 -2,2 -4,2l0 0c-3,4 -3,5 -6,6 -3,1 -3,3 -7,5 -1,1 -1,2 -2,3 -2,2 -3,2 -6,5l-2 2c0,0 0,0 0,0 0,0 0,0 -1,0 0,0 0,0 -1,1 -2,1 -1,3 -4,4 -1,0 -2,0 -3,1 0,1 -1,2 -2,3 1,1 0,0 1,0l7 -5c1,-1 1,-1 1,-2l1 0c0,0 0,0 0,0 0,0 0,0 0,0 1,-1 2,-1 3,-2l2 -3c1,0 2,-1 3,-1 0,0 0,0 0,0 0,0 0,0 0,0l1 -1c1,0 2,-2 2,-3 1,-2 0,0 0,-1l1 -1c1,0 1,0 2,-1 1,-1 2,-1 2,-2 1,-1 2,-1 3,-1l2 -2c1,-1 2,-1 3,-2 1,-2 1,-1 2,-2 2,0 2,-1 4,-2 2,-2 0,-1 5,-4l0 0c0,0 0,0 1,0l0 0c0,0 1,0 1,0l3 -3c2,-2 0,-2 4,-4 2,-1 0,0 2,-2 1,0 1,0 1,0 1,-2 1,-2 3,-2 1,-1 2,-1 3,-1 1,0 1,-1 2,-2l2 -1c1,-1 1,-1 1,-1l3 -1c0,0 0,0 0,0 0,0 0,0 0,0 2,-2 2,-4 4,-4l2 -1c0,0 0,0 0,0 2,-1 3,-1 4,-2 1,0 1,0 1,0l3 -2c2,-1 1,-2 5,-4 1,-1 1,0 2,-1 1,1 0,-1 0,0 2,-1 3,-1 4,-3 2,-3 3,-2 3,-3 0,0 1,0 0,0 0,0 -3,1 -4,2 -2,0 -2,0 -3,2 -1,0 -1,0 -1,0z"/>
      <path fill="#2B2A29" d="M683 243c0,1 0,1 0,1 0,0 0,0 -1,0 0,1 0,1 -1,1l-1 1 -2 1c0,1 -1,1 -2,1 0,1 -5,3 -7,4 -2,2 -2,4 -6,4l-2 3 0 0c-1,1 -2,1 -3,2 -1,0 -1,1 -2,1 -2,1 -4,3 -6,3 -1,1 -2,1 -2,1 -1,1 -1,2 -2,2 -1,2 -3,2 -4,3 -3,2 -5,4 -6,5 -1,1 -4,1 -5,2l0 0c0,1 -1,2 -2,3 0,1 -2,0 -2,1 -2,0 -4,3 -5,4 -2,4 -4,2 -6,4 -1,1 -2,2 -2,4 -1,1 -2,2 -3,2 -1,0 -2,1 -3,1 0,0 0,0 -1,1 0,0 0,0 0,0 0,1 0,0 0,1 -1,3 -5,3 -6,4 -1,1 -2,2 -3,3 0,1 -1,1 -3,2 0,1 0,1 -1,2 0,1 0,1 -1,1 0,1 0,1 0,1 -1,0 -1,0 -1,0 0,1 -1,1 -1,1 1,0 3,0 4,-1 0,0 0,1 0,0l0 -1c2,-3 3,-2 5,-5 1,-1 1,-1 2,-2 0,0 1,0 2,-1l1 0c0,0 0,0 1,0 0,-1 1,-2 1,-2 2,-3 1,-2 4,-3l1 -1c0,0 1,0 1,-1 1,0 1,0 1,0l2 -3c0,-1 0,-1 1,-1 1,-2 2,-2 4,-3 1,0 2,-1 2,-3 1,-1 0,1 1,0l1 -1c1,-1 2,-2 3,-2 1,0 1,0 2,-1 1,0 0,0 1,-1 0,-1 0,0 0,0 1,0 1,-1 2,-2 0,0 0,0 1,0 1,0 2,-1 3,-1 1,-2 2,-3 3,-4l4 -2c1,-1 2,-1 2,-2 2,-2 1,-2 4,-3 0,0 0,0 0,0 1,0 1,0 1,0l5 -2c1,-1 1,-1 2,-2 1,-1 2,-1 2,-1 0,0 0,0 0,0 0,0 0,0 1,0 1,-1 -1,1 0,-1 1,0 2,-2 3,-1 0,-3 1,-2 3,-3l1 -1c1,-1 2,-2 3,-3l0 0c0,-1 0,-1 1,-1 2,-1 3,-2 5,-2 1,0 1,0 2,-1 0,0 0,0 0,0 0,0 0,0 0,0l1 -1c1,-1 2,-2 3,-3 0,0 1,0 1,0 1,0 2,-1 4,-1 1,-1 2,-3 3,-4 -1,1 -3,2 -4,3 -1,0 -2,0 -4,0z"/>
      <path fill="#2B2A29" d="M708 298c0,0 -1,1 -2,1 0,1 -4,4 -4,4 -2,1 -4,2 -6,3 -1,1 -5,2 -5,2 -2,3 -1,3 -4,4 -1,1 -2,1 -3,1 -1,1 -2,1 -3,1l-1 1c0,1 -1,2 -1,2 -1,1 -1,1 -1,2 -1,0 -1,0 -2,0 0,1 -1,1 -2,2 -1,0 -1,0 -1,0 -1,1 0,1 -1,1 -1,0 -1,1 -2,1 0,1 -1,1 -1,1 -1,1 -1,1 -1,1 -2,1 -5,4 -7,4 0,1 -3,3 -4,4 -4,3 -3,3 -4,4 0,1 -2,2 -3,2 0,1 0,1 -1,1 0,1 -1,2 -2,2 0,1 -1,1 -2,2 -1,0 -2,0 -2,1 -1,1 -1,2 -2,3 0,1 -2,2 -3,2 0,0 0,1 -1,1 0,1 0,1 -1,2 1,0 0,0 1,0 2,-1 6,-4 6,-5 0,-1 0,0 0,0l1 -2c0,-1 1,0 2,-1 1,0 0,0 1,0 1,-1 2,-1 2,-2 1,-1 1,-2 2,-2 2,-2 1,0 2,-2 4,-5 2,-3 6,-6 2,-1 2,-2 4,-3l3 -2c0,0 1,0 2,-1 1,-1 1,-1 2,-2 1,0 1,0 1,-1l2 -1 4 -2c2,-1 2,-3 4,-4l2 -2c1,0 3,-1 4,-1 4,-1 4,-4 4,-5 1,0 4,-2 6,-2 1,0 3,-2 5,-2 1,-1 0,-1 2,-2 1,-1 1,-1 2,-2 3,-3 3,-1 4,-3 1,-1 2,0 2,-1l1 0c0,0 0,0 0,0 1,-1 1,-1 0,-1l0 0c-1,0 -2,0 -3,0 0,1 -1,2 -2,2z"/>
      <path fill="#2B2A29" d="M598 334c3,0 4,-3 8,-5 1,-1 7,-4 8,-5 3,0 3,-1 6,-2l4 -3c1,0 1,-1 2,-1 2,-2 6,-3 8,-6 2,-3 4,-3 7,-5 2,-1 3,-2 5,-3l3 -2c5,-4 3,-2 7,-6 2,-2 1,-1 4,-2 2,0 2,0 2,-1 1,-2 2,-3 3,-4 3,-3 4,-1 6,-4 4,-3 4,-2 7,-6 3,-2 7,-4 8,-5 2,-2 1,-2 4,-3 3,-1 1,-2 5,-5 0,0 1,-1 2,-1 1,-1 3,-1 4,-2 3,-6 4,-5 9,-8 0,0 1,-1 2,-2 1,-1 2,-3 5,-4 1,-1 1,-1 1,-2 0,-1 2,1 0,-1 -1,1 -1,1 -2,1 -2,0 -3,1 -4,2l-2 1c-1,1 -1,1 -3,2l-1 1c0,0 0,0 0,0 0,0 0,0 0,0 -1,0 -1,0 -1,0 0,0 0,0 0,0 0,0 0,0 0,0 0,1 0,1 -1,2 -1,0 -1,0 -1,0 -1,1 0,1 -1,1 -2,2 -4,1 -6,2l-1 1c0,0 0,0 0,0l-1 0c-2,1 -1,1 -2,3 -1,2 -2,1 -3,2l-2 1c0,0 -1,0 -1,0 0,1 -1,1 -1,1 -2,1 -3,2 -5,3 -1,0 -1,1 -2,1 -1,1 -1,1 -2,2 -3,2 -3,3 -6,4 0,0 0,0 0,0 0,0 0,0 0,1 -2,0 -2,0 -3,1 -3,1 -2,2 -4,3 -2,1 -3,2 -5,3l0 0c0,0 0,0 0,0l-2 1c0,1 0,1 0,1l-5 3c0,1 -1,1 -1,1 -2,2 -4,4 -6,5l-2 2c-1,1 0,0 -1,1l-1 1c-2,1 -2,3 -7,5 0,0 0,0 0,0l-6 3c-2,1 -2,2 -3,4 0,1 -1,1 -1,2 -2,1 -6,4 -8,6 -1,0 -1,0 -2,1 -1,0 -3,2 -4,2 -2,4 -2,3 -5,5 -3,2 -2,3 -4,6 -1,0 -1,0 -1,0 0,1 -1,0 -1,1z"/>
      <path fill="#2B2A29" d="M595 312c2,-1 2,-1 3,-2 1,-1 2,-2 3,-3 1,0 1,0 2,-1 2,-1 4,-1 5,-2 2,-1 1,-2 5,-4 7,-3 5,-1 8,-5 1,-2 2,-1 6,-4 1,0 3,-1 5,-2 0,-1 1,-3 2,-3 1,-1 3,-1 3,-2 1,0 4,-3 6,-5 3,-1 2,0 6,-3 3,-3 2,-3 5,-5 3,-1 4,-2 6,-4 3,-3 5,-3 9,-6 2,-2 4,-5 5,-6 1,0 2,-1 3,-2 2,-1 1,-3 6,-5l2 -2c2,0 2,-2 3,-3 -1,1 -3,1 -4,2 0,0 0,0 0,0 -2,1 -3,1 -4,2l-1 1c0,0 0,0 0,0 0,0 0,0 0,0 -1,1 -1,1 -2,1 -2,1 -3,2 -5,3 0,0 -1,0 -1,0l0 0c-1,1 -2,3 -3,4l-1 1c-1,1 -2,0 -3,2 -1,0 -2,1 -3,2 -1,1 1,-1 0,0 0,0 0,0 0,0 0,0 -1,0 -1,0 0,1 -1,1 -2,1 -1,1 -1,1 -2,2l-5 3c0,0 0,0 0,0 -1,0 0,0 -1,0 -3,1 -1,1 -3,3 -1,1 -1,1 -2,1l-4 3c-1,0 -3,2 -4,3 0,1 -2,1 -3,1 -1,0 0,0 -1,1 -1,0 -1,1 -1,1 -1,1 -1,0 -1,1 -1,1 0,0 -1,1 0,0 0,0 -1,0 -2,0 -3,1 -4,2l-1 1c-1,1 0,0 0,1 -1,1 -2,2 -3,3 -2,1 -3,1 -4,2 0,1 0,1 -1,1l-2 3c0,0 0,0 0,0 -1,1 -1,1 -2,1l-1 1c-3,1 -2,0 -3,3 -1,1 -1,1 -2,2 0,0 0,0 -1,0l-1 1c-1,0 -1,0 -2,0 0,2 -1,2 -2,3 -2,2 -3,1 -4,4l-1 1c0,1 0,0 0,1z"/>
      <path fill="#2B2A29" d="M622 340c2,0 2,0 4,-1 1,0 2,0 3,-1l3 -1c2,-3 2,-3 5,-5 1,0 1,-1 3,-1 5,-2 2,-1 4,-4 1,-1 2,-1 3,-2 1,0 1,-1 2,-1 6,-5 3,-2 7,-4 2,-1 1,0 2,-2 1,-1 2,-2 3,-2 1,-1 3,-3 5,-4 2,-1 4,-2 5,-3 2,-3 2,-2 4,-3 1,-1 1,-1 2,-1 1,-1 4,-3 5,-4 3,-4 2,-3 6,-5l2 -1c1,-1 1,0 2,-2 1,-2 1,-2 2,-3l3 -2c2,-1 2,-2 5,-4 2,-1 2,0 4,-4 0,-1 1,0 0,-1 -1,1 -1,1 -2,1 -4,2 -3,4 -5,4l-3 2c0,0 0,0 -1,0 -1,1 -2,1 -4,3 0,0 0,0 0,0l-2 1c-2,0 -2,1 -4,3 0,0 0,0 0,0 0,0 0,0 0,0l-3 2c0,0 0,0 -1,0l-2 2c-1,1 -1,1 -2,1 -1,0 -2,1 -3,1 -2,1 -2,1 -3,2 0,0 0,0 -1,1 -1,1 1,0 -2,2 -3,2 -2,2 -4,4l-3 2c0,0 0,0 0,0l-1 0c0,0 0,0 0,1l-1 0c-5,2 -3,2 -5,3 -1,1 -2,2 -3,3 -2,0 -1,0 -3,1 -1,1 -2,2 -3,3l-2 1c-1,0 -2,1 -2,1 -1,1 -2,1 -2,2 -1,1 -2,1 -2,1l-1 1c0,1 0,0 0,1 -1,1 -2,3 -3,3l0 1c0,0 -1,0 -1,0 0,0 0,0 0,0 -1,1 -2,1 -3,2l-2 2c-1,1 -1,2 -2,2 -1,0 -1,0 -1,0 0,0 0,0 0,0l0 1c-1,0 -1,0 -2,1z"/>
      <path fill="#2B2A29" d="M644 347c0,0 0,0 1,0 1,-1 3,-1 4,-2 1,0 2,-2 4,-3 4,-2 3,-3 6,-5 1,0 2,0 3,-1 1,-1 5,-4 9,-6 1,0 1,0 2,-1 3,-1 7,-6 8,-7l4 -2c3,-1 1,-1 3,-3 0,-1 6,-3 9,-5 3,-3 1,-2 3,-4 2,-2 3,-2 4,-4 1,-1 1,-2 2,-2 1,0 2,-1 3,-1 0,-1 3,-3 4,-4l-1 -1c0,1 -1,1 -2,2 -1,1 -1,0 -4,3 -1,1 -1,1 -2,1 -2,1 -1,2 -2,2 -2,1 -4,2 -5,3 -1,0 -5,1 -6,2 0,0 0,3 -4,4 -1,0 -3,1 -4,2l-2 1c-2,1 -2,3 -4,4l-4 2 -1 2c-1,0 -1,0 -2,1 0,0 -1,1 -2,1 -1,1 -2,1 -2,1l-2 2c-3,2 -3,2 -5,3 -4,3 -2,1 -5,6 -1,2 -1,1 -3,2 -1,1 -1,1 -2,2 0,1 -1,2 -2,2 -1,0 0,0 -1,0 -1,1 -1,0 -2,2l0 1c-1,1 -1,0 0,0z"/>
      <path fill="#2B2A29" d="M705 278c-1,0 0,0 -1,0l-3 1c0,1 0,1 -1,1 0,1 0,1 -1,2 0,0 0,0 0,0 -1,0 0,0 -1,0 0,1 1,0 0,1 0,0 0,0 0,0 -1,0 -1,0 -1,0 -1,1 -1,1 -1,1 -1,0 -6,3 -6,3 -1,0 0,0 -1,0 -1,1 -1,1 -2,1 0,0 0,1 -1,1l0 0c-2,2 -2,2 -4,3 -3,2 -3,4 -6,5 -1,0 -4,1 -4,1 -1,1 -1,1 -1,1 -1,2 -3,3 -5,3 -1,2 -2,3 -3,4 -2,1 -2,2 -4,3l0 0c-1,0 -2,1 -4,2l-3 3c-1,1 -2,1 -3,2l-1 0c-3,4 -3,4 -6,5 -2,1 -3,3 -7,5 0,1 -1,2 -2,3 -1,3 -3,2 -6,5l-1 2c0,0 -1,0 -1,0 0,0 0,0 0,0 -1,1 -1,1 -2,1 -2,1 -1,3 -3,4 -2,1 -2,0 -3,2 -1,0 -2,2 -2,2 0,1 0,1 0,0l7 -5c1,-1 1,-1 2,-1l0 -1c0,0 0,0 0,0 0,0 0,0 1,0 1,0 1,-1 2,-2l2 -2c1,-1 2,-1 3,-2 0,0 0,0 0,0 0,0 1,0 1,0l0 -1c1,0 2,-2 3,-3 0,-1 0,0 0,-1l1 -1c0,0 1,0 2,-1 0,-1 1,-1 2,-2 0,0 1,-1 2,-1l2 -1c1,-1 2,-2 3,-3 2,-1 1,-1 3,-1 1,-1 2,-2 3,-3 2,-1 0,-1 5,-3l1 0c0,-1 0,-1 0,-1l1 0c0,0 0,0 0,0l3 -2c2,-2 1,-2 4,-4 3,-2 1,-1 2,-2 1,-1 1,-1 1,-1 1,-1 1,-1 3,-2 1,0 2,-1 3,-1 1,0 1,0 2,-1l2 -2c1,0 1,0 1,0l3 -2c0,0 0,0 0,0 0,0 0,0 0,0 2,-2 2,-3 4,-3l2 -1c0,0 0,0 0,0 2,-2 3,-2 4,-3 1,0 1,0 1,0l3 -2c2,0 1,-2 5,-4 1,0 1,0 2,-1 1,1 0,0 0,1 2,-1 3,-1 4,-3 2,-3 3,-3 3,-4 0,0 1,1 0,0 0,1 -3,2 -4,2 -2,1 -1,1 -3,2 -1,1 -1,1 -1,1z"/>
      <path fill="#2B2A29" d="M684 243c-1,0 -1,0 -1,0 0,1 0,1 -1,1 0,0 0,0 -1,0l-1 1 -1 2c-1,1 -2,1 -3,1 0,0 -5,2 -7,4 -2,2 -2,3 -6,4l-2 2 0 0c-1,1 -2,2 -3,2 -1,1 -1,1 -2,2 -1,1 -4,3 -6,3 -1,0 -1,0 -2,1 -1,0 -1,1 -2,2 -1,1 -2,2 -3,2 -4,2 -5,5 -7,6 -1,0 -3,1 -4,1l-1 1c0,0 -1,2 -1,2 -1,1 -2,1 -3,1 -2,1 -3,4 -4,4 -3,4 -5,3 -7,5 0,1 -1,2 -2,3 -1,1 -1,2 -3,2 -1,1 -2,1 -3,1 0,1 0,1 0,1 0,0 0,0 -1,1 0,0 0,0 0,0 -1,3 -5,4 -6,5 -1,0 -1,2 -2,3 -1,0 -2,1 -3,2 -1,0 -1,1 -1,1 -1,1 -1,1 -1,2 -1,0 0,0 -1,0 0,1 0,1 -1,1 0,0 0,0 -1,1 1,0 4,-1 4,-1 0,-1 0,0 0,-1l1 -1c1,-3 2,-2 4,-4 1,-1 2,-1 2,-3 1,0 1,0 2,0l1 -1c1,0 1,0 1,0 1,-1 1,-1 2,-2 1,-3 0,-2 3,-3l1 -1c1,0 1,0 2,-1 0,0 0,0 0,0l2 -3c1,0 1,0 1,-1 1,-1 2,-1 4,-2 1,-1 2,-2 3,-3 0,-1 -1,0 0,-1l1 -1c1,-1 2,-2 4,-2 1,0 1,0 1,0 1,-1 0,0 1,-1 0,-1 0,0 1,-1 0,0 0,-1 1,-1 1,-1 0,-1 1,-1 1,0 3,0 3,-1 1,-1 3,-3 4,-3l4 -3c1,0 1,0 2,-1 2,-2 0,-2 3,-3 1,0 0,0 1,0 0,0 0,0 0,0l5 -3c1,-1 1,-1 2,-2 1,0 2,0 2,-1 0,0 1,0 1,0 0,0 0,0 0,0 1,-1 -1,1 0,0 1,-1 2,-2 3,-2 1,-2 2,-1 3,-2l1 -1c1,-1 2,-3 3,-4l0 0c0,0 1,0 1,0 2,-1 3,-2 5,-3 1,0 1,0 2,-1 0,0 0,0 0,0 0,0 0,0 0,0l1 -1c1,-1 2,-1 4,-2 0,0 0,0 0,0 1,-1 3,-1 4,-2 1,-1 3,-2 3,-3 -1,0 -2,2 -4,2 -1,1 -2,1 -3,1z"/>
      <path fill="#2B2A29" d="M708 297c0,1 -1,1 -2,2 0,0 -4,3 -4,3 -2,1 -4,2 -6,3 -1,1 -5,2 -5,3 -2,2 -1,3 -4,4 -1,0 -2,1 -3,1 -1,0 -2,1 -2,1l-2 0c0,1 -1,2 -1,2 -1,1 -1,1 -1,2 -1,1 -1,1 -2,1 0,0 -1,1 -2,1 0,0 -1,0 -1,1 -1,0 0,0 -1,0 0,1 -1,1 -1,2 -1,0 -2,1 -2,1 -1,0 0,0 -1,1 -2,1 -5,3 -7,4 0,0 -3,2 -4,3 -4,3 -3,4 -4,4 0,2 -2,2 -2,3 -1,0 -1,0 -2,1 0,0 -1,1 -1,2 -1,1 -2,1 -3,1 -1,0 -2,0 -2,1 -1,1 -1,3 -1,3 -1,1 -3,2 -4,2 0,0 0,1 -1,1 0,1 0,2 0,2 0,1 0,0 0,0 2,-1 6,-4 7,-5 -1,0 -1,1 0,0l0 -1c1,-2 1,-1 2,-2 1,0 0,0 1,0 1,0 2,-1 2,-2 1,-1 1,-1 2,-2 2,-1 2,0 3,-2 3,-5 1,-3 5,-6 2,-1 2,-1 5,-3l2 -2c0,0 1,0 2,-1 1,0 2,-1 2,-1 1,-1 1,-1 2,-1l1 -2 4 -2c2,-1 2,-3 4,-4l2 -1c1,-1 3,-2 4,-2 4,-1 4,-4 4,-4 1,-1 5,-2 6,-2 1,-1 3,-2 5,-3 1,0 0,-1 2,-2 1,0 1,0 2,-1 3,-3 3,-2 4,-3 1,-1 2,-1 2,-2l1 1c0,0 0,-1 0,-1 1,-1 1,-1 0,-1l0 0c-1,0 -2,0 -3,1 0,0 -1,1 -2,1z"/>
     </g>
    </g>
   </g>
   <polygon fill="none" fill-rule="nonzero" points="764,201 807,201 807,248 798,232 797,232 799,309 800,387 764,387 "/>
  </g>
 </g>
</svg>
