<?xml version="1.0" encoding="UTF-8"?>
<svg viewBox="108 195 830 195" version="1.1" xmlns="http://www.w3.org/2000/svg" width="830" height="195">
<path d="M0 0 C15.77343264 16.07560568 16.11858672 38.40495657 15.99023438 59.453125 C15.96517922 62.0156283 15.93978453 64.57812831 15.9140625 67.140625 C15.89898565 69.76561731 15.88530257 72.39061801 15.87304688 75.015625 C15.84028602 81.3908108 15.79032547 87.76567778 15.7265625 94.140625 C16.28601563 94.28757812 16.84546875 94.43453125 17.421875 94.5859375 C25.35294517 96.804597 31.93972706 99.80340981 39.7265625 103.140625 C39.7265625 65.520625 39.7265625 27.900625 39.7265625 -10.859375 C59.8565625 -10.859375 79.9865625 -10.859375 100.7265625 -10.859375 C107.64160166 1.81819679 114.49492528 14.38699622 120.8515625 27.328125 C125.3626388 36.48446637 129.97968811 45.57000657 134.75462341 54.59187317 C139.55828632 63.68319189 144.21998844 72.84607302 148.88397217 82.00961304 C151.50172595 87.15244613 154.12363785 92.29315712 156.74609375 97.43359375 C157.51783936 98.94639671 157.51783936 98.94639671 158.30517578 100.48976135 C164.32145109 112.27574626 170.3998405 124.02928083 176.50341797 135.77026367 C177.59498113 137.88563028 178.66422516 140.01049172 179.7265625 142.140625 C179.59360816 133.28782764 179.4587416 124.43506016 179.32270432 115.58230972 C179.28910457 113.39336544 179.25564782 111.204419 179.22219849 109.01547241 C178.99040138 93.88078515 178.75130869 78.74653406 178.4375 63.61328125 C178.41434723 62.49593597 178.39119446 61.3785907 178.36734009 60.22738647 C178.321821 58.03773916 178.27625919 55.84809274 178.23065186 53.65844727 C177.78371929 32.14505555 177.63836995 10.65960647 177.7265625 -10.859375 C189.9365625 -10.859375 202.1465625 -10.859375 214.7265625 -10.859375 C214.7265625 50.850625 214.7265625 112.560625 214.7265625 176.140625 C150.51009226 176.39157562 150.51009226 176.39157562 123.44921875 176.49609375 C117.25797522 176.52000831 111.06673172 176.54393202 104.87548828 176.56787109 C104.09978977 176.57087003 103.32409126 176.57386896 102.52488673 176.57695878 C90.09170682 176.62504009 77.65852898 176.67363593 65.22535186 176.72243041 C52.41308986 176.77270084 39.60082573 176.82239845 26.78855956 176.87159204 C19.61425029 176.89915401 12.43994218 176.92696237 5.26563644 176.95542908 C-22.61081693 177.06590612 -50.48680217 177.16874199 -78.36350185 177.14419812 C-84.18257009 177.13969094 -90.00161237 177.14314158 -95.82067871 177.14901733 C-118.25039026 177.17118803 -140.67979783 177.16280763 -163.10947323 177.11215878 C-174.32998487 177.08770368 -185.55022312 177.07671657 -196.77075195 177.09594727 C-206.67538257 177.11288507 -216.57964089 177.10520073 -226.48422247 177.06827742 C-231.6917447 177.04969245 -236.89863531 177.04286295 -242.10615349 177.06593132 C-246.98335428 177.08717301 -251.85939206 177.0752371 -256.73649216 177.03878021 C-258.51208905 177.03115602 -260.28778507 177.03517808 -262.06331444 177.05243874 C-274.10804856 177.1604948 -282.78090439 175.14876609 -293.2734375 169.140625 C-292.6134375 171.450625 -291.9534375 173.760625 -291.2734375 176.140625 C-303.8134375 176.140625 -316.3534375 176.140625 -329.2734375 176.140625 C-332.8984375 163.078125 -332.8984375 163.078125 -333.93603516 158.99975586 C-335.46327778 154.01406451 -336.85944598 150.22009623 -341.09069824 146.98986816 C-350.28978964 142.30766801 -358.22093215 141.18874308 -368.515625 141.45703125 C-370.02016871 141.47012964 -371.52474282 141.48007368 -373.02932739 141.48704529 C-376.93941536 141.51343962 -380.84760629 141.58189865 -384.75695801 141.65997314 C-389.47418523 141.74509079 -394.19205627 141.77647141 -398.90983582 141.8171463 C-406.03234508 141.88442733 -413.15071427 142.01875331 -420.2734375 142.140625 C-424.2334375 153.360625 -428.1934375 164.580625 -432.2734375 176.140625 C-444.8134375 176.140625 -457.3534375 176.140625 -470.2734375 176.140625 C-469.05105779 170.63991632 -467.91473727 165.69153187 -466.15039062 160.4309082 C-465.73656128 159.18964676 -465.32273193 157.94838531 -464.8963623 156.66950989 C-464.4492324 155.3434433 -464.00200513 154.01740953 -463.5546875 152.69140625 C-463.09111559 151.30630023 -462.62794734 149.92105905 -462.16516113 148.53569031 C-460.95339555 144.91176811 -459.73623907 141.28967977 -458.5178833 137.66796875 C-457.28079042 133.9874222 -456.04880474 130.30516737 -454.81640625 126.62304688 C-452.64756083 120.14510577 -450.47428678 113.66866824 -448.29772949 107.1933136 C-447.28566395 104.17706339 -446.2784864 101.15921969 -445.2734375 98.140625 C-446.418125 97.80546875 -447.5628125 97.4703125 -448.7421875 97.125 C-456.37070819 94.57621855 -463.53868788 90.87315185 -470.7734375 87.390625 C-488.15829443 79.04189715 -505.70866222 71.12461376 -523.2734375 63.140625 C-523.2734375 100.430625 -523.2734375 137.720625 -523.2734375 176.140625 C-535.4834375 176.140625 -547.6934375 176.140625 -560.2734375 176.140625 C-560.2734375 132.910625 -560.2734375 89.680625 -560.2734375 45.140625 C-563.2434375 44.150625 -566.2134375 43.160625 -569.2734375 42.140625 C-572.10586448 40.90252705 -574.89199151 39.64114519 -577.67578125 38.3046875 C-578.81969078 37.76284317 -578.81969078 37.76284317 -579.98670959 37.21005249 C-582.39710311 36.06671424 -584.8039892 34.91619519 -587.2109375 33.765625 C-588.81944795 33.00215417 -590.42817046 32.23912996 -592.03710938 31.4765625 C-599.82543999 27.77725853 -607.55956279 23.99756235 -615.2734375 20.140625 C-615.2734375 9.910625 -615.2734375 -0.319375 -615.2734375 -10.859375 C-567.90997501 -11.22232563 -520.54685114 -11.50819705 -473.18226945 -11.67642027 C-467.56950869 -11.69642763 -461.95675073 -11.71713717 -456.34399414 -11.73828125 C-455.22676248 -11.74247822 -454.10953082 -11.74667518 -452.95844365 -11.75099933 C-434.95244117 -11.82030836 -416.94726985 -11.94628432 -398.94175773 -12.09381974 C-380.41732808 -12.24432243 -361.89332868 -12.33249868 -343.3683129 -12.36479092 C-331.96958299 -12.38656607 -320.57320337 -12.45490159 -309.1751985 -12.58603847 C-301.3212078 -12.67170604 -293.46840206 -12.69593686 -285.61397993 -12.67539704 C-281.10537805 -12.6653117 -276.60082977 -12.67887651 -272.09298134 -12.7666626 C-246.32721614 -13.24340221 -226.61411013 -7.77430759 -203.35021031 3.23927689 C-197.75817937 5.87717241 -192.03909358 8.17463772 -186.296875 10.46484375 C-184.47715128 11.20854348 -182.65802971 11.95372051 -180.83984375 12.70117188 C-179.98406738 13.05171631 -179.12829102 13.40226074 -178.24658203 13.76342773 C-176.46771913 14.49239044 -174.68908427 15.22190981 -172.91064453 15.9519043 C-162.73901728 20.12661093 -152.56328897 24.26392287 -142.2734375 28.140625 C-142.10489258 27.33230225 -141.93634766 26.52397949 -141.76269531 25.69116211 C-139.51311968 15.20595805 -135.08024522 4.13563916 -126.16015625 -2.41015625 C-97.24376098 -20.9959733 -27.37195285 -22.38668309 0 0 Z M-99.2734375 24.140625 C-104.21154495 29.93753375 -106.41559921 36.55435896 -106.2734375 44.140625 C-73.88357884 57.56000317 -73.88357884 57.56000317 -41.43832397 70.84469604 C-39.82994532 71.4996859 -38.22205367 72.15587292 -36.61465454 72.81326294 C-34.39293397 73.7214282 -32.16943321 74.62507552 -29.9453125 75.52734375 C-29.29227646 75.79515656 -28.63924042 76.06296936 -27.96641541 76.33889771 C-24.72347154 77.7026887 -24.72347154 77.7026887 -21.2734375 78.140625 C-21.19852342 73.2151206 -21.14447979 68.28995768 -21.10864258 63.36401367 C-21.09368166 61.69305636 -21.07330546 60.02213745 -21.04711914 58.35131836 C-20.44941541 40.49651381 -20.44941541 40.49651381 -28.2734375 25.140625 C-38.88754975 18.66525292 -48.00518667 17.95398532 -60.16601562 17.95532227 C-62.37129491 17.95315172 -64.57606002 17.93500887 -66.78125 17.91601562 C-83.93417555 17.55569478 -83.93417555 17.55569478 -99.2734375 24.140625 Z M74.7265625 21.140625 C74.42216483 44.43172981 74.92853448 67.67730777 75.7265625 90.953125 C75.75047813 91.65087917 75.77439377 92.34863335 75.79903412 93.06753159 C76.09788788 101.75893575 76.40729711 110.4499465 76.7265625 119.140625 C83.50226142 121.91871886 90.27934818 124.69340621 97.05737305 127.46582031 C99.3591202 128.40775961 101.6605581 129.350455 103.96166992 130.29394531 C107.28481725 131.65632771 110.60909733 133.01591352 113.93359375 134.375 C114.9486348 134.79183044 115.96367584 135.20866089 117.00947571 135.63812256 C123.52777431 138.29889862 130.09225028 140.78404004 136.7265625 143.140625 C135.34100399 138.60825573 133.52524526 134.57313201 131.33203125 130.375 C130.99238846 129.72074036 130.65274567 129.06648071 130.30281067 128.39239502 C129.56452715 126.97049414 128.82444474 125.54952616 128.08276367 124.12939453 C126.05111823 120.23756485 124.03466077 116.33790131 122.01953125 112.4375 C121.59300262 111.61213745 121.166474 110.7867749 120.72702026 109.93640137 C114.75033897 98.34272398 108.95974999 86.65501804 103.16088867 74.97167969 C98.60990165 65.81687531 93.96481727 56.72269859 89.18106079 47.68717957 C86.07312755 41.81535945 83.04761919 35.90802319 80.1015625 29.953125 C79.45380859 28.65084961 79.45380859 28.65084961 78.79296875 27.32226562 C77.76886737 25.26268396 76.74668043 23.20218165 75.7265625 21.140625 C75.3965625 21.140625 75.0665625 21.140625 74.7265625 21.140625 Z " fill="#FDFDFC" transform="translate(723.2734375,211.859375)"/>
<path d="M0 0 C15.77343264 16.07560568 16.11858672 38.40495657 15.99023438 59.453125 C15.96517922 62.0156283 15.93978453 64.57812831 15.9140625 67.140625 C15.89898565 69.76561731 15.88530257 72.39061801 15.87304688 75.015625 C15.84028602 81.3908108 15.79032547 87.76567778 15.7265625 94.140625 C16.28601563 94.28757812 16.84546875 94.43453125 17.421875 94.5859375 C25.35294517 96.804597 31.93972706 99.80340981 39.7265625 103.140625 C39.7265625 65.520625 39.7265625 27.900625 39.7265625 -10.859375 C59.8565625 -10.859375 79.9865625 -10.859375 100.7265625 -10.859375 C107.64160166 1.81819679 114.49492528 14.38699622 120.8515625 27.328125 C125.3626388 36.48446637 129.97968811 45.57000657 134.75462341 54.59187317 C139.55828632 63.68319189 144.21998844 72.84607302 148.88397217 82.00961304 C151.50172595 87.15244613 154.12363785 92.29315712 156.74609375 97.43359375 C157.26059082 98.44212906 157.77508789 99.45066437 158.30517578 100.48976135 C164.32145109 112.27574626 170.3998405 124.02928083 176.50341797 135.77026367 C177.59498113 137.88563028 178.66422516 140.01049172 179.7265625 142.140625 C179.59360816 133.28782764 179.4587416 124.43506016 179.32270432 115.58230972 C179.28910457 113.39336544 179.25564782 111.204419 179.22219849 109.01547241 C178.99040138 93.88078515 178.75130869 78.74653406 178.4375 63.61328125 C178.40277084 61.93726334 178.40277084 61.93726334 178.36734009 60.22738647 C178.321821 58.03773916 178.27625919 55.84809274 178.23065186 53.65844727 C177.78371929 32.14505555 177.63836995 10.65960647 177.7265625 -10.859375 C189.9365625 -10.859375 202.1465625 -10.859375 214.7265625 -10.859375 C214.7265625 50.850625 214.7265625 112.560625 214.7265625 176.140625 C150.51009226 176.39157562 150.51009226 176.39157562 123.44921875 176.49609375 C117.25797522 176.52000831 111.06673172 176.54393202 104.87548828 176.56787109 C104.09978977 176.57087003 103.32409126 176.57386896 102.52488673 176.57695878 C90.09170682 176.62504009 77.65852898 176.67363593 65.22535186 176.72243041 C52.41308986 176.77270084 39.60082573 176.82239845 26.78855956 176.87159204 C19.61425029 176.89915401 12.43994219 176.92696526 5.26563644 176.95542908 C-8.91059031 177.01155921 -23.08681789 177.06509561 -37.26309001 177.10872698 C-42.64677845 177.12530585 -48.03044962 177.14312645 -53.41411591 177.16586304 C-57.95500824 177.18502143 -62.49588809 177.19960234 -67.03680873 177.21001339 C-68.61765469 177.21443443 -70.19849709 177.22055904 -71.77932858 177.22863865 C-82.86646462 177.28397882 -93.5052586 176.94749628 -104.2734375 174.140625 C-105.28535156 173.89699219 -106.29726563 173.65335938 -107.33984375 173.40234375 C-118.13815704 170.50834479 -127.13744092 165.07565747 -133.7109375 155.86328125 C-143.31345621 139.1308924 -143.58956997 120.70700615 -143.5390625 101.94921875 C-143.54041493 100.14713997 -143.54236022 98.34506156 -143.54486084 96.54298401 C-143.54778423 92.794001 -143.54360481 89.04511426 -143.53417969 85.29614258 C-143.52277859 80.53374038 -143.52936673 75.77156357 -143.54132462 71.00916958 C-143.54861208 67.29672094 -143.54622412 63.58432421 -143.54106903 59.87187386 C-143.53975192 58.11751337 -143.54131069 56.36314789 -143.54602814 54.60879326 C-143.58556172 35.78706659 -143.27016244 14.59876244 -129.34375 0.13671875 C-102.83937631 -22.3386018 -27.00692202 -22.08813554 0 0 Z M-99.2734375 24.140625 C-104.21154495 29.93753375 -106.41559921 36.55435896 -106.2734375 44.140625 C-73.88357884 57.56000317 -73.88357884 57.56000317 -41.43832397 70.84469604 C-39.82994532 71.4996859 -38.22205367 72.15587292 -36.61465454 72.81326294 C-34.39293397 73.7214282 -32.16943321 74.62507552 -29.9453125 75.52734375 C-29.29227646 75.79515656 -28.63924042 76.06296936 -27.96641541 76.33889771 C-24.72347154 77.7026887 -24.72347154 77.7026887 -21.2734375 78.140625 C-21.19852342 73.2151206 -21.14447979 68.28995768 -21.10864258 63.36401367 C-21.09368166 61.69305636 -21.07330546 60.02213745 -21.04711914 58.35131836 C-20.44941541 40.49651381 -20.44941541 40.49651381 -28.2734375 25.140625 C-38.88754975 18.66525292 -48.00518667 17.95398532 -60.16601562 17.95532227 C-62.37129491 17.95315172 -64.57606002 17.93500887 -66.78125 17.91601562 C-83.93417555 17.55569478 -83.93417555 17.55569478 -99.2734375 24.140625 Z M74.7265625 21.140625 C74.42216483 44.43172981 74.92853448 67.67730777 75.7265625 90.953125 C75.75047813 91.65087917 75.77439377 92.34863335 75.79903412 93.06753159 C76.09788788 101.75893575 76.40729711 110.4499465 76.7265625 119.140625 C83.50226142 121.91871886 90.27934818 124.69340621 97.05737305 127.46582031 C99.3591202 128.40775961 101.6605581 129.350455 103.96166992 130.29394531 C107.28481725 131.65632771 110.60909733 133.01591352 113.93359375 134.375 C114.9486348 134.79183044 115.96367584 135.20866089 117.00947571 135.63812256 C123.52777431 138.29889862 130.09225028 140.78404004 136.7265625 143.140625 C135.34100399 138.60825573 133.52524526 134.57313201 131.33203125 130.375 C130.99238846 129.72074036 130.65274567 129.06648071 130.30281067 128.39239502 C129.56452715 126.97049414 128.82444474 125.54952616 128.08276367 124.12939453 C126.05111823 120.23756485 124.03466077 116.33790131 122.01953125 112.4375 C121.59300262 111.61213745 121.166474 110.7867749 120.72702026 109.93640137 C114.75033897 98.34272398 108.95974999 86.65501804 103.16088867 74.97167969 C98.60990165 65.81687531 93.96481727 56.72269859 89.18106079 47.68717957 C86.07312755 41.81535945 83.04761919 35.90802319 80.1015625 29.953125 C79.45380859 28.65084961 79.45380859 28.65084961 78.79296875 27.32226562 C77.76886737 25.26268396 76.74668043 23.20218165 75.7265625 21.140625 C75.3965625 21.140625 75.0665625 21.140625 74.7265625 21.140625 Z " fill="#FDFDFC" transform="translate(723.2734375,211.859375)"/>
<path d="M0 0 C20.13 0 40.26 0 61 0 C67.91503916 12.67757179 74.76836278 25.24637122 81.125 38.1875 C85.6360763 47.34384137 90.25312561 56.42938157 95.02806091 65.45124817 C99.83172382 74.54256689 104.49342594 83.70544802 109.15740967 92.86898804 C111.77516345 98.01182113 114.39707535 103.15253212 117.01953125 108.29296875 C117.53402832 109.30150406 118.04852539 110.31003937 118.57861328 111.34913635 C124.59488859 123.13512126 130.673278 134.88865583 136.77685547 146.62963867 C137.86841863 148.74500528 138.93766266 150.86986672 140 153 C139.86704566 144.14720264 139.7321791 135.29443516 139.59614182 126.44168472 C139.56254207 124.25274044 139.52908532 122.063794 139.49563599 119.87484741 C139.26383888 104.74016015 139.02474619 89.60590906 138.7109375 74.47265625 C138.67620834 72.79663834 138.67620834 72.79663834 138.64077759 71.08676147 C138.5952585 68.89711416 138.54969669 66.70746774 138.50408936 64.51782227 C138.05715679 43.00443055 137.91180745 21.51898147 138 0 C150.21 0 162.42 0 175 0 C175 61.71 175 123.42 175 187 C117.58 187 60.16 187 1 187 C0.39672692 143.56433824 -0.14843816 100.17857975 -0.06866455 56.746521 C-0.05613205 49.12986311 -0.05196069 41.5131956 -0.04621124 33.89653015 C-0.03683379 22.59766841 -0.01755694 11.29886513 0 0 Z M35 32 C34.69560233 55.29110481 35.20197198 78.53668277 36 101.8125 C36.02391563 102.51025417 36.04783127 103.20800835 36.07247162 103.92690659 C36.37132538 112.61831075 36.68073461 121.3093215 37 130 C43.77569892 132.77809386 50.55278568 135.55278121 57.33081055 138.32519531 C59.6325577 139.26713461 61.9339956 140.20983 64.23510742 141.15332031 C67.55825475 142.51570271 70.88253483 143.87528852 74.20703125 145.234375 C75.2220723 145.65120544 76.23711334 146.06803589 77.28291321 146.49749756 C83.80121181 149.15827362 90.36568778 151.64341504 97 154 C95.61444149 149.46763073 93.79868276 145.43250701 91.60546875 141.234375 C91.26582596 140.58011536 90.92618317 139.92585571 90.57624817 139.25177002 C89.83796465 137.82986914 89.09788224 136.40890116 88.35620117 134.98876953 C86.32455573 131.09693985 84.30809827 127.19727631 82.29296875 123.296875 C81.86644012 122.47151245 81.4399115 121.6461499 81.00045776 120.79577637 C75.02377647 109.20209898 69.23318749 97.51439304 63.43432617 85.83105469 C58.88333915 76.67625031 54.23825477 67.58207359 49.45449829 58.54655457 C46.34656505 52.67473445 43.32105669 46.76739819 40.375 40.8125 C39.72724609 39.51022461 39.72724609 39.51022461 39.06640625 38.18164062 C38.04230487 36.12205896 37.02011793 34.06155665 36 32 C35.67 32 35.34 32 35 32 Z " fill="#FDFDFD" transform="translate(763,201)"/>
<path d="M0 0 C10.12539953 3.37513318 10.12539953 3.37513318 14.43920898 5.13793945 C15.41101105 5.53343994 16.38281311 5.92894043 17.38406372 6.33642578 C18.41103363 6.75778809 19.43800354 7.17915039 20.49609375 7.61328125 C21.59138397 8.06002197 22.68667419 8.5067627 23.81515503 8.96704102 C27.35712845 10.41262961 30.89737223 11.86239811 34.4375 13.3125 C36.87061659 14.30705667 39.30380377 15.30144064 41.73706055 16.2956543 C47.72748327 18.74429479 53.71634057 21.19673831 59.70471191 23.65039062 C63.6446873 25.26403641 67.58586596 26.87472637 71.52714539 28.48518372 C74.7306672 29.79482358 77.93320795 31.10684408 81.13528442 32.42001343 C82.58198717 33.01304739 84.0289867 33.60535786 85.47628784 34.19692993 C87.43964689 34.99990423 89.40166367 35.80606391 91.36328125 36.61328125 C92.43876221 37.05454346 93.51424316 37.49580566 94.62231445 37.95043945 C97 39 97 39 98 40 C98.07927852 42.75573232 98.09365872 45.48604195 98.06591797 48.24145508 C98.05890869 49.53947807 98.05890869 49.53947807 98.05175781 50.86372375 C98.04121976 52.75331153 98.02854576 54.64288828 98.01403427 56.53244972 C97.99202707 59.54146648 97.97793234 62.55042014 97.96633911 65.55949402 C97.93277047 74.11958481 97.89191742 82.67957498 97.82861328 91.23950195 C97.79048299 96.47321489 97.76778934 101.7068172 97.75430679 106.94064903 C97.74635501 108.91977682 97.7328968 110.89889174 97.71337509 112.87793922 C97.52121754 132.74408101 97.53526438 154.98016868 111.00390625 170.96875 C120.45850441 180.5898675 132.15568247 183.38759644 145 186 C145 186.33 145 186.66 145 187 C125.86 187 106.72 187 87 187 C87 176.44 87 165.88 87 155 C58.29 155 29.58 155 0 155 C0 103.85 0 52.7 0 0 Z " fill="#EE7F1A" transform="translate(483,201)"/>
<path d="M0 0 C48.18 0 96.36 0 146 0 C146 10.23 146 20.46 146 31 C127.85 31 109.7 31 91 31 C91.16371094 36.70023438 91.32742187 42.40046875 91.49609375 48.2734375 C92.18139877 75.0904589 92.11579996 101.90610912 92.06866455 128.72998047 C92.05822029 135.32909817 92.05382296 141.92822007 92.04882812 148.52734375 C92.03827481 161.35157479 92.02076978 174.17578144 92 187 C79.79 187 67.58 187 55 187 C55 143.77 55 100.54 55 56 C52.03 55.01 49.06 54.02 46 53 C43.16757302 51.76190205 40.38144599 50.50052019 37.59765625 49.1640625 C36.45374672 48.62221817 36.45374672 48.62221817 35.28672791 48.06942749 C32.87633439 46.92608924 30.4694483 45.77557019 28.0625 44.625 C26.45398955 43.86152917 24.84526704 43.09850496 23.23632812 42.3359375 C15.44799751 38.63663353 7.71387471 34.85693735 0 31 C0 20.77 0 10.54 0 0 Z " fill="#FDFCFC" transform="translate(108,201)"/>
<path d="M0 0 C12.21 0 24.42 0 37 0 C37 51.15 37 102.3 37 155 C65.71 155 94.42 155 124 155 C124 165.56 124 176.12 124 187 C83.08 187 42.16 187 0 187 C0 125.29 0 63.58 0 0 Z " fill="#FDFAF7" transform="translate(446,201)"/>
<path d="M0 0 C25.74 0 51.48 0 78 0 C78 61.71 78 123.42 78 187 C62 180 62 180 60 178 C59.23050068 176.0249765 58.53836422 174.01961926 57.8828125 172.00390625 C57.67411026 171.36931488 57.46540802 170.73472351 57.25038147 170.0809021 C56.78627929 168.66834974 56.32481862 167.25492761 55.86557007 165.84078979 C54.54808837 161.78768903 53.20789433 157.74207375 51.87109375 153.6953125 C51.57360733 152.79314499 51.27612091 151.89097748 50.96961975 150.96147156 C46.77677154 138.26403286 42.48059843 125.60131177 38.1875 112.9375 C37.97235371 112.30257378 37.75720741 111.66764755 37.53554153 111.01348114 C31.20365967 92.32749312 24.78614758 73.67324226 18.26416016 55.05273438 C14.29197272 43.71199218 10.34373181 32.36344118 6.44210815 20.99819946 C5.8609664 19.30639004 5.27873145 17.61495569 4.69534302 15.92391968 C3.8993253 13.61567419 3.10726687 11.30611038 2.31640625 8.99609375 C2.07974243 8.31194397 1.84307861 7.62779419 1.59924316 6.9229126 C0 2.22902022 0 2.22902022 0 0 Z " fill="#EF7F1A" transform="translate(368,201)"/>
<path d="M0 0 C20.13 0 40.26 0 61 0 C59.15660594 6.75911156 57.30265623 13.37866389 55.06640625 19.99609375 C54.7923999 20.81532822 54.51839355 21.63456268 54.23608398 22.47862244 C53.34774378 25.13254817 52.45517703 27.78503022 51.5625 30.4375 C50.93777126 32.30084399 50.31334526 34.16428951 49.68920898 36.02783203 C48.73326187 38.88164171 47.77699328 41.7353407 46.81947327 44.58862305 C44.75457817 50.74182261 42.70052373 56.89851404 40.65625 63.05859375 C35.5581138 78.41574261 30.43782389 93.7587753 25 109 C20.36085974 108.34795494 16.40643225 106.50610807 12.2109375 104.52734375 C11.44634216 104.17220703 10.68174683 103.81707031 9.89398193 103.45117188 C7.38534669 102.28483396 4.88021341 101.11116727 2.375 99.9375 C-0.24627436 98.7163571 -2.86841575 97.49709011 -5.4906311 96.27796936 C-7.28793168 95.44226418 -9.08494622 94.60594359 -10.88168335 93.76902771 C-17.01825805 90.91261725 -23.16772307 88.08588055 -29.328125 85.28125 C-30.14054657 84.91125381 -30.95296814 84.54125763 -31.79000854 84.16004944 C-34.92280756 82.73404349 -38.05601606 81.30895793 -41.19073486 79.88717651 C-43.33374457 78.91494151 -45.47555565 77.94010916 -47.6171875 76.96484375 C-48.25384338 76.67714111 -48.89049927 76.38943848 -49.54644775 76.09301758 C-53.88656057 74.11343943 -53.88656057 74.11343943 -55 73 C-55.08873532 69.89769856 -55.11525687 66.81712641 -55.09765625 63.71484375 C-55.09664917 62.8902063 -55.09564209 62.06556885 -55.09460449 61.21594238 C-55.08935592 58.12311419 -55.07539477 55.03030576 -55.0625 51.9375 C-55.041875 45.028125 -55.02125 38.11875 -55 31 C-36.85 31 -18.7 31 0 31 C0 20.77 0 10.54 0 0 Z " fill="#EE7F1A" transform="translate(254,201)"/>
<path d="M0 0 C5.1667093 0.61586891 9.44423962 2.23632443 14.18359375 4.25390625 C14.98031998 4.58680161 15.7770462 4.91969696 16.59791565 5.26268005 C19.21356528 6.35686331 21.82547799 7.45968849 24.4375 8.5625 C27.18259282 9.71357211 29.92861341 10.86241029 32.67471313 12.01107788 C34.56773338 12.80302544 36.46045038 13.59569822 38.35287476 14.3890686 C45.00487896 17.17547778 51.67095889 19.92566766 58.34765625 22.65234375 C59.25035751 23.02114151 60.15305878 23.38993927 61.08311462 23.76991272 C64.58637646 25.20038196 68.09004212 26.62983839 71.59518433 28.05569458 C74.00183034 29.03500265 76.40725717 30.01725184 78.8125 31 C79.53031143 31.29087997 80.24812286 31.58175995 80.98768616 31.88145447 C85.88653476 33.88653476 85.88653476 33.88653476 87 35 C87.24705902 39.57021762 87.22872801 44.1467215 87.24023438 48.72290039 C87.24974419 51.00121428 87.28064899 53.27854666 87.3125 55.55664062 C87.40799074 68.75288597 87.32484993 85.00925462 77.9375 95.25 C67.52487509 101.45326591 56.83986105 102.18669646 45.0168457 102.18530273 C42.96739258 102.18746841 40.91849732 102.20559956 38.86914062 102.22460938 C15.17063872 102.32768602 15.17063872 102.32768602 5.98576355 94.22254944 C-1.48056301 85.86592515 -0.61785188 72.53953937 -0.64453125 61.97265625 C-0.66210465 60.36891465 -0.6812336 58.76518942 -0.701828 57.16148376 C-0.74082403 53.82761135 -0.76752836 50.49397113 -0.78393555 47.15991211 C-0.80501164 42.89742572 -0.84765218 38.63551299 -0.89822865 34.37328434 C-0.94592074 30.28147133 -0.98320415 26.18958338 -1.01953125 22.09765625 C-1.0310469 20.93870189 -1.0310469 20.93870189 -1.04279518 19.7563343 C-1.06264739 17.56289056 -1.07511764 15.36953324 -1.08520508 13.17602539 C-1.09312576 11.93172256 -1.10104645 10.68741974 -1.10920715 9.40541077 C-1.00564391 6.17599424 -0.61422675 3.16813988 0 0 Z " fill="#EE7F1A" transform="translate(616,256)"/>
<path d="M0 0 C5.70143708 0.61782082 10.54709026 2.67257691 15.7890625 4.859375 C16.72873871 5.24563049 17.66841492 5.63188599 18.63656616 6.02984619 C21.63515903 7.26405468 24.63008383 8.50690004 27.625 9.75 C29.6156513 10.57088046 31.6065346 11.39119857 33.59765625 12.2109375 C38.27457793 14.13794881 42.94760202 16.07419122 47.6192627 18.01391602 C49.67480038 18.86530469 51.73246564 19.71105539 53.79199219 20.55273438 C54.81711914 20.97361328 55.84224609 21.39449219 56.8984375 21.828125 C57.71747559 22.16231445 58.53651367 22.49650391 59.38037109 22.84082031 C61.5137139 23.78481953 63.56542377 24.79029575 65.63964844 25.85327148 C70.60177873 28.35620694 75.71924388 30.43261843 80.8671875 32.51953125 C82.41758224 33.15202034 82.41758224 33.15202034 83.9992981 33.79728699 C86.18219259 34.68706973 88.36570734 35.57533214 90.54980469 36.4621582 C93.83151499 37.794841 97.11122783 39.13233988 100.390625 40.47070312 C102.52847114 41.34157479 104.66649021 42.21202209 106.8046875 43.08203125 C107.84542419 43.50549835 108.88616089 43.92896545 109.95843506 44.36526489 C114.80559977 46.32958381 119.65976404 48.26607004 124.54785156 50.12646484 C125.81279953 50.60873787 125.81279953 50.60873787 127.103302 51.10075378 C128.6633641 51.6917938 130.2258144 52.27658242 131.79098511 52.85395813 C136.89089624 54.78179248 136.89089624 54.78179248 138 57 C92.79 57 47.58 57 1 57 C-0.15033784 27.09121622 -0.15033784 27.09121622 -0.0625 13.875 C-0.05744486 12.50000174 -0.05288945 11.12500155 -0.04882812 9.75 C-0.03738427 6.4999456 -0.02119709 3.25000266 0 0 Z " fill="#EF801C" transform="translate(799,331)"/>
<path d="M0 0 C2.81870624 2.81870624 3.5233 6.19481743 4.6953125 9.9140625 C4.96011414 10.73618729 5.22491577 11.55831207 5.4977417 12.40534973 C6.37884667 15.14354577 7.25182538 17.88426583 8.125 20.625 C9.37672736 24.5258634 10.63318524 28.4251934 11.890625 32.32421875 C12.21864105 33.34276443 12.5466571 34.36131012 12.88461304 35.41072083 C15.36459365 43.09016687 17.90977097 50.74633439 20.484375 58.39453125 C20.85219086 59.48872375 21.22000671 60.58291626 21.59896851 61.71026611 C23.0484053 66.01974048 24.49872537 70.32886883 25.96002197 74.63433838 C26.97588091 77.62821802 27.98460821 80.62441947 28.9921875 83.62109375 C29.29775574 84.51399612 29.60332397 85.4068985 29.91815186 86.32685852 C30.19378967 87.1502623 30.46942749 87.97366608 30.75341797 88.82202148 C30.99542938 89.53615707 31.2374408 90.25029266 31.48678589 90.98606873 C32 93 32 93 32 97 C11.21 97 -9.58 97 -31 97 C-29.87498901 89.1249231 -29.87498901 89.1249231 -28.78552246 85.83085632 C-28.4196125 84.71008949 -28.4196125 84.71008949 -28.04631042 83.56668091 C-27.78030533 82.77212494 -27.51430023 81.97756897 -27.24023438 81.15893555 C-26.95884109 80.30281174 -26.67744781 79.44668793 -26.38752747 78.56462097 C-25.46193085 75.75341561 -24.52796996 72.94506897 -23.59375 70.13671875 C-22.94691671 68.17868845 -22.30056138 66.22050019 -21.65466309 64.26216125 C-20.30312124 60.16829624 -18.94778221 56.0757164 -17.58935547 51.98413086 C-15.84567684 46.73207573 -14.10847697 41.47790806 -12.37371063 36.22290325 C-10.72002791 31.21430097 -9.06331843 26.20670171 -7.40625 21.19921875 C-7.08931686 20.24074224 -6.77238373 19.28226574 -6.44584656 18.29474449 C-5.55215159 15.59397121 -4.65632677 12.89391476 -3.75976562 10.1940918 C-3.49376053 9.38941467 -3.22775543 8.58473755 -2.95368958 7.75567627 C-1.11488161 2.22976322 -1.11488161 2.22976322 0 0 Z " fill="#EF801D" transform="translate(342,228)"/>
<path d="M0 0 C6.03363131 1.71557196 11.81325701 3.61325608 17.5625 6.125 C19.35880859 6.90230469 19.35880859 6.90230469 21.19140625 7.6953125 C24 9 24 9 25 10 C25.09436529 12.23929886 25.11742327 14.4816175 25.11352539 16.72290039 C25.11364593 17.43669829 25.11376646 18.1504962 25.11389065 18.88592434 C25.11314165 21.20653287 25.10551405 23.52706201 25.09765625 25.84765625 C25.09618679 27.2763261 25.0951661 28.70499649 25.09460449 30.13366699 C25.08935208 35.44328618 25.07539099 40.75289386 25.0625 46.0625 C25.041875 57.921875 25.02125 69.78125 25 82 C-0.08 82 -25.16 82 -51 82 C-47.59115017 80.29557508 -45.14714336 79.48653813 -41.5 78.6875 C-35.00471646 77.10928092 -29.02444124 74.88927284 -23 72 C-22.34257813 71.68933594 -21.68515625 71.37867188 -21.0078125 71.05859375 C-12.2937826 65.93859922 -6.41369367 53.53277553 -3.78198242 44.15673828 C-1.25118835 33.94032636 -0.63948191 23.67310567 -0.375 13.1875 C-0.33632813 11.91068359 -0.29765625 10.63386719 -0.2578125 9.31835938 C-0.16474921 6.21237223 -0.0789185 3.10637314 0 0 Z " fill="#EE7F1B" transform="translate(739,306)"/>
<path d="M0 0 C6.27 0 12.54 0 19 0 C26.6633615 13.85198677 34.00241141 27.79901139 41 42 C41 28.14 41 14.28 41 0 C44.96 0 48.92 0 53 0 C53 18.48 53 36.96 53 56 C46.73 56 40.46 56 34 56 C26.3366385 42.14801323 18.99758859 28.20098861 12 14 C12 27.86 12 41.72 12 56 C8.04 56 4.08 56 0 56 C0 37.52 0 19.04 0 0 Z " fill="#FCFCFC" transform="translate(601,404)"/>
<path d="M0 0 C8.91 -0.12375 8.91 -0.12375 18 -0.25 C19.85882813 -0.28641602 21.71765625 -0.32283203 23.6328125 -0.36035156 C25.13019664 -0.37204988 26.62759365 -0.38223899 28.125 -0.390625 C29.26195312 -0.4213208 29.26195312 -0.4213208 30.421875 -0.45263672 C36.05405676 -0.4562657 40.27595337 0.89350414 45 4 C46.62109375 5.9296875 46.62109375 5.9296875 47.4375 7.875 C47.72496094 8.51179688 48.01242187 9.14859375 48.30859375 9.8046875 C51.55324113 20.10690121 52.12727256 36.90676474 48 47 C45.09386925 51.67088084 42.28519609 54.32816125 37 56 C34.1051919 56.16580474 31.30935295 56.23356908 28.41796875 56.1953125 C27.69565063 56.19329834 26.97333252 56.19128418 26.22912598 56.18920898 C23.54851875 56.17879886 20.86800254 56.15087645 18.1875 56.125 C12.185625 56.08375 6.18375 56.0425 0 56 C0 37.52 0 19.04 0 0 Z M12 10 C12 21.88 12 33.76 12 46 C15.196875 46.103125 18.39375 46.20625 21.6875 46.3125 C23.18543091 46.38078003 23.18543091 46.38078003 24.71362305 46.45043945 C29.22439773 46.5208848 31.35074033 46.47809869 35.08203125 43.73046875 C38.80008434 38.43735448 38.21585598 32.8236605 38.25 26.5625 C38.270625 25.62083984 38.29125 24.67917969 38.3125 23.70898438 C38.36668069 16.8532148 38.36668069 16.8532148 35 11 C32.54724859 9.7736243 30.9494219 9.88584686 28.2109375 9.90234375 C27.36321777 9.90484131 26.51549805 9.90733887 25.64208984 9.90991211 C24.5639502 9.91901611 23.48581055 9.92812012 22.375 9.9375 C17.239375 9.9684375 17.239375 9.9684375 12 10 Z " fill="#FCFCFC" transform="translate(321,404)"/>
<path d="M0 0 C0.79470703 -0.01611328 1.58941406 -0.03222656 2.40820312 -0.04882812 C9.13022464 -0.05429763 15.74583738 0.92917009 21 5.375 C24.99844457 12.89207579 24.87840991 21.61088154 24.8125 29.9375 C24.82410156 31.41476562 24.82410156 31.41476562 24.8359375 32.921875 C24.81591453 40.43048974 24.44746213 48.20629733 19.5625 54.3125 C13.14509025 58.13563773 7.65034834 58.51741651 0.375 58.5625 C-0.84413086 58.5934375 -0.84413086 58.5934375 -2.08789062 58.625 C-8.91001097 58.66841843 -15.59197078 57.79321778 -20.875 53.1875 C-24.89762306 45.78587357 -24.74940114 37.54535111 -24.6875 29.3125 C-24.69523438 28.28382813 -24.70296875 27.25515625 -24.7109375 26.1953125 C-24.67212124 10.94052051 -24.67212124 10.94052051 -20.3125 4.875 C-14.6418694 -0.17925771 -7.26395776 -0.02931379 0 0 Z M-10.4375 12.3125 C-13.73197008 17.32040944 -12.76567162 23.49224765 -12.75 29.25 C-12.76611328 30.43013672 -12.78222656 31.61027344 -12.79882812 32.82617188 C-12.79947266 33.96505859 -12.80011719 35.10394531 -12.80078125 36.27734375 C-12.80376221 37.3149585 -12.80674316 38.35257324 -12.80981445 39.42163086 C-12.37905493 42.76630201 -11.47336591 44.64010878 -9.4375 47.3125 C-6.27740467 48.36586511 -3.8821864 48.51282888 -0.5625 48.5625 C0.46617187 48.58828125 1.49484375 48.6140625 2.5546875 48.640625 C6.05374678 48.25890944 7.82104423 47.50948546 10.5625 45.3125 C12.36097979 41.69091978 12.81861998 38.7337683 12.828125 34.71484375 C12.83070313 33.66619141 12.83328125 32.61753906 12.8359375 31.53710938 C12.82820312 30.45236328 12.82046875 29.36761719 12.8125 28.25 C12.82023438 27.16138672 12.82796875 26.07277344 12.8359375 24.95117188 C12.83207031 23.38012695 12.83207031 23.38012695 12.828125 21.77734375 C12.82586914 20.824646 12.82361328 19.87194824 12.82128906 18.89038086 C12.55054427 16.19340515 12.03149772 14.57683322 10.5625 12.3125 C7.04536158 10.40939086 4.02448472 10.04024166 0.0625 10.0625 C-0.8553125 10.05734375 -1.773125 10.0521875 -2.71875 10.046875 C-5.70634369 10.33876634 -7.79550073 10.88292505 -10.4375 12.3125 Z " fill="#FBFBFB" transform="translate(570.4375,402.6875)"/>
<path d="M0 0 C8.971875 -0.12375 8.971875 -0.12375 18.125 -0.25 C20.00203613 -0.28641602 21.87907227 -0.32283203 23.81298828 -0.36035156 C25.31541808 -0.37204362 26.81786064 -0.38223423 28.3203125 -0.390625 C29.08851318 -0.41108887 29.85671387 -0.43155273 30.64819336 -0.45263672 C35.89568893 -0.45601675 38.83941364 0.52225344 43 4 C45.90038153 8.39026172 46.38617495 11.8542478 46.3125 17.0625 C46.30863281 18.24972656 46.30476563 19.43695313 46.30078125 20.66015625 C45.84316703 25.741457 44.19350769 29.0806951 41 33 C41.9590625 34.051875 41.9590625 34.051875 42.9375 35.125 C47.30992776 41.2198993 46.0801208 48.78912801 46 56 C42.04 56 38.08 56 34 56 C33.90912109 54.66195312 33.90912109 54.66195312 33.81640625 53.296875 C33.73261719 52.12640625 33.64882812 50.9559375 33.5625 49.75 C33.48128906 48.58984375 33.40007812 47.4296875 33.31640625 46.234375 C33.0644608 42.84154434 33.0644608 42.84154434 32 39 C25.07 38.67 18.14 38.34 11 38 C11 43.94 11 49.88 11 56 C7.37 56 3.74 56 0 56 C0 37.52 0 19.04 0 0 Z M11 10 C11 15.94 11 21.88 11 28 C14.08427046 28.10800947 17.16475747 28.18731002 20.25 28.25 C21.55904297 28.30027344 21.55904297 28.30027344 22.89453125 28.3515625 C28.02584646 28.45438599 28.02584646 28.45438599 32.5859375 26.33203125 C34.31550362 23.4796805 34.47434848 21.7566424 34.375 18.4375 C34.36210937 17.48746094 34.34921875 16.53742188 34.3359375 15.55859375 C34.16034356 12.76204684 34.16034356 12.76204684 32 10 C29.77501085 9.58429992 29.77501085 9.58429992 27.2109375 9.70703125 C25.79941406 9.7215332 25.79941406 9.7215332 24.359375 9.73632812 C22.88210937 9.7740332 22.88210937 9.7740332 21.375 9.8125 C20.38242188 9.82603516 19.38984375 9.83957031 18.3671875 9.85351562 C15.91122839 9.88893811 13.45554718 9.94274631 11 10 Z " fill="#FCFCFC" transform="translate(215,404)"/>
<path d="M0 0 C0.79019531 -0.01160156 1.58039062 -0.02320313 2.39453125 -0.03515625 C9.09924495 -0.00223622 15.81862234 0.96863544 20.9375 5.5625 C25.08734994 13.03222989 24.83619494 20.98609689 24.8125 29.3125 C24.82861328 30.44107422 24.84472656 31.56964844 24.86132812 32.73242188 C24.8660185 40.79517609 24.26074163 47.77069843 19.25 54.3125 C13.45764835 58.65676374 7.1062034 58.71538021 0.125 58.6875 C-0.67421875 58.70361328 -1.4734375 58.71972656 -2.296875 58.73632812 C-9.03125978 58.74177666 -15.61332599 57.74355303 -20.9375 53.375 C-26.99570377 41.74324875 -26.06007714 22.9792639 -23.17578125 10.44140625 C-22.13014457 7.24405478 -21.11767584 5.52283658 -18.5 3.375 C-12.38990112 0.63975303 -6.63166926 -0.09736545 0 0 Z M-11.5 13.375 C-13.20809621 18.49928862 -12.72680315 23.88572927 -12.75 29.25 C-12.770625 30.43464844 -12.79125 31.61929687 -12.8125 32.83984375 C-12.81765625 33.98324219 -12.8228125 35.12664062 -12.828125 36.3046875 C-12.8374707 37.34866699 -12.84681641 38.39264648 -12.85644531 39.46826172 C-12.44403648 42.83137098 -11.54819829 44.69266416 -9.5 47.375 C-6.32454097 48.43348634 -3.95991204 48.54170878 -0.625 48.5625 C0.40367187 48.57667969 1.43234375 48.59085937 2.4921875 48.60546875 C5.6703269 48.36194898 7.7406509 47.97580706 10.5 46.375 C12.36246063 42.69864355 12.75635874 39.64865408 12.765625 35.55859375 C12.76820313 34.46482422 12.77078125 33.37105469 12.7734375 32.24414062 C12.76570312 31.11169922 12.75796875 29.97925781 12.75 28.8125 C12.75773438 27.67619141 12.76546875 26.53988281 12.7734375 25.36914062 C12.76957031 23.73041992 12.76957031 23.73041992 12.765625 22.05859375 C12.76336914 21.06400146 12.76111328 20.06940918 12.75878906 19.04467773 C12.49247545 16.29737641 12.00361459 14.67361047 10.5 12.375 C3.81177701 8.77364916 -5.28706904 8.96054905 -11.5 13.375 Z " fill="#FCFCFC" transform="translate(767.5,402.625)"/>
<path d="M0 0 C0.80824219 -0.020625 1.61648438 -0.04125 2.44921875 -0.0625 C9.27337776 -0.10617462 16.02260802 0.7324074 21.1875 5.5 C25.56448049 13.20348566 25.08407635 21.09356769 25.0625 29.75 C25.07861328 31.04292969 25.09472656 32.33585937 25.11132812 33.66796875 C25.1155962 41.97364043 24.78906854 47.45116433 19.5 54.0625 C13.80290965 58.59427641 7.37099982 58.5904393 0.375 58.5625 C-0.42421875 58.57861328 -1.2234375 58.59472656 -2.046875 58.61132812 C-7.76755783 58.61595651 -13.08277562 57.83630415 -18.25 55.25 C-22.74834761 49.85198287 -23.41360121 45.31257328 -23.453125 38.51171875 C-23.45882507 37.75333206 -23.46452515 36.99494537 -23.47039795 36.21357727 C-23.47983856 34.60895173 -23.48637821 33.00430688 -23.49023438 31.3996582 C-23.49992327 28.95684545 -23.5309474 26.51488039 -23.5625 24.07226562 C-23.56903227 22.51042164 -23.57428186 20.94857166 -23.578125 19.38671875 C-23.5904718 18.66151535 -23.6028186 17.93631195 -23.61553955 17.18913269 C-23.59499345 12.46122075 -22.7689623 9.25194761 -20.25 5.25 C-13.83540212 0.09043214 -7.88590541 0.04936404 0 0 Z M-10.25 12.25 C-12.06221831 15.8457461 -12.50610647 18.81471723 -12.515625 22.8125 C-12.51820313 23.85664063 -12.52078125 24.90078125 -12.5234375 25.9765625 C-12.51570313 27.05679687 -12.50796875 28.13703125 -12.5 29.25 C-12.50773437 30.33023437 -12.51546875 31.41046875 -12.5234375 32.5234375 C-12.52085937 33.56757813 -12.51828125 34.61171875 -12.515625 35.6875 C-12.51336914 36.63496094 -12.51111328 37.58242188 -12.50878906 38.55859375 C-12.2282833 41.47585365 -11.53527222 43.62376139 -10.25 46.25 C-7.11332938 48.56931993 -4.12883652 48.51925012 -0.3125 48.5 C0.70714844 48.50515625 1.72679687 48.5103125 2.77734375 48.515625 C5.88984173 48.23750429 8.01243956 47.754468 10.75 46.25 C14.04118391 41.23728476 13.07818063 35.07356313 13.0625 29.3125 C13.07861328 28.13236328 13.09472656 26.95222656 13.11132812 25.73632812 C13.11197266 24.59744141 13.11261719 23.45855469 13.11328125 22.28515625 C13.11626221 21.2475415 13.11924316 20.20992676 13.12231445 19.14086914 C12.69490912 15.82224186 11.7169912 13.9333571 9.75 11.25 C6.7395592 9.9452635 3.56623329 10.08506403 0.3125 10.0625 C-0.61433594 10.04832031 -1.54117187 10.03414063 -2.49609375 10.01953125 C-5.55218982 10.27528964 -7.58131237 10.72568957 -10.25 12.25 Z " fill="#FCFCFC" transform="translate(290.25,402.75)"/>
<path d="M0 0 C0.85464844 -0.01160156 1.70929687 -0.02320313 2.58984375 -0.03515625 C9.17274927 -0.00482028 14.13764985 0.9978275 19.25 5.4375 C21.62235614 9.72598995 21.61485837 13.49734438 21.875 18.375 C17.915 18.375 13.955 18.375 9.875 18.375 C9.38 14.91 9.38 14.91 8.875 11.375 C6.08326945 11.34809896 3.29179652 11.32820947 0.5 11.3125 C-0.2940625 11.30412109 -1.088125 11.29574219 -1.90625 11.28710938 C-6.14892222 11.14459849 -6.14892222 11.14459849 -10.125 12.375 C-10.125 15.345 -10.125 18.315 -10.125 21.375 C-3.81067395 23.09449444 2.27408376 23.95418906 8.78320312 24.49804688 C13.19383406 24.93950768 16.34673787 25.6366473 19.875 28.375 C23.49738996 34.49558992 23.9021238 40.73303739 22.37109375 47.65234375 C20.88956138 52.19853165 19.09401647 54.86368067 14.875 57.375 C9.75709985 58.64733304 4.74229385 58.55885952 -0.5 58.5625 C-1.42039062 58.57474609 -2.34078125 58.58699219 -3.2890625 58.59960938 C-8.6235134 58.61104034 -13.12295288 58.29332435 -18.125 56.375 C-23.53592487 50.67928961 -23.22239025 46.97143989 -23.125 39.375 C-19.495 39.375 -15.865 39.375 -12.125 39.375 C-11.815625 40.509375 -11.50625 41.64375 -11.1875 42.8125 C-10.49575469 46.16275099 -10.49575469 46.16275099 -9.125 47.375 C-6.48570903 47.52851581 -3.89060041 47.60663061 -1.25 47.625 C-0.51652344 47.645625 0.21695313 47.66625 0.97265625 47.6875 C5.0233737 47.79288338 5.0233737 47.79288338 8.59814453 46.14746094 C10.25213786 43.85147784 10.18420357 42.48668221 10.0625 39.6875 C10.03542969 38.87925781 10.00835938 38.07101562 9.98046875 37.23828125 C9.92826172 36.31595703 9.92826172 36.31595703 9.875 35.375 C9.25044922 35.33536133 8.62589844 35.29572266 7.98242188 35.25488281 C5.11178749 35.06258643 2.24371692 34.84398602 -0.625 34.625 C-2.09839844 34.5321875 -2.09839844 34.5321875 -3.6015625 34.4375 C-9.70712705 33.94905484 -15.08419241 33.07175195 -20.125 29.375 C-23.76895094 23.79520013 -23.93086012 17.90621515 -23.125 11.375 C-22.32929394 8.1444334 -21.29266275 5.89958857 -19.125 3.375 C-13.11188869 0.19626969 -6.66008728 -0.09123407 0 0 Z " fill="#FBFBFB" transform="translate(875.125,402.625)"/>
<path d="M0 0 C3.96 0 7.92 0 12 0 C12 7.26 12 14.52 12 22 C20.25 22 28.5 22 37 22 C37 14.74 37 7.48 37 0 C40.96 0 44.92 0 49 0 C49 18.48 49 36.96 49 56 C45.04 56 41.08 56 37 56 C37 48.41 37 40.82 37 33 C28.75 33 20.5 33 12 33 C12 40.59 12 48.18 12 56 C8.04 56 4.08 56 0 56 C0 37.52 0 19.04 0 0 Z " fill="#FDFDFD" transform="translate(688,404)"/>
<path d="M0 0 C3.96 0 7.92 0 12 0 C12.33 14.52 12.66 29.04 13 44 C17.54571555 45.81828622 19.83659455 46.29607159 24.5625 46.3125 C25.67753906 46.32925781 26.79257812 46.34601563 27.94140625 46.36328125 C31.52467551 45.93768222 32.60861119 45.69770154 35 43 C35.63957224 39.7790875 35.60502478 36.57622588 35.609375 33.30078125 C35.62591125 32.35059616 35.64244751 31.40041107 35.65948486 30.4214325 C35.70808959 27.38505674 35.72936352 24.34918223 35.75 21.3125 C35.77814924 19.2545319 35.80807518 17.19658728 35.83984375 15.13867188 C35.91385197 10.09248916 35.9633504 5.04658676 36 0 C39.96 0 43.92 0 48 0 C48.04966889 5.83494851 48.08584653 11.66977222 48.10986328 17.50488281 C48.11988215 19.48732651 48.133501 21.46975559 48.15087891 23.45214844 C48.17530882 26.31188584 48.1865245 29.17142679 48.1953125 32.03125 C48.20563507 32.90865845 48.21595764 33.78606689 48.22659302 34.69006348 C48.22777835 41.2833291 47.91675829 47.40673879 43.875 52.875 C37.72203409 57.42284437 30.37552093 57.34043758 23 57.3125 C21.72382812 57.33666992 21.72382812 57.33666992 20.421875 57.36132812 C14.6083143 57.36578638 10.27646312 56.48922845 5 54 C1.12075133 49.32500801 -0.13063699 45.46167421 -0.11352539 39.50683594 C-0.11341209 38.18591949 -0.11341209 38.18591949 -0.11329651 36.83831787 C-0.10813522 35.89651672 -0.10297394 34.95471558 -0.09765625 33.984375 C-0.0962413 33.01340881 -0.09482635 32.04244263 -0.09336853 31.04205322 C-0.08777663 27.94467065 -0.07522559 24.84736068 -0.0625 21.75 C-0.05748395 19.64843854 -0.05292123 17.54687596 -0.04882812 15.4453125 C-0.03780985 10.29684708 -0.02055074 5.14843584 0 0 Z " fill="#FCFCFC" transform="translate(798,404)"/>
<path d="M0 0 C5.81625 -0.061875 11.6325 -0.12375 17.625 -0.1875 C19.4498291 -0.21481201 21.2746582 -0.24212402 23.15478516 -0.27026367 C24.61620422 -0.27903313 26.07763067 -0.28667598 27.5390625 -0.29296875 C28.65897583 -0.3159906 28.65897583 -0.3159906 29.80151367 -0.33947754 C34.60072151 -0.34186046 37.832795 0.36528405 42 3 C47.10539582 9.86587713 46.5149077 17.77067158 46 26 C45.17958679 29.99951439 43.99417446 33.03689349 41 35.9375 C37.36357066 37.86935309 34.50692935 38.11908428 30.45703125 38.09765625 C29.38388672 38.09443359 28.31074219 38.09121094 27.20507812 38.08789062 C26.08552734 38.07951172 24.96597656 38.07113281 23.8125 38.0625 C22.68134766 38.05798828 21.55019531 38.05347656 20.38476562 38.04882812 C17.58982124 38.03703511 14.79490401 38.01909957 12 38 C12 43.94 12 49.88 12 56 C8.04 56 4.08 56 0 56 C0 37.52 0 19.04 0 0 Z M12 10 C12 15.94 12 21.88 12 28 C15.10468645 28.08083562 18.20727569 28.14041718 21.3125 28.1875 C22.63411133 28.22520508 22.63411133 28.22520508 23.98242188 28.26367188 C24.82998047 28.27333984 25.67753906 28.28300781 26.55078125 28.29296875 C27.72120972 28.31653442 27.72120972 28.31653442 28.9152832 28.34057617 C31.55120125 27.90995131 32.41058173 27.11289615 34 25 C34.47643691 22.13490542 34.47643691 22.13490542 34.375 19 C34.38273437 17.948125 34.39046875 16.89625 34.3984375 15.8125 C33.94404275 12.60500762 33.51501506 11.92592505 31 10 C28.87826415 9.58878557 28.87826415 9.58878557 26.55078125 9.70703125 C25.27944336 9.7215332 25.27944336 9.7215332 23.98242188 9.73632812 C23.10134766 9.76146484 22.22027344 9.78660156 21.3125 9.8125 C20.41982422 9.82603516 19.52714844 9.83957031 18.60742188 9.85351562 C16.40469017 9.88885357 14.2022688 9.94266031 12 10 Z " fill="#FBFBFB" transform="translate(163,404)"/>
<path d="M0 0 C3.96 0 7.92 0 12 0 C12.33 14.52 12.66 29.04 13 44 C17.09064877 46.04532439 18.97764581 46.2970323 23.4375 46.3125 C24.54996094 46.32925781 25.66242188 46.34601563 26.80859375 46.36328125 C30.57774168 45.93423504 32.1518768 45.53080835 35 43 C35.78613263 39.78437616 35.72104792 36.59796547 35.70703125 33.30078125 C35.72215256 32.35059616 35.73727386 31.40041107 35.75285339 30.4214325 C35.79586074 27.38488272 35.80458098 24.34932448 35.8125 21.3125 C35.83563416 19.25453069 35.86099722 17.19658514 35.88867188 15.13867188 C35.95165314 10.09235977 35.98388655 5.04667065 36 0 C39.63 0 43.26 0 47 0 C47.07428588 6.58363388 47.12866699 13.16702249 47.16479492 19.75097656 C47.17985964 21.98962658 47.20031533 24.22824719 47.22631836 26.46679688 C47.26280283 29.68887602 47.27974983 32.91056411 47.29296875 36.1328125 C47.30845261 37.12991241 47.32393646 38.12701233 47.33988953 39.15432739 C47.34118327 44.52427602 47.08212721 48.3867575 44 53 C37.96525943 57.7299318 30.44486109 57.20649414 23.125 57.25 C22.26519531 57.270625 21.40539062 57.29125 20.51953125 57.3125 C14.6519938 57.34811479 10.32198736 56.52809167 5 54 C1.46996281 49.65533884 -0.12909596 46.0872581 -0.11352539 40.52856445 C-0.11344986 39.62785721 -0.11337433 38.72714996 -0.11329651 37.79914856 C-0.10813522 36.83031235 -0.10297394 35.86147614 -0.09765625 34.86328125 C-0.0962413 33.86870407 -0.09482635 32.87412689 -0.09336853 31.84941101 C-0.08776761 28.67041018 -0.07521496 25.49147957 -0.0625 22.3125 C-0.05748512 20.15820414 -0.05292219 18.00390718 -0.04882812 15.84960938 C-0.03779787 10.56637916 -0.02053262 5.28320149 0 0 Z " fill="#FCFCFC" transform="translate(377,404)"/>
<path d="M0 0 C1.14601685 -0.00833862 1.14601685 -0.00833862 2.31518555 -0.0168457 C8.04214904 0.05569459 13.37668125 0.55692466 18.1875 3.9375 C21.80719033 9.03187899 21.875 14.17219293 21.875 20.3125 C17.915 20.3125 13.955 20.3125 9.875 20.3125 C9.7925 19.19875 9.71 18.085 9.625 16.9375 C9.30495732 13.3374847 9.30495732 13.3374847 7.203125 12.1015625 C4.32678204 11.12669458 1.90999208 11.04732504 -1.125 11.0625 C-2.15625 11.05734375 -3.1875 11.0521875 -4.25 11.046875 C-7.10055974 11.31024193 -8.74983772 11.75105073 -11.125 13.3125 C-13.40628029 17.87506058 -12.31002621 24.24057179 -12.3125 29.25 C-12.32474609 30.55130859 -12.33699219 31.85261719 -12.34960938 33.19335938 C-12.35154297 34.43794922 -12.35347656 35.68253906 -12.35546875 36.96484375 C-12.36163208 38.68175415 -12.36163208 38.68175415 -12.36791992 40.43334961 C-12.34160147 43.51061276 -12.34160147 43.51061276 -10.125 46.3125 C-6.77609379 47.42880207 -4.14960739 47.48015424 -0.625 47.5 C0.5196875 47.51417969 1.664375 47.52835937 2.84375 47.54296875 C6.05262385 47.54799057 6.05262385 47.54799057 8.875 45.3125 C9.66488145 43.35864933 9.66488145 43.35864933 10.0625 41.1875 C10.330625 39.90875 10.59875 38.63 10.875 37.3125 C14.505 37.3125 18.135 37.3125 21.875 37.3125 C22.48584471 47.79866747 22.48584471 47.79866747 20.4375 52.875 C14.37738163 58.63950284 6.22653172 58.79094205 -1.75 58.6875 C-2.65234375 58.69910156 -3.5546875 58.71070313 -4.484375 58.72265625 C-11.17078202 58.6934154 -15.99647435 57.68003293 -21.4375 53.5625 C-26.5413452 46.75737307 -25.42331209 37.88867098 -25.375 29.8125 C-25.38273437 28.51957031 -25.39046875 27.22664063 -25.3984375 25.89453125 C-25.3684462 11.30376159 -25.3684462 11.30376159 -21.0625 5.5625 C-14.4877023 0.52648474 -8.06642997 0.04990894 0 0 Z " fill="#FCFCFC" transform="translate(456.125,402.6875)"/>
<path d="M0 0 C12.87 0 25.74 0 39 0 C39 3.3 39 6.6 39 10 C30.09 10 21.18 10 12 10 C12 14.29 12 18.58 12 23 C20.58 23 29.16 23 38 23 C38 25.97 38 28.94 38 32 C29.42 32 20.84 32 12 32 C12 36.62 12 41.24 12 46 C21.24 46 30.48 46 40 46 C40 49.3 40 52.6 40 56 C26.8 56 13.6 56 0 56 C0 37.52 0 19.04 0 0 Z " fill="#FDFDFD" transform="translate(903,404)"/>
<path d="M0 0 C14.52 0 29.04 0 44 0 C44 3.3 44 6.6 44 10 C38.72 10 33.44 10 28 10 C28 25.18 28 40.36 28 56 C24.04 56 20.08 56 16 56 C16 40.82 16 25.64 16 10 C10.72 10 5.44 10 0 10 C0 6.7 0 3.4 0 0 Z " fill="#FDFDFD" transform="translate(480,404)"/>
<path d="M0 0 C17.82 0 35.64 0 54 0 C54 8.25 54 16.5 54 25 C47.89068264 22.96356088 42.30418546 20.89854585 36.5625 18.12890625 C35.79752197 17.76530502 35.03254395 17.4017038 34.24438477 17.02708435 C31.82723049 15.87709564 29.41350663 14.72012156 27 13.5625 C24.5858323 12.40988744 22.17095979 11.25877159 19.75561523 10.10862732 C18.26210688 9.39688093 16.76936889 8.68351465 15.27758789 7.96815491 C10.22499917 5.55257185 5.12767842 3.25159474 0 1 C0 0.67 0 0.34 0 0 Z " fill="#ED7D19" transform="translate(109,232)"/>
<path d="M0 0 C3.96 0 7.92 0 12 0 C12 18.48 12 36.96 12 56 C8.04 56 4.08 56 0 56 C0 37.52 0 19.04 0 0 Z " fill="#FDFDFD" transform="translate(528,404)"/>
<path d="M0 0 C4.29 0 8.58 0 13 0 C15 4 15 4 14 8 C9.38 5.69 4.76 3.38 0 1 C0 0.67 0 0.34 0 0 Z " fill="#E7832B" transform="translate(370,352)"/>
</svg>
